<svg width="194" height="99" viewBox="0 0 194 99" fill="none" xmlns="http://www.w3.org/2000/svg">
<g clip-path="url(#clip0_1033_480)">
<mask id="path-1-outside-1_1033_480" maskUnits="userSpaceOnUse" x="-1" y="-1" width="196" height="101" fill="black">
<rect fill="white" x="-1" y="-1" width="196" height="101"/>
<path fill-rule="evenodd" clip-rule="evenodd" d="M0 17.6083H2.2037V19.8074H0V17.6083ZM0 22.0096H2.2037V24.2087H0V22.0096ZM4.41049 17.6083H6.6142V19.8074H4.41049V17.6083ZM4.41049 22.0096H6.6142V24.2087H4.41049V22.0096ZM4.41049 26.4109H6.6142V28.61H4.41049V26.4109ZM8.82099 17.6114H11.0247V19.8105H8.82099V17.6114ZM8.82099 22.0127H11.0247V24.2118H8.82099V22.0127ZM13.2315 17.6114H15.4352V19.8105H13.2315V17.6114ZM13.2315 22.0127H15.4352V24.2118H13.2315V22.0127ZM8.82099 26.414H11.0247V28.6131H8.82099V26.414ZM17.6389 17.6144H19.8426V19.8136H17.6389V17.6144ZM17.6389 22.0157H19.8426V24.2149H17.6389V22.0157ZM17.6389 26.417H19.8426V28.6162H17.6389V26.417ZM22.0494 17.6175H24.2531V19.8166H22.0494V17.6175ZM22.0494 22.0188H24.2531V24.2179H22.0494V22.0188ZM22.0494 26.4201H24.2531V28.6192H22.0494V26.4201ZM22.0494 30.8214H24.2531V33.0205H22.0494V30.8214ZM22.0494 35.2227H24.2531V37.4218H22.0494V35.2227ZM26.4568 8.82416H28.6605V11.0233H26.4568V8.82416ZM26.4568 13.2255H28.6605V15.4246H26.4568V13.2255ZM26.4568 17.6268H28.6605V19.8259H26.4568V17.6268ZM26.4568 22.0281H28.6605V24.2272H26.4568V22.0281ZM26.4568 26.4294H28.6605V28.6285H26.4568V26.4294ZM26.4568 30.8307H28.6605V33.0298H26.4568V30.8307ZM26.4568 35.232H28.6605V37.4311H26.4568V35.232ZM26.4568 39.6333H28.6605V41.8324H26.4568V39.6333ZM26.4568 44.0346H28.6605V46.2337H26.4568V44.0346ZM30.8673 8.8334H33.071V11.0325H30.8673V8.8334ZM35.2778 4.4321H37.4815V6.63121H35.2778V4.4321ZM30.8673 13.2316H33.071V15.4307H30.8673V13.2316ZM30.8673 17.6329H33.071V19.832H30.8673V17.6329ZM30.8673 22.0342H33.071V24.2333H30.8673V22.0342ZM30.8673 26.4355H33.071V28.6346H30.8673V26.4355ZM30.8673 30.8368H33.071V33.0359H30.8673V30.8368ZM30.8673 35.2381H33.071V37.4372H30.8673V35.2381ZM30.8673 39.6394H33.071V41.8385H30.8673V39.6394ZM30.8673 44.0407H33.071V46.2398H30.8673V44.0407ZM30.8673 48.442H33.071V50.6411H30.8673V48.442ZM35.2778 13.2409H37.4815V15.44H35.2778V13.2409ZM35.2778 17.6422H37.4815V19.8413H35.2778V17.6422ZM35.2778 22.0435H37.4815V24.2426H35.2778V22.0435ZM35.2778 26.4448H37.4815V28.6439H35.2778V26.4448ZM35.2778 30.8461H37.4815V33.0452H35.2778V30.8461ZM35.2778 35.2474H37.4815V37.4465H35.2778V35.2474ZM35.2778 39.6487H37.4815V41.8478H35.2778V39.6487ZM35.2778 44.05H37.4815V46.2491H35.2778V44.05ZM35.2778 48.4513H37.4815V50.6504H35.2778V48.4513ZM35.2778 52.8526H37.4815V55.0517H35.2778V52.8526ZM39.6821 4.40438H41.8858V6.60349H39.6821V4.40438ZM39.6821 8.80568H41.8858V11.0048H39.6821V8.80568ZM39.6821 13.207H41.8858V15.4061H39.6821V13.207ZM44.0926 13.207H46.2963V15.4061H44.0926V13.207ZM48.5031 13.207H50.7068V15.4061H48.5031V13.207ZM39.6852 17.6083H41.8889V19.8074H39.6852V17.6083ZM39.6852 30.8091H41.8889V33.0082H39.6852V30.8091ZM39.6852 35.2104H41.8889V37.4095H39.6852V35.2104ZM39.6852 39.6117H41.8889V41.8108H39.6852V39.6117ZM39.6852 44.013H41.8889V46.2121H39.6852V44.013ZM44.0957 30.8153H46.2994V33.0144H44.0957V30.8153ZM44.0957 35.2166H46.2994V37.4157H44.0957V35.2166ZM44.0957 39.6148H46.2994V41.8139H44.0957V39.6148ZM44.0957 44.0161H46.2994V46.2152H44.0957V44.0161ZM44.0957 57.2169H46.2994V59.416H44.0957V57.2169ZM48.5062 57.2169H50.7099V59.416H48.5062V57.2169ZM52.9167 57.2169H55.1204V59.416H52.9167V57.2169ZM57.3272 57.2169H59.5309V59.416H57.3272V57.2169ZM48.5093 61.6182H50.713V63.8173H48.5093V61.6182ZM52.9198 61.6182H55.1235V63.8173H52.9198V61.6182ZM57.3302 61.6182H59.534V63.8173H57.3302V61.6182ZM61.7407 61.6182H63.9444V63.8173H61.7407V61.6182ZM48.5123 66.0195H50.7161V68.2186H48.5123V66.0195ZM52.9228 66.0195H55.1265V68.2186H52.9228V66.0195ZM57.3333 66.0195H59.537V68.2186H57.3333V66.0195ZM61.7438 66.0195H63.9475V68.2186H61.7438V66.0195ZM66.1543 66.0195H68.358V68.2186H66.1543V66.0195ZM48.5154 70.4208H50.7191V72.6199H48.5154V70.4208ZM52.9259 70.4208H55.1296V72.6199H52.9259V70.4208ZM57.3364 70.4208H59.5401V72.6199H57.3364V70.4208ZM61.7469 70.4208H63.9506V72.6199H61.7469V70.4208ZM52.929 74.8221H55.1327V77.0212H52.929V74.8221ZM57.3395 74.8221H59.5432V77.0212H57.3395V74.8221ZM61.75 74.8221H63.9537V77.0212H61.75V74.8221ZM52.9321 79.2234H55.1358V81.4225H52.9321V79.2234ZM57.3426 79.2234H59.5463V81.4225H57.3426V79.2234ZM52.9321 83.6247H55.1358V85.8238H52.9321V83.6247ZM52.9321 88.026H55.1358V90.2251H52.9321V88.026ZM52.9321 92.4273H55.1358V94.6264H52.9321V92.4273ZM57.3426 96.8286H59.5463V99.0277H57.3426V96.8286ZM57.3426 83.6278H59.5463V85.8269H57.3426V83.6278ZM61.7531 79.2265H63.9568V81.4256H61.7531V79.2265ZM66.1636 70.427H68.3673V72.6261H66.1636V70.427ZM48.5247 26.4263H50.7284V28.6254H48.5247V26.4263ZM48.5247 30.8276H50.7284V33.0267H48.5247V30.8276ZM48.5247 17.6268H50.7284V19.8259H48.5247V17.6268ZM48.5247 22.0281H50.7284V24.2272H48.5247V22.0281ZM48.5247 35.2289H50.7284V37.428H48.5247V35.2289ZM52.9352 26.4294H55.1389V28.6285H52.9352V26.4294ZM52.9352 30.8307H55.1389V33.0298H52.9352V30.8307ZM52.9352 17.6298H55.1389V19.829H52.9352V17.6298ZM52.9352 22.0311H55.1389V24.2303H52.9352V22.0311ZM52.9352 35.232H55.1389V37.4311H52.9352V35.232ZM57.3457 30.8307H59.5494V33.0298H57.3457V30.8307ZM57.3457 35.232H59.5494V37.4311H57.3457V35.232ZM48.5278 39.6333H50.7315V41.8324H48.5278V39.6333ZM39.7099 52.8341H41.9136V55.0332H39.7099V52.8341ZM44.0895 0H46.2932V2.19911H44.0895V0ZM44.0895 4.4013H46.2932V6.60041H44.0895V4.4013ZM48.5 0H50.7037V2.19911H48.5V0ZM48.5 4.4013H50.7037V6.60041H48.5V4.4013ZM52.9105 4.4013H55.1142V6.60041H52.9105V4.4013ZM57.321 4.4013H59.5247V6.60041H57.321V4.4013ZM57.321 8.8026H59.5247V11.0017H57.321V8.8026ZM61.7315 4.4013H63.9352V6.60041H61.7315V4.4013ZM66.142 4.4013H68.3457V6.60041H66.142V4.4013ZM70.5525 4.4013H72.7562V6.60041H70.5525V4.4013ZM74.963 4.4013H77.1667V6.60041H74.963V4.4013ZM79.3735 4.4013H81.5772V6.60041H79.3735V4.4013ZM99.216 4.4013H101.42V6.60041H99.216V4.4013ZM103.627 4.4013H105.83V6.60041H103.627V4.4013ZM61.7407 8.8026H63.9444V11.0017H61.7407V8.8026ZM66.1512 8.8026H68.3549V11.0017H66.1512V8.8026ZM70.5617 8.8026H72.7654V11.0017H70.5617V8.8026ZM74.9722 8.8026H77.1759V11.0017H74.9722V8.8026ZM61.7469 13.2039H63.9506V15.403H61.7469V13.2039ZM66.1574 13.2039H68.3611V15.403H66.1574V13.2039ZM61.75 17.6052H63.9537V19.8043H61.75V17.6052ZM66.1605 17.6052H68.3642V19.8043H66.1605V17.6052ZM66.1605 22.0065H68.3642V24.2056H66.1605V22.0065ZM70.571 13.207H72.7747V15.4061H70.571V13.207ZM74.9815 13.207H77.1852V15.4061H74.9815V13.207ZM79.392 8.80568H81.5957V11.0048H79.392V8.80568ZM86.0062 30.806H88.2099V33.0051H86.0062V30.806ZM86.0062 48.4051H88.2099V50.6042H86.0062V48.4051ZM86.0062 52.8064H88.2099V55.0055H86.0062V52.8064ZM86.0062 57.2077H88.2099V59.4068H86.0062V57.2077ZM90.4167 48.4081H92.6204V50.6073H90.4167V48.4081ZM90.4167 52.8094H92.6204V55.0086H90.4167V52.8094ZM90.4167 57.2107H92.6204V59.4099H90.4167V57.2107ZM94.8272 48.4112H97.0309V50.6103H94.8272V48.4112ZM94.8272 52.8125H97.0309V55.0116H94.8272V52.8125ZM94.8272 57.2138H97.0309V59.4129H94.8272V57.2138ZM99.2377 48.4143H101.441V50.6134H99.2377V48.4143ZM90.4197 44.013H92.6235V46.2121H90.4197V44.013ZM94.8302 44.013H97.034V46.2121H94.8302V44.013ZM94.8302 35.2135H97.034V37.4126H94.8302V35.2135ZM94.8302 30.8122H97.034V33.0113H94.8302V30.8122ZM99.2407 44.013H101.444V46.2121H99.2407V44.013ZM99.2407 52.8125H101.444V55.0116H99.2407V52.8125ZM99.2407 57.2138H101.444V59.4129H99.2407V57.2138ZM99.2407 66.0133H101.444V68.2125H99.2407V66.0133ZM99.2407 61.612H101.444V63.8111H99.2407V61.612ZM99.2407 70.4116H101.444V72.6107H99.2407V70.4116ZM103.651 48.4112H105.855V50.6103H103.651V48.4112ZM103.651 44.0099H105.855V46.209H103.651V44.0099ZM103.651 52.8094H105.855V55.0086H103.651V52.8094ZM103.651 57.2107H105.855V59.4099H103.651V57.2107ZM103.651 66.0103H105.855V68.2094H103.651V66.0103ZM103.651 61.609H105.855V63.8081H103.651V61.609ZM103.651 70.4085H105.855V72.6076H103.651V70.4085ZM108.062 48.4081H110.265V50.6073H108.062V48.4081ZM108.062 52.8094H110.265V55.0086H108.062V52.8094ZM108.062 57.2107H110.265V59.4099H108.062V57.2107ZM108.062 66.0103H110.265V68.2094H108.062V66.0103ZM108.062 61.609H110.265V63.8081H108.062V61.609ZM112.472 57.2077H114.676V59.4068H112.472V57.2077ZM116.883 57.2077H119.086V59.4068H116.883V57.2077ZM112.472 66.0072H114.676V68.2063H112.472V66.0072ZM112.472 61.6059H114.676V63.805H112.472V61.6059ZM108.062 70.4054H110.265V72.6045H108.062V70.4054ZM116.88 74.8067H119.083V77.0058H116.88V74.8067ZM116.88 79.208H119.083V81.4071H116.88V79.208ZM103.651 74.8067H105.855V77.0058H103.651V74.8067ZM103.651 79.208H105.855V81.4071H103.651V79.208ZM99.2407 17.6083H101.444V19.8074H99.2407V17.6083ZM99.2407 22.0096H101.444V24.2087H99.2407V22.0096ZM99.2407 30.8091H101.444V33.0082H99.2407V30.8091ZM99.2407 26.4078H101.444V28.6069H99.2407V26.4078ZM99.2407 35.2073H101.444V37.4064H99.2407V35.2073ZM103.651 17.6052H105.855V19.8043H103.651V17.6052ZM103.651 22.0065H105.855V24.2056H103.651V22.0065ZM103.651 30.806H105.855V33.0051H103.651V30.806ZM103.651 26.4047H105.855V28.6038H103.651V26.4047ZM108.062 17.6052H110.265V19.8043H108.062V17.6052ZM108.062 22.0065H110.265V24.2056H108.062V22.0065ZM108.062 30.806H110.265V33.0051H108.062V30.806ZM108.062 26.4047H110.265V28.6038H108.062V26.4047ZM112.472 17.6052H114.676V19.8043H112.472V17.6052ZM112.472 22.0065H114.676V24.2056H112.472V22.0065ZM112.472 30.806H114.676V33.0051H112.472V30.806ZM116.883 35.2073H119.086V37.4064H116.883V35.2073ZM112.472 26.4078H114.676V28.6069H112.472V26.4078ZM116.883 17.6083H119.086V19.8074H116.883V17.6083ZM116.883 22.0096H119.086V24.2087H116.883V22.0096ZM116.883 30.8091H119.086V33.0082H116.883V30.8091ZM116.883 26.4078H119.086V28.6069H116.883V26.4078ZM121.293 17.6083H123.497V19.8074H121.293V17.6083ZM121.293 22.0096H123.497V24.2087H121.293V22.0096ZM121.293 30.8091H123.497V33.0082H121.293V30.8091ZM121.293 26.4078H123.497V28.6069H121.293V26.4078ZM125.704 17.6083H127.907V19.8074H125.704V17.6083ZM125.704 22.0096H127.907V24.2087H125.704V22.0096ZM125.704 30.8091H127.907V33.0082H125.704V30.8091ZM125.704 26.4078H127.907V28.6069H125.704V26.4078ZM130.114 17.6083H132.318V19.8074H130.114V17.6083ZM130.114 22.0096H132.318V24.2087H130.114V22.0096ZM130.114 30.8091H132.318V33.0082H130.114V30.8091ZM130.114 26.4078H132.318V28.6069H130.114V26.4078ZM134.525 17.6083H136.728V19.8074H134.525V17.6083ZM134.525 22.0096H136.728V24.2087H134.525V22.0096ZM134.525 30.8091H136.728V33.0082H134.525V30.8091ZM134.525 26.4078H136.728V28.6069H134.525V26.4078ZM138.935 17.6083H141.139V19.8074H138.935V17.6083ZM138.935 22.0096H141.139V24.2087H138.935V22.0096ZM138.935 30.8091H141.139V33.0082H138.935V30.8091ZM138.935 26.4078H141.139V28.6069H138.935V26.4078ZM143.346 17.6083H145.549V19.8074H143.346V17.6083ZM143.346 22.0096H145.549V24.2087H143.346V22.0096ZM143.346 30.8091H145.549V33.0082H143.346V30.8091ZM143.346 26.4078H145.549V28.6069H143.346V26.4078ZM147.756 17.6083H149.96V19.8074H147.756V17.6083ZM147.756 22.0096H149.96V24.2087H147.756V22.0096ZM147.756 30.8091H149.96V33.0082H147.756V30.8091ZM147.756 26.4078H149.96V28.6069H147.756V26.4078ZM152.164 17.6083H154.367V19.8074H152.164V17.6083ZM152.164 22.0096H154.367V24.2087H152.164V22.0096ZM152.164 30.8091H154.367V33.0082H152.164V30.8091ZM112.481 44.0099H114.685V46.209H112.481V44.0099ZM116.892 44.0099H119.096V46.209H116.892V44.0099ZM121.302 44.0099H123.506V46.209H121.302V44.0099ZM125.713 44.0099H127.917V46.209H125.713V44.0099ZM130.123 44.0099H132.327V46.209H130.123V44.0099ZM134.534 44.0099H136.738V46.209H134.534V44.0099ZM138.944 44.0099H141.148V46.209H138.944V44.0099ZM143.355 44.0099H145.559V46.209H143.355V44.0099ZM147.762 44.0099H149.966V46.209H147.762V44.0099ZM152.17 44.0099H154.373V46.209H152.17V44.0099ZM116.895 48.4112H119.099V50.6103H116.895V48.4112ZM121.306 48.4112H123.509V50.6103H121.306V48.4112ZM125.716 48.4112H127.92V50.6103H125.716V48.4112ZM130.127 48.4112H132.33V50.6103H130.127V48.4112ZM134.537 48.4112H136.741V50.6103H134.537V48.4112ZM134.537 52.8125H136.741V55.0116H134.537V52.8125ZM134.537 57.2138H136.741V59.4129H134.537V57.2138ZM138.948 48.4143H141.151V50.6134H138.948V48.4143ZM143.358 48.4143H145.562V50.6134H143.358V48.4143ZM147.765 48.4143H149.969V50.6134H147.765V48.4143ZM143.355 52.8156H145.559V55.0147H143.355V52.8156ZM147.765 52.8156H149.969V55.0147H147.765V52.8156ZM147.765 57.2169H149.969V59.416H147.765V57.2169ZM147.765 61.6182H149.969V63.8173H147.765V61.6182ZM152.173 61.6182H154.377V63.8173H152.173V61.6182ZM156.58 61.6182H158.784V63.8173H156.58V61.6182ZM152.173 66.0195H154.377V68.2186H152.173V66.0195ZM156.58 66.0195H158.784V68.2186H156.58V66.0195ZM167.605 66.0195H169.809V68.2186H167.605V66.0195ZM172.012 66.0195H174.216V68.2186H172.012V66.0195ZM152.173 48.4205H154.377V50.6196H152.173V48.4205ZM152.173 26.4201H154.377V28.6192H152.173V26.4201ZM156.58 17.6206H158.784V19.8197H156.58V17.6206ZM156.58 22.0219H158.784V24.221H156.58V22.0219ZM156.58 30.8214H158.784V33.0205H156.58V30.8214ZM156.58 26.4201H158.784V28.6192H156.58V26.4201ZM160.991 17.6206H163.194V19.8197H160.991V17.6206ZM160.991 22.0219H163.194V24.221H160.991V22.0219ZM160.991 30.8214H163.194V33.0205H160.991V30.8214ZM125.716 35.2227H127.92V37.4218H125.716V35.2227ZM130.127 35.2227H132.33V37.4218H130.127V35.2227ZM134.537 35.2227H136.741V37.4218H134.537V35.2227ZM138.948 35.2227H141.151V37.4218H138.948V35.2227ZM143.358 35.2227H145.562V37.4218H143.358V35.2227ZM147.765 35.2227H149.969V37.4218H147.765V35.2227ZM152.173 35.2227H154.377V37.4218H152.173V35.2227ZM156.58 35.2227H158.784V37.4218H156.58V35.2227ZM160.991 35.2227H163.194V37.4218H160.991V35.2227ZM152.173 74.8221H154.377V77.0212H152.173V74.8221ZM156.58 74.8221H158.784V77.0212H156.58V74.8221ZM160.991 74.8221H163.194V77.0212H160.991V74.8221ZM165.398 74.8221H167.602V77.0212H165.398V74.8221ZM152.17 79.2234H154.373V81.4225H152.17V79.2234ZM156.577 79.2234H158.781V81.4225H156.577V79.2234ZM160.988 79.2234H163.191V81.4225H160.988V79.2234ZM165.395 79.2234H167.599V81.4225H165.395V79.2234ZM169.802 74.8221H172.006V77.0212H169.802V74.8221ZM169.802 79.2234H172.006V81.4225H169.802V79.2234ZM160.985 83.6247H163.188V85.8238H160.985V83.6247ZM165.392 83.6247H167.596V85.8238H165.392V83.6247ZM169.799 83.6247H172.003V85.8238H169.799V83.6247ZM174.207 83.6247H176.41V85.8238H174.207V83.6247ZM183.025 83.6247H185.228V85.8238H183.025V83.6247ZM183.025 88.026H185.228V90.2251H183.025V88.026ZM125.707 39.6271H127.91V41.8262H125.707V39.6271ZM130.117 39.6271H132.321V41.8262H130.117V39.6271ZM134.528 39.6271H136.731V41.8262H134.528V39.6271ZM138.938 39.6271H141.142V41.8262H138.938V39.6271ZM143.349 39.6271H145.552V41.8262H143.349V39.6271ZM147.759 39.6271H149.963V41.8262H147.759V39.6271ZM152.167 39.6271H154.37V41.8262H152.167V39.6271ZM156.574 39.6271H158.778V41.8262H156.574V39.6271ZM160.985 26.4294H163.188V28.6285H160.985V26.4294ZM165.392 17.6298H167.596V19.829H165.392V17.6298ZM165.392 22.0311H167.596V24.2303H165.392V22.0311ZM165.392 30.8307H167.596V33.0298H165.392V30.8307ZM165.392 26.4294H167.596V28.6285H165.392V26.4294ZM169.799 17.6298H172.003V19.829H169.799V17.6298ZM121.299 13.2285H123.503V15.4277H121.299V13.2285ZM125.71 13.2285H127.914V15.4277H125.71V13.2285ZM121.299 8.82724H123.503V11.0264H121.299V8.82724ZM125.71 8.82724H127.914V11.0264H125.71V8.82724ZM130.12 13.2285H132.324V15.4277H130.12V13.2285ZM134.531 13.2285H136.735V15.4277H134.531V13.2285ZM138.941 13.2285H141.145V15.4277H138.941V13.2285ZM143.352 13.2285H145.556V15.4277H143.352V13.2285ZM147.759 13.2285H149.963V15.4277H147.759V13.2285ZM138.941 8.82724H141.145V11.0264H138.941V8.82724ZM143.352 8.82724H145.556V11.0264H143.352V8.82724ZM143.352 4.42594H145.556V6.62505H143.352V4.42594ZM147.762 8.82724H149.966V11.0264H147.762V8.82724ZM152.17 13.2285H154.373V15.4277H152.17V13.2285ZM156.577 13.2285H158.781V15.4277H156.577V13.2285ZM160.988 13.2285H163.191V15.4277H160.988V13.2285ZM165.395 13.2285H167.599V15.4277H165.395V13.2285ZM169.802 13.2285H172.006V15.4277H169.802V13.2285ZM169.802 8.82724H172.006V11.0264H169.802V8.82724ZM169.802 22.025H172.006V24.2241H169.802V22.025ZM174.21 17.6237H176.414V19.8228H174.21V17.6237ZM174.21 22.025H176.414V24.2241H174.21V22.025ZM178.617 17.6237H180.821V19.8228H178.617V17.6237ZM178.617 22.025H180.821V24.2241H178.617V22.025ZM183.025 17.6237H185.228V19.8228H183.025V17.6237ZM187.432 17.6237H189.636V19.8228H187.432V17.6237ZM191.843 17.6237H194.046V19.8228H191.843V17.6237ZM183.025 22.025H185.228V24.2241H183.025V22.025ZM178.617 26.4263H180.821V28.6254H178.617V26.4263ZM103.66 35.2258H105.864V37.4249H103.66V35.2258ZM108.071 39.6271H110.275V41.8262H108.071V39.6271ZM112.481 39.6271H114.685V41.8262H112.481V39.6271ZM90.4352 35.2258H92.6389V37.4249H90.4352V35.2258ZM90.4352 26.4263H92.6389V28.6254H90.4352V26.4263Z"/>
</mask>
<path fill-rule="evenodd" clip-rule="evenodd" d="M0 17.6083H2.2037V19.8074H0V17.6083ZM0 22.0096H2.2037V24.2087H0V22.0096ZM4.41049 17.6083H6.6142V19.8074H4.41049V17.6083ZM4.41049 22.0096H6.6142V24.2087H4.41049V22.0096ZM4.41049 26.4109H6.6142V28.61H4.41049V26.4109ZM8.82099 17.6114H11.0247V19.8105H8.82099V17.6114ZM8.82099 22.0127H11.0247V24.2118H8.82099V22.0127ZM13.2315 17.6114H15.4352V19.8105H13.2315V17.6114ZM13.2315 22.0127H15.4352V24.2118H13.2315V22.0127ZM8.82099 26.414H11.0247V28.6131H8.82099V26.414ZM17.6389 17.6144H19.8426V19.8136H17.6389V17.6144ZM17.6389 22.0157H19.8426V24.2149H17.6389V22.0157ZM17.6389 26.417H19.8426V28.6162H17.6389V26.417ZM22.0494 17.6175H24.2531V19.8166H22.0494V17.6175ZM22.0494 22.0188H24.2531V24.2179H22.0494V22.0188ZM22.0494 26.4201H24.2531V28.6192H22.0494V26.4201ZM22.0494 30.8214H24.2531V33.0205H22.0494V30.8214ZM22.0494 35.2227H24.2531V37.4218H22.0494V35.2227ZM26.4568 8.82416H28.6605V11.0233H26.4568V8.82416ZM26.4568 13.2255H28.6605V15.4246H26.4568V13.2255ZM26.4568 17.6268H28.6605V19.8259H26.4568V17.6268ZM26.4568 22.0281H28.6605V24.2272H26.4568V22.0281ZM26.4568 26.4294H28.6605V28.6285H26.4568V26.4294ZM26.4568 30.8307H28.6605V33.0298H26.4568V30.8307ZM26.4568 35.232H28.6605V37.4311H26.4568V35.232ZM26.4568 39.6333H28.6605V41.8324H26.4568V39.6333ZM26.4568 44.0346H28.6605V46.2337H26.4568V44.0346ZM30.8673 8.8334H33.071V11.0325H30.8673V8.8334ZM35.2778 4.4321H37.4815V6.63121H35.2778V4.4321ZM30.8673 13.2316H33.071V15.4307H30.8673V13.2316ZM30.8673 17.6329H33.071V19.832H30.8673V17.6329ZM30.8673 22.0342H33.071V24.2333H30.8673V22.0342ZM30.8673 26.4355H33.071V28.6346H30.8673V26.4355ZM30.8673 30.8368H33.071V33.0359H30.8673V30.8368ZM30.8673 35.2381H33.071V37.4372H30.8673V35.2381ZM30.8673 39.6394H33.071V41.8385H30.8673V39.6394ZM30.8673 44.0407H33.071V46.2398H30.8673V44.0407ZM30.8673 48.442H33.071V50.6411H30.8673V48.442ZM35.2778 13.2409H37.4815V15.44H35.2778V13.2409ZM35.2778 17.6422H37.4815V19.8413H35.2778V17.6422ZM35.2778 22.0435H37.4815V24.2426H35.2778V22.0435ZM35.2778 26.4448H37.4815V28.6439H35.2778V26.4448ZM35.2778 30.8461H37.4815V33.0452H35.2778V30.8461ZM35.2778 35.2474H37.4815V37.4465H35.2778V35.2474ZM35.2778 39.6487H37.4815V41.8478H35.2778V39.6487ZM35.2778 44.05H37.4815V46.2491H35.2778V44.05ZM35.2778 48.4513H37.4815V50.6504H35.2778V48.4513ZM35.2778 52.8526H37.4815V55.0517H35.2778V52.8526ZM39.6821 4.40438H41.8858V6.60349H39.6821V4.40438ZM39.6821 8.80568H41.8858V11.0048H39.6821V8.80568ZM39.6821 13.207H41.8858V15.4061H39.6821V13.207ZM44.0926 13.207H46.2963V15.4061H44.0926V13.207ZM48.5031 13.207H50.7068V15.4061H48.5031V13.207ZM39.6852 17.6083H41.8889V19.8074H39.6852V17.6083ZM39.6852 30.8091H41.8889V33.0082H39.6852V30.8091ZM39.6852 35.2104H41.8889V37.4095H39.6852V35.2104ZM39.6852 39.6117H41.8889V41.8108H39.6852V39.6117ZM39.6852 44.013H41.8889V46.2121H39.6852V44.013ZM44.0957 30.8153H46.2994V33.0144H44.0957V30.8153ZM44.0957 35.2166H46.2994V37.4157H44.0957V35.2166ZM44.0957 39.6148H46.2994V41.8139H44.0957V39.6148ZM44.0957 44.0161H46.2994V46.2152H44.0957V44.0161ZM44.0957 57.2169H46.2994V59.416H44.0957V57.2169ZM48.5062 57.2169H50.7099V59.416H48.5062V57.2169ZM52.9167 57.2169H55.1204V59.416H52.9167V57.2169ZM57.3272 57.2169H59.5309V59.416H57.3272V57.2169ZM48.5093 61.6182H50.713V63.8173H48.5093V61.6182ZM52.9198 61.6182H55.1235V63.8173H52.9198V61.6182ZM57.3302 61.6182H59.534V63.8173H57.3302V61.6182ZM61.7407 61.6182H63.9444V63.8173H61.7407V61.6182ZM48.5123 66.0195H50.7161V68.2186H48.5123V66.0195ZM52.9228 66.0195H55.1265V68.2186H52.9228V66.0195ZM57.3333 66.0195H59.537V68.2186H57.3333V66.0195ZM61.7438 66.0195H63.9475V68.2186H61.7438V66.0195ZM66.1543 66.0195H68.358V68.2186H66.1543V66.0195ZM48.5154 70.4208H50.7191V72.6199H48.5154V70.4208ZM52.9259 70.4208H55.1296V72.6199H52.9259V70.4208ZM57.3364 70.4208H59.5401V72.6199H57.3364V70.4208ZM61.7469 70.4208H63.9506V72.6199H61.7469V70.4208ZM52.929 74.8221H55.1327V77.0212H52.929V74.8221ZM57.3395 74.8221H59.5432V77.0212H57.3395V74.8221ZM61.75 74.8221H63.9537V77.0212H61.75V74.8221ZM52.9321 79.2234H55.1358V81.4225H52.9321V79.2234ZM57.3426 79.2234H59.5463V81.4225H57.3426V79.2234ZM52.9321 83.6247H55.1358V85.8238H52.9321V83.6247ZM52.9321 88.026H55.1358V90.2251H52.9321V88.026ZM52.9321 92.4273H55.1358V94.6264H52.9321V92.4273ZM57.3426 96.8286H59.5463V99.0277H57.3426V96.8286ZM57.3426 83.6278H59.5463V85.8269H57.3426V83.6278ZM61.7531 79.2265H63.9568V81.4256H61.7531V79.2265ZM66.1636 70.427H68.3673V72.6261H66.1636V70.427ZM48.5247 26.4263H50.7284V28.6254H48.5247V26.4263ZM48.5247 30.8276H50.7284V33.0267H48.5247V30.8276ZM48.5247 17.6268H50.7284V19.8259H48.5247V17.6268ZM48.5247 22.0281H50.7284V24.2272H48.5247V22.0281ZM48.5247 35.2289H50.7284V37.428H48.5247V35.2289ZM52.9352 26.4294H55.1389V28.6285H52.9352V26.4294ZM52.9352 30.8307H55.1389V33.0298H52.9352V30.8307ZM52.9352 17.6298H55.1389V19.829H52.9352V17.6298ZM52.9352 22.0311H55.1389V24.2303H52.9352V22.0311ZM52.9352 35.232H55.1389V37.4311H52.9352V35.232ZM57.3457 30.8307H59.5494V33.0298H57.3457V30.8307ZM57.3457 35.232H59.5494V37.4311H57.3457V35.232ZM48.5278 39.6333H50.7315V41.8324H48.5278V39.6333ZM39.7099 52.8341H41.9136V55.0332H39.7099V52.8341ZM44.0895 0H46.2932V2.19911H44.0895V0ZM44.0895 4.4013H46.2932V6.60041H44.0895V4.4013ZM48.5 0H50.7037V2.19911H48.5V0ZM48.5 4.4013H50.7037V6.60041H48.5V4.4013ZM52.9105 4.4013H55.1142V6.60041H52.9105V4.4013ZM57.321 4.4013H59.5247V6.60041H57.321V4.4013ZM57.321 8.8026H59.5247V11.0017H57.321V8.8026ZM61.7315 4.4013H63.9352V6.60041H61.7315V4.4013ZM66.142 4.4013H68.3457V6.60041H66.142V4.4013ZM70.5525 4.4013H72.7562V6.60041H70.5525V4.4013ZM74.963 4.4013H77.1667V6.60041H74.963V4.4013ZM79.3735 4.4013H81.5772V6.60041H79.3735V4.4013ZM99.216 4.4013H101.42V6.60041H99.216V4.4013ZM103.627 4.4013H105.83V6.60041H103.627V4.4013ZM61.7407 8.8026H63.9444V11.0017H61.7407V8.8026ZM66.1512 8.8026H68.3549V11.0017H66.1512V8.8026ZM70.5617 8.8026H72.7654V11.0017H70.5617V8.8026ZM74.9722 8.8026H77.1759V11.0017H74.9722V8.8026ZM61.7469 13.2039H63.9506V15.403H61.7469V13.2039ZM66.1574 13.2039H68.3611V15.403H66.1574V13.2039ZM61.75 17.6052H63.9537V19.8043H61.75V17.6052ZM66.1605 17.6052H68.3642V19.8043H66.1605V17.6052ZM66.1605 22.0065H68.3642V24.2056H66.1605V22.0065ZM70.571 13.207H72.7747V15.4061H70.571V13.207ZM74.9815 13.207H77.1852V15.4061H74.9815V13.207ZM79.392 8.80568H81.5957V11.0048H79.392V8.80568ZM86.0062 30.806H88.2099V33.0051H86.0062V30.806ZM86.0062 48.4051H88.2099V50.6042H86.0062V48.4051ZM86.0062 52.8064H88.2099V55.0055H86.0062V52.8064ZM86.0062 57.2077H88.2099V59.4068H86.0062V57.2077ZM90.4167 48.4081H92.6204V50.6073H90.4167V48.4081ZM90.4167 52.8094H92.6204V55.0086H90.4167V52.8094ZM90.4167 57.2107H92.6204V59.4099H90.4167V57.2107ZM94.8272 48.4112H97.0309V50.6103H94.8272V48.4112ZM94.8272 52.8125H97.0309V55.0116H94.8272V52.8125ZM94.8272 57.2138H97.0309V59.4129H94.8272V57.2138ZM99.2377 48.4143H101.441V50.6134H99.2377V48.4143ZM90.4197 44.013H92.6235V46.2121H90.4197V44.013ZM94.8302 44.013H97.034V46.2121H94.8302V44.013ZM94.8302 35.2135H97.034V37.4126H94.8302V35.2135ZM94.8302 30.8122H97.034V33.0113H94.8302V30.8122ZM99.2407 44.013H101.444V46.2121H99.2407V44.013ZM99.2407 52.8125H101.444V55.0116H99.2407V52.8125ZM99.2407 57.2138H101.444V59.4129H99.2407V57.2138ZM99.2407 66.0133H101.444V68.2125H99.2407V66.0133ZM99.2407 61.612H101.444V63.8111H99.2407V61.612ZM99.2407 70.4116H101.444V72.6107H99.2407V70.4116ZM103.651 48.4112H105.855V50.6103H103.651V48.4112ZM103.651 44.0099H105.855V46.209H103.651V44.0099ZM103.651 52.8094H105.855V55.0086H103.651V52.8094ZM103.651 57.2107H105.855V59.4099H103.651V57.2107ZM103.651 66.0103H105.855V68.2094H103.651V66.0103ZM103.651 61.609H105.855V63.8081H103.651V61.609ZM103.651 70.4085H105.855V72.6076H103.651V70.4085ZM108.062 48.4081H110.265V50.6073H108.062V48.4081ZM108.062 52.8094H110.265V55.0086H108.062V52.8094ZM108.062 57.2107H110.265V59.4099H108.062V57.2107ZM108.062 66.0103H110.265V68.2094H108.062V66.0103ZM108.062 61.609H110.265V63.8081H108.062V61.609ZM112.472 57.2077H114.676V59.4068H112.472V57.2077ZM116.883 57.2077H119.086V59.4068H116.883V57.2077ZM112.472 66.0072H114.676V68.2063H112.472V66.0072ZM112.472 61.6059H114.676V63.805H112.472V61.6059ZM108.062 70.4054H110.265V72.6045H108.062V70.4054ZM116.88 74.8067H119.083V77.0058H116.88V74.8067ZM116.88 79.208H119.083V81.4071H116.88V79.208ZM103.651 74.8067H105.855V77.0058H103.651V74.8067ZM103.651 79.208H105.855V81.4071H103.651V79.208ZM99.2407 17.6083H101.444V19.8074H99.2407V17.6083ZM99.2407 22.0096H101.444V24.2087H99.2407V22.0096ZM99.2407 30.8091H101.444V33.0082H99.2407V30.8091ZM99.2407 26.4078H101.444V28.6069H99.2407V26.4078ZM99.2407 35.2073H101.444V37.4064H99.2407V35.2073ZM103.651 17.6052H105.855V19.8043H103.651V17.6052ZM103.651 22.0065H105.855V24.2056H103.651V22.0065ZM103.651 30.806H105.855V33.0051H103.651V30.806ZM103.651 26.4047H105.855V28.6038H103.651V26.4047ZM108.062 17.6052H110.265V19.8043H108.062V17.6052ZM108.062 22.0065H110.265V24.2056H108.062V22.0065ZM108.062 30.806H110.265V33.0051H108.062V30.806ZM108.062 26.4047H110.265V28.6038H108.062V26.4047ZM112.472 17.6052H114.676V19.8043H112.472V17.6052ZM112.472 22.0065H114.676V24.2056H112.472V22.0065ZM112.472 30.806H114.676V33.0051H112.472V30.806ZM116.883 35.2073H119.086V37.4064H116.883V35.2073ZM112.472 26.4078H114.676V28.6069H112.472V26.4078ZM116.883 17.6083H119.086V19.8074H116.883V17.6083ZM116.883 22.0096H119.086V24.2087H116.883V22.0096ZM116.883 30.8091H119.086V33.0082H116.883V30.8091ZM116.883 26.4078H119.086V28.6069H116.883V26.4078ZM121.293 17.6083H123.497V19.8074H121.293V17.6083ZM121.293 22.0096H123.497V24.2087H121.293V22.0096ZM121.293 30.8091H123.497V33.0082H121.293V30.8091ZM121.293 26.4078H123.497V28.6069H121.293V26.4078ZM125.704 17.6083H127.907V19.8074H125.704V17.6083ZM125.704 22.0096H127.907V24.2087H125.704V22.0096ZM125.704 30.8091H127.907V33.0082H125.704V30.8091ZM125.704 26.4078H127.907V28.6069H125.704V26.4078ZM130.114 17.6083H132.318V19.8074H130.114V17.6083ZM130.114 22.0096H132.318V24.2087H130.114V22.0096ZM130.114 30.8091H132.318V33.0082H130.114V30.8091ZM130.114 26.4078H132.318V28.6069H130.114V26.4078ZM134.525 17.6083H136.728V19.8074H134.525V17.6083ZM134.525 22.0096H136.728V24.2087H134.525V22.0096ZM134.525 30.8091H136.728V33.0082H134.525V30.8091ZM134.525 26.4078H136.728V28.6069H134.525V26.4078ZM138.935 17.6083H141.139V19.8074H138.935V17.6083ZM138.935 22.0096H141.139V24.2087H138.935V22.0096ZM138.935 30.8091H141.139V33.0082H138.935V30.8091ZM138.935 26.4078H141.139V28.6069H138.935V26.4078ZM143.346 17.6083H145.549V19.8074H143.346V17.6083ZM143.346 22.0096H145.549V24.2087H143.346V22.0096ZM143.346 30.8091H145.549V33.0082H143.346V30.8091ZM143.346 26.4078H145.549V28.6069H143.346V26.4078ZM147.756 17.6083H149.96V19.8074H147.756V17.6083ZM147.756 22.0096H149.96V24.2087H147.756V22.0096ZM147.756 30.8091H149.96V33.0082H147.756V30.8091ZM147.756 26.4078H149.96V28.6069H147.756V26.4078ZM152.164 17.6083H154.367V19.8074H152.164V17.6083ZM152.164 22.0096H154.367V24.2087H152.164V22.0096ZM152.164 30.8091H154.367V33.0082H152.164V30.8091ZM112.481 44.0099H114.685V46.209H112.481V44.0099ZM116.892 44.0099H119.096V46.209H116.892V44.0099ZM121.302 44.0099H123.506V46.209H121.302V44.0099ZM125.713 44.0099H127.917V46.209H125.713V44.0099ZM130.123 44.0099H132.327V46.209H130.123V44.0099ZM134.534 44.0099H136.738V46.209H134.534V44.0099ZM138.944 44.0099H141.148V46.209H138.944V44.0099ZM143.355 44.0099H145.559V46.209H143.355V44.0099ZM147.762 44.0099H149.966V46.209H147.762V44.0099ZM152.17 44.0099H154.373V46.209H152.17V44.0099ZM116.895 48.4112H119.099V50.6103H116.895V48.4112ZM121.306 48.4112H123.509V50.6103H121.306V48.4112ZM125.716 48.4112H127.92V50.6103H125.716V48.4112ZM130.127 48.4112H132.33V50.6103H130.127V48.4112ZM134.537 48.4112H136.741V50.6103H134.537V48.4112ZM134.537 52.8125H136.741V55.0116H134.537V52.8125ZM134.537 57.2138H136.741V59.4129H134.537V57.2138ZM138.948 48.4143H141.151V50.6134H138.948V48.4143ZM143.358 48.4143H145.562V50.6134H143.358V48.4143ZM147.765 48.4143H149.969V50.6134H147.765V48.4143ZM143.355 52.8156H145.559V55.0147H143.355V52.8156ZM147.765 52.8156H149.969V55.0147H147.765V52.8156ZM147.765 57.2169H149.969V59.416H147.765V57.2169ZM147.765 61.6182H149.969V63.8173H147.765V61.6182ZM152.173 61.6182H154.377V63.8173H152.173V61.6182ZM156.58 61.6182H158.784V63.8173H156.58V61.6182ZM152.173 66.0195H154.377V68.2186H152.173V66.0195ZM156.58 66.0195H158.784V68.2186H156.58V66.0195ZM167.605 66.0195H169.809V68.2186H167.605V66.0195ZM172.012 66.0195H174.216V68.2186H172.012V66.0195ZM152.173 48.4205H154.377V50.6196H152.173V48.4205ZM152.173 26.4201H154.377V28.6192H152.173V26.4201ZM156.58 17.6206H158.784V19.8197H156.58V17.6206ZM156.58 22.0219H158.784V24.221H156.58V22.0219ZM156.58 30.8214H158.784V33.0205H156.58V30.8214ZM156.58 26.4201H158.784V28.6192H156.58V26.4201ZM160.991 17.6206H163.194V19.8197H160.991V17.6206ZM160.991 22.0219H163.194V24.221H160.991V22.0219ZM160.991 30.8214H163.194V33.0205H160.991V30.8214ZM125.716 35.2227H127.92V37.4218H125.716V35.2227ZM130.127 35.2227H132.33V37.4218H130.127V35.2227ZM134.537 35.2227H136.741V37.4218H134.537V35.2227ZM138.948 35.2227H141.151V37.4218H138.948V35.2227ZM143.358 35.2227H145.562V37.4218H143.358V35.2227ZM147.765 35.2227H149.969V37.4218H147.765V35.2227ZM152.173 35.2227H154.377V37.4218H152.173V35.2227ZM156.58 35.2227H158.784V37.4218H156.58V35.2227ZM160.991 35.2227H163.194V37.4218H160.991V35.2227ZM152.173 74.8221H154.377V77.0212H152.173V74.8221ZM156.58 74.8221H158.784V77.0212H156.58V74.8221ZM160.991 74.8221H163.194V77.0212H160.991V74.8221ZM165.398 74.8221H167.602V77.0212H165.398V74.8221ZM152.17 79.2234H154.373V81.4225H152.17V79.2234ZM156.577 79.2234H158.781V81.4225H156.577V79.2234ZM160.988 79.2234H163.191V81.4225H160.988V79.2234ZM165.395 79.2234H167.599V81.4225H165.395V79.2234ZM169.802 74.8221H172.006V77.0212H169.802V74.8221ZM169.802 79.2234H172.006V81.4225H169.802V79.2234ZM160.985 83.6247H163.188V85.8238H160.985V83.6247ZM165.392 83.6247H167.596V85.8238H165.392V83.6247ZM169.799 83.6247H172.003V85.8238H169.799V83.6247ZM174.207 83.6247H176.41V85.8238H174.207V83.6247ZM183.025 83.6247H185.228V85.8238H183.025V83.6247ZM183.025 88.026H185.228V90.2251H183.025V88.026ZM125.707 39.6271H127.91V41.8262H125.707V39.6271ZM130.117 39.6271H132.321V41.8262H130.117V39.6271ZM134.528 39.6271H136.731V41.8262H134.528V39.6271ZM138.938 39.6271H141.142V41.8262H138.938V39.6271ZM143.349 39.6271H145.552V41.8262H143.349V39.6271ZM147.759 39.6271H149.963V41.8262H147.759V39.6271ZM152.167 39.6271H154.37V41.8262H152.167V39.6271ZM156.574 39.6271H158.778V41.8262H156.574V39.6271ZM160.985 26.4294H163.188V28.6285H160.985V26.4294ZM165.392 17.6298H167.596V19.829H165.392V17.6298ZM165.392 22.0311H167.596V24.2303H165.392V22.0311ZM165.392 30.8307H167.596V33.0298H165.392V30.8307ZM165.392 26.4294H167.596V28.6285H165.392V26.4294ZM169.799 17.6298H172.003V19.829H169.799V17.6298ZM121.299 13.2285H123.503V15.4277H121.299V13.2285ZM125.71 13.2285H127.914V15.4277H125.71V13.2285ZM121.299 8.82724H123.503V11.0264H121.299V8.82724ZM125.71 8.82724H127.914V11.0264H125.71V8.82724ZM130.12 13.2285H132.324V15.4277H130.12V13.2285ZM134.531 13.2285H136.735V15.4277H134.531V13.2285ZM138.941 13.2285H141.145V15.4277H138.941V13.2285ZM143.352 13.2285H145.556V15.4277H143.352V13.2285ZM147.759 13.2285H149.963V15.4277H147.759V13.2285ZM138.941 8.82724H141.145V11.0264H138.941V8.82724ZM143.352 8.82724H145.556V11.0264H143.352V8.82724ZM143.352 4.42594H145.556V6.62505H143.352V4.42594ZM147.762 8.82724H149.966V11.0264H147.762V8.82724ZM152.17 13.2285H154.373V15.4277H152.17V13.2285ZM156.577 13.2285H158.781V15.4277H156.577V13.2285ZM160.988 13.2285H163.191V15.4277H160.988V13.2285ZM165.395 13.2285H167.599V15.4277H165.395V13.2285ZM169.802 13.2285H172.006V15.4277H169.802V13.2285ZM169.802 8.82724H172.006V11.0264H169.802V8.82724ZM169.802 22.025H172.006V24.2241H169.802V22.025ZM174.21 17.6237H176.414V19.8228H174.21V17.6237ZM174.21 22.025H176.414V24.2241H174.21V22.025ZM178.617 17.6237H180.821V19.8228H178.617V17.6237ZM178.617 22.025H180.821V24.2241H178.617V22.025ZM183.025 17.6237H185.228V19.8228H183.025V17.6237ZM187.432 17.6237H189.636V19.8228H187.432V17.6237ZM191.843 17.6237H194.046V19.8228H191.843V17.6237ZM183.025 22.025H185.228V24.2241H183.025V22.025ZM178.617 26.4263H180.821V28.6254H178.617V26.4263ZM103.66 35.2258H105.864V37.4249H103.66V35.2258ZM108.071 39.6271H110.275V41.8262H108.071V39.6271ZM112.481 39.6271H114.685V41.8262H112.481V39.6271ZM90.4352 35.2258H92.6389V37.4249H90.4352V35.2258ZM90.4352 26.4263H92.6389V28.6254H90.4352V26.4263Z" fill="white"/>
<path fill-rule="evenodd" clip-rule="evenodd" d="M0 17.6083H2.2037V19.8074H0V17.6083ZM0 22.0096H2.2037V24.2087H0V22.0096ZM4.41049 17.6083H6.6142V19.8074H4.41049V17.6083ZM4.41049 22.0096H6.6142V24.2087H4.41049V22.0096ZM4.41049 26.4109H6.6142V28.61H4.41049V26.4109ZM8.82099 17.6114H11.0247V19.8105H8.82099V17.6114ZM8.82099 22.0127H11.0247V24.2118H8.82099V22.0127ZM13.2315 17.6114H15.4352V19.8105H13.2315V17.6114ZM13.2315 22.0127H15.4352V24.2118H13.2315V22.0127ZM8.82099 26.414H11.0247V28.6131H8.82099V26.414ZM17.6389 17.6144H19.8426V19.8136H17.6389V17.6144ZM17.6389 22.0157H19.8426V24.2149H17.6389V22.0157ZM17.6389 26.417H19.8426V28.6162H17.6389V26.417ZM22.0494 17.6175H24.2531V19.8166H22.0494V17.6175ZM22.0494 22.0188H24.2531V24.2179H22.0494V22.0188ZM22.0494 26.4201H24.2531V28.6192H22.0494V26.4201ZM22.0494 30.8214H24.2531V33.0205H22.0494V30.8214ZM22.0494 35.2227H24.2531V37.4218H22.0494V35.2227ZM26.4568 8.82416H28.6605V11.0233H26.4568V8.82416ZM26.4568 13.2255H28.6605V15.4246H26.4568V13.2255ZM26.4568 17.6268H28.6605V19.8259H26.4568V17.6268ZM26.4568 22.0281H28.6605V24.2272H26.4568V22.0281ZM26.4568 26.4294H28.6605V28.6285H26.4568V26.4294ZM26.4568 30.8307H28.6605V33.0298H26.4568V30.8307ZM26.4568 35.232H28.6605V37.4311H26.4568V35.232ZM26.4568 39.6333H28.6605V41.8324H26.4568V39.6333ZM26.4568 44.0346H28.6605V46.2337H26.4568V44.0346ZM30.8673 8.8334H33.071V11.0325H30.8673V8.8334ZM35.2778 4.4321H37.4815V6.63121H35.2778V4.4321ZM30.8673 13.2316H33.071V15.4307H30.8673V13.2316ZM30.8673 17.6329H33.071V19.832H30.8673V17.6329ZM30.8673 22.0342H33.071V24.2333H30.8673V22.0342ZM30.8673 26.4355H33.071V28.6346H30.8673V26.4355ZM30.8673 30.8368H33.071V33.0359H30.8673V30.8368ZM30.8673 35.2381H33.071V37.4372H30.8673V35.2381ZM30.8673 39.6394H33.071V41.8385H30.8673V39.6394ZM30.8673 44.0407H33.071V46.2398H30.8673V44.0407ZM30.8673 48.442H33.071V50.6411H30.8673V48.442ZM35.2778 13.2409H37.4815V15.44H35.2778V13.2409ZM35.2778 17.6422H37.4815V19.8413H35.2778V17.6422ZM35.2778 22.0435H37.4815V24.2426H35.2778V22.0435ZM35.2778 26.4448H37.4815V28.6439H35.2778V26.4448ZM35.2778 30.8461H37.4815V33.0452H35.2778V30.8461ZM35.2778 35.2474H37.4815V37.4465H35.2778V35.2474ZM35.2778 39.6487H37.4815V41.8478H35.2778V39.6487ZM35.2778 44.05H37.4815V46.2491H35.2778V44.05ZM35.2778 48.4513H37.4815V50.6504H35.2778V48.4513ZM35.2778 52.8526H37.4815V55.0517H35.2778V52.8526ZM39.6821 4.40438H41.8858V6.60349H39.6821V4.40438ZM39.6821 8.80568H41.8858V11.0048H39.6821V8.80568ZM39.6821 13.207H41.8858V15.4061H39.6821V13.207ZM44.0926 13.207H46.2963V15.4061H44.0926V13.207ZM48.5031 13.207H50.7068V15.4061H48.5031V13.207ZM39.6852 17.6083H41.8889V19.8074H39.6852V17.6083ZM39.6852 30.8091H41.8889V33.0082H39.6852V30.8091ZM39.6852 35.2104H41.8889V37.4095H39.6852V35.2104ZM39.6852 39.6117H41.8889V41.8108H39.6852V39.6117ZM39.6852 44.013H41.8889V46.2121H39.6852V44.013ZM44.0957 30.8153H46.2994V33.0144H44.0957V30.8153ZM44.0957 35.2166H46.2994V37.4157H44.0957V35.2166ZM44.0957 39.6148H46.2994V41.8139H44.0957V39.6148ZM44.0957 44.0161H46.2994V46.2152H44.0957V44.0161ZM44.0957 57.2169H46.2994V59.416H44.0957V57.2169ZM48.5062 57.2169H50.7099V59.416H48.5062V57.2169ZM52.9167 57.2169H55.1204V59.416H52.9167V57.2169ZM57.3272 57.2169H59.5309V59.416H57.3272V57.2169ZM48.5093 61.6182H50.713V63.8173H48.5093V61.6182ZM52.9198 61.6182H55.1235V63.8173H52.9198V61.6182ZM57.3302 61.6182H59.534V63.8173H57.3302V61.6182ZM61.7407 61.6182H63.9444V63.8173H61.7407V61.6182ZM48.5123 66.0195H50.7161V68.2186H48.5123V66.0195ZM52.9228 66.0195H55.1265V68.2186H52.9228V66.0195ZM57.3333 66.0195H59.537V68.2186H57.3333V66.0195ZM61.7438 66.0195H63.9475V68.2186H61.7438V66.0195ZM66.1543 66.0195H68.358V68.2186H66.1543V66.0195ZM48.5154 70.4208H50.7191V72.6199H48.5154V70.4208ZM52.9259 70.4208H55.1296V72.6199H52.9259V70.4208ZM57.3364 70.4208H59.5401V72.6199H57.3364V70.4208ZM61.7469 70.4208H63.9506V72.6199H61.7469V70.4208ZM52.929 74.8221H55.1327V77.0212H52.929V74.8221ZM57.3395 74.8221H59.5432V77.0212H57.3395V74.8221ZM61.75 74.8221H63.9537V77.0212H61.75V74.8221ZM52.9321 79.2234H55.1358V81.4225H52.9321V79.2234ZM57.3426 79.2234H59.5463V81.4225H57.3426V79.2234ZM52.9321 83.6247H55.1358V85.8238H52.9321V83.6247ZM52.9321 88.026H55.1358V90.2251H52.9321V88.026ZM52.9321 92.4273H55.1358V94.6264H52.9321V92.4273ZM57.3426 96.8286H59.5463V99.0277H57.3426V96.8286ZM57.3426 83.6278H59.5463V85.8269H57.3426V83.6278ZM61.7531 79.2265H63.9568V81.4256H61.7531V79.2265ZM66.1636 70.427H68.3673V72.6261H66.1636V70.427ZM48.5247 26.4263H50.7284V28.6254H48.5247V26.4263ZM48.5247 30.8276H50.7284V33.0267H48.5247V30.8276ZM48.5247 17.6268H50.7284V19.8259H48.5247V17.6268ZM48.5247 22.0281H50.7284V24.2272H48.5247V22.0281ZM48.5247 35.2289H50.7284V37.428H48.5247V35.2289ZM52.9352 26.4294H55.1389V28.6285H52.9352V26.4294ZM52.9352 30.8307H55.1389V33.0298H52.9352V30.8307ZM52.9352 17.6298H55.1389V19.829H52.9352V17.6298ZM52.9352 22.0311H55.1389V24.2303H52.9352V22.0311ZM52.9352 35.232H55.1389V37.4311H52.9352V35.232ZM57.3457 30.8307H59.5494V33.0298H57.3457V30.8307ZM57.3457 35.232H59.5494V37.4311H57.3457V35.232ZM48.5278 39.6333H50.7315V41.8324H48.5278V39.6333ZM39.7099 52.8341H41.9136V55.0332H39.7099V52.8341ZM44.0895 0H46.2932V2.19911H44.0895V0ZM44.0895 4.4013H46.2932V6.60041H44.0895V4.4013ZM48.5 0H50.7037V2.19911H48.5V0ZM48.5 4.4013H50.7037V6.60041H48.5V4.4013ZM52.9105 4.4013H55.1142V6.60041H52.9105V4.4013ZM57.321 4.4013H59.5247V6.60041H57.321V4.4013ZM57.321 8.8026H59.5247V11.0017H57.321V8.8026ZM61.7315 4.4013H63.9352V6.60041H61.7315V4.4013ZM66.142 4.4013H68.3457V6.60041H66.142V4.4013ZM70.5525 4.4013H72.7562V6.60041H70.5525V4.4013ZM74.963 4.4013H77.1667V6.60041H74.963V4.4013ZM79.3735 4.4013H81.5772V6.60041H79.3735V4.4013ZM99.216 4.4013H101.42V6.60041H99.216V4.4013ZM103.627 4.4013H105.83V6.60041H103.627V4.4013ZM61.7407 8.8026H63.9444V11.0017H61.7407V8.8026ZM66.1512 8.8026H68.3549V11.0017H66.1512V8.8026ZM70.5617 8.8026H72.7654V11.0017H70.5617V8.8026ZM74.9722 8.8026H77.1759V11.0017H74.9722V8.8026ZM61.7469 13.2039H63.9506V15.403H61.7469V13.2039ZM66.1574 13.2039H68.3611V15.403H66.1574V13.2039ZM61.75 17.6052H63.9537V19.8043H61.75V17.6052ZM66.1605 17.6052H68.3642V19.8043H66.1605V17.6052ZM66.1605 22.0065H68.3642V24.2056H66.1605V22.0065ZM70.571 13.207H72.7747V15.4061H70.571V13.207ZM74.9815 13.207H77.1852V15.4061H74.9815V13.207ZM79.392 8.80568H81.5957V11.0048H79.392V8.80568ZM86.0062 30.806H88.2099V33.0051H86.0062V30.806ZM86.0062 48.4051H88.2099V50.6042H86.0062V48.4051ZM86.0062 52.8064H88.2099V55.0055H86.0062V52.8064ZM86.0062 57.2077H88.2099V59.4068H86.0062V57.2077ZM90.4167 48.4081H92.6204V50.6073H90.4167V48.4081ZM90.4167 52.8094H92.6204V55.0086H90.4167V52.8094ZM90.4167 57.2107H92.6204V59.4099H90.4167V57.2107ZM94.8272 48.4112H97.0309V50.6103H94.8272V48.4112ZM94.8272 52.8125H97.0309V55.0116H94.8272V52.8125ZM94.8272 57.2138H97.0309V59.4129H94.8272V57.2138ZM99.2377 48.4143H101.441V50.6134H99.2377V48.4143ZM90.4197 44.013H92.6235V46.2121H90.4197V44.013ZM94.8302 44.013H97.034V46.2121H94.8302V44.013ZM94.8302 35.2135H97.034V37.4126H94.8302V35.2135ZM94.8302 30.8122H97.034V33.0113H94.8302V30.8122ZM99.2407 44.013H101.444V46.2121H99.2407V44.013ZM99.2407 52.8125H101.444V55.0116H99.2407V52.8125ZM99.2407 57.2138H101.444V59.4129H99.2407V57.2138ZM99.2407 66.0133H101.444V68.2125H99.2407V66.0133ZM99.2407 61.612H101.444V63.8111H99.2407V61.612ZM99.2407 70.4116H101.444V72.6107H99.2407V70.4116ZM103.651 48.4112H105.855V50.6103H103.651V48.4112ZM103.651 44.0099H105.855V46.209H103.651V44.0099ZM103.651 52.8094H105.855V55.0086H103.651V52.8094ZM103.651 57.2107H105.855V59.4099H103.651V57.2107ZM103.651 66.0103H105.855V68.2094H103.651V66.0103ZM103.651 61.609H105.855V63.8081H103.651V61.609ZM103.651 70.4085H105.855V72.6076H103.651V70.4085ZM108.062 48.4081H110.265V50.6073H108.062V48.4081ZM108.062 52.8094H110.265V55.0086H108.062V52.8094ZM108.062 57.2107H110.265V59.4099H108.062V57.2107ZM108.062 66.0103H110.265V68.2094H108.062V66.0103ZM108.062 61.609H110.265V63.8081H108.062V61.609ZM112.472 57.2077H114.676V59.4068H112.472V57.2077ZM116.883 57.2077H119.086V59.4068H116.883V57.2077ZM112.472 66.0072H114.676V68.2063H112.472V66.0072ZM112.472 61.6059H114.676V63.805H112.472V61.6059ZM108.062 70.4054H110.265V72.6045H108.062V70.4054ZM116.88 74.8067H119.083V77.0058H116.88V74.8067ZM116.88 79.208H119.083V81.4071H116.88V79.208ZM103.651 74.8067H105.855V77.0058H103.651V74.8067ZM103.651 79.208H105.855V81.4071H103.651V79.208ZM99.2407 17.6083H101.444V19.8074H99.2407V17.6083ZM99.2407 22.0096H101.444V24.2087H99.2407V22.0096ZM99.2407 30.8091H101.444V33.0082H99.2407V30.8091ZM99.2407 26.4078H101.444V28.6069H99.2407V26.4078ZM99.2407 35.2073H101.444V37.4064H99.2407V35.2073ZM103.651 17.6052H105.855V19.8043H103.651V17.6052ZM103.651 22.0065H105.855V24.2056H103.651V22.0065ZM103.651 30.806H105.855V33.0051H103.651V30.806ZM103.651 26.4047H105.855V28.6038H103.651V26.4047ZM108.062 17.6052H110.265V19.8043H108.062V17.6052ZM108.062 22.0065H110.265V24.2056H108.062V22.0065ZM108.062 30.806H110.265V33.0051H108.062V30.806ZM108.062 26.4047H110.265V28.6038H108.062V26.4047ZM112.472 17.6052H114.676V19.8043H112.472V17.6052ZM112.472 22.0065H114.676V24.2056H112.472V22.0065ZM112.472 30.806H114.676V33.0051H112.472V30.806ZM116.883 35.2073H119.086V37.4064H116.883V35.2073ZM112.472 26.4078H114.676V28.6069H112.472V26.4078ZM116.883 17.6083H119.086V19.8074H116.883V17.6083ZM116.883 22.0096H119.086V24.2087H116.883V22.0096ZM116.883 30.8091H119.086V33.0082H116.883V30.8091ZM116.883 26.4078H119.086V28.6069H116.883V26.4078ZM121.293 17.6083H123.497V19.8074H121.293V17.6083ZM121.293 22.0096H123.497V24.2087H121.293V22.0096ZM121.293 30.8091H123.497V33.0082H121.293V30.8091ZM121.293 26.4078H123.497V28.6069H121.293V26.4078ZM125.704 17.6083H127.907V19.8074H125.704V17.6083ZM125.704 22.0096H127.907V24.2087H125.704V22.0096ZM125.704 30.8091H127.907V33.0082H125.704V30.8091ZM125.704 26.4078H127.907V28.6069H125.704V26.4078ZM130.114 17.6083H132.318V19.8074H130.114V17.6083ZM130.114 22.0096H132.318V24.2087H130.114V22.0096ZM130.114 30.8091H132.318V33.0082H130.114V30.8091ZM130.114 26.4078H132.318V28.6069H130.114V26.4078ZM134.525 17.6083H136.728V19.8074H134.525V17.6083ZM134.525 22.0096H136.728V24.2087H134.525V22.0096ZM134.525 30.8091H136.728V33.0082H134.525V30.8091ZM134.525 26.4078H136.728V28.6069H134.525V26.4078ZM138.935 17.6083H141.139V19.8074H138.935V17.6083ZM138.935 22.0096H141.139V24.2087H138.935V22.0096ZM138.935 30.8091H141.139V33.0082H138.935V30.8091ZM138.935 26.4078H141.139V28.6069H138.935V26.4078ZM143.346 17.6083H145.549V19.8074H143.346V17.6083ZM143.346 22.0096H145.549V24.2087H143.346V22.0096ZM143.346 30.8091H145.549V33.0082H143.346V30.8091ZM143.346 26.4078H145.549V28.6069H143.346V26.4078ZM147.756 17.6083H149.96V19.8074H147.756V17.6083ZM147.756 22.0096H149.96V24.2087H147.756V22.0096ZM147.756 30.8091H149.96V33.0082H147.756V30.8091ZM147.756 26.4078H149.96V28.6069H147.756V26.4078ZM152.164 17.6083H154.367V19.8074H152.164V17.6083ZM152.164 22.0096H154.367V24.2087H152.164V22.0096ZM152.164 30.8091H154.367V33.0082H152.164V30.8091ZM112.481 44.0099H114.685V46.209H112.481V44.0099ZM116.892 44.0099H119.096V46.209H116.892V44.0099ZM121.302 44.0099H123.506V46.209H121.302V44.0099ZM125.713 44.0099H127.917V46.209H125.713V44.0099ZM130.123 44.0099H132.327V46.209H130.123V44.0099ZM134.534 44.0099H136.738V46.209H134.534V44.0099ZM138.944 44.0099H141.148V46.209H138.944V44.0099ZM143.355 44.0099H145.559V46.209H143.355V44.0099ZM147.762 44.0099H149.966V46.209H147.762V44.0099ZM152.17 44.0099H154.373V46.209H152.17V44.0099ZM116.895 48.4112H119.099V50.6103H116.895V48.4112ZM121.306 48.4112H123.509V50.6103H121.306V48.4112ZM125.716 48.4112H127.92V50.6103H125.716V48.4112ZM130.127 48.4112H132.33V50.6103H130.127V48.4112ZM134.537 48.4112H136.741V50.6103H134.537V48.4112ZM134.537 52.8125H136.741V55.0116H134.537V52.8125ZM134.537 57.2138H136.741V59.4129H134.537V57.2138ZM138.948 48.4143H141.151V50.6134H138.948V48.4143ZM143.358 48.4143H145.562V50.6134H143.358V48.4143ZM147.765 48.4143H149.969V50.6134H147.765V48.4143ZM143.355 52.8156H145.559V55.0147H143.355V52.8156ZM147.765 52.8156H149.969V55.0147H147.765V52.8156ZM147.765 57.2169H149.969V59.416H147.765V57.2169ZM147.765 61.6182H149.969V63.8173H147.765V61.6182ZM152.173 61.6182H154.377V63.8173H152.173V61.6182ZM156.58 61.6182H158.784V63.8173H156.58V61.6182ZM152.173 66.0195H154.377V68.2186H152.173V66.0195ZM156.58 66.0195H158.784V68.2186H156.58V66.0195ZM167.605 66.0195H169.809V68.2186H167.605V66.0195ZM172.012 66.0195H174.216V68.2186H172.012V66.0195ZM152.173 48.4205H154.377V50.6196H152.173V48.4205ZM152.173 26.4201H154.377V28.6192H152.173V26.4201ZM156.58 17.6206H158.784V19.8197H156.58V17.6206ZM156.58 22.0219H158.784V24.221H156.58V22.0219ZM156.58 30.8214H158.784V33.0205H156.58V30.8214ZM156.58 26.4201H158.784V28.6192H156.58V26.4201ZM160.991 17.6206H163.194V19.8197H160.991V17.6206ZM160.991 22.0219H163.194V24.221H160.991V22.0219ZM160.991 30.8214H163.194V33.0205H160.991V30.8214ZM125.716 35.2227H127.92V37.4218H125.716V35.2227ZM130.127 35.2227H132.33V37.4218H130.127V35.2227ZM134.537 35.2227H136.741V37.4218H134.537V35.2227ZM138.948 35.2227H141.151V37.4218H138.948V35.2227ZM143.358 35.2227H145.562V37.4218H143.358V35.2227ZM147.765 35.2227H149.969V37.4218H147.765V35.2227ZM152.173 35.2227H154.377V37.4218H152.173V35.2227ZM156.58 35.2227H158.784V37.4218H156.58V35.2227ZM160.991 35.2227H163.194V37.4218H160.991V35.2227ZM152.173 74.8221H154.377V77.0212H152.173V74.8221ZM156.58 74.8221H158.784V77.0212H156.58V74.8221ZM160.991 74.8221H163.194V77.0212H160.991V74.8221ZM165.398 74.8221H167.602V77.0212H165.398V74.8221ZM152.17 79.2234H154.373V81.4225H152.17V79.2234ZM156.577 79.2234H158.781V81.4225H156.577V79.2234ZM160.988 79.2234H163.191V81.4225H160.988V79.2234ZM165.395 79.2234H167.599V81.4225H165.395V79.2234ZM169.802 74.8221H172.006V77.0212H169.802V74.8221ZM169.802 79.2234H172.006V81.4225H169.802V79.2234ZM160.985 83.6247H163.188V85.8238H160.985V83.6247ZM165.392 83.6247H167.596V85.8238H165.392V83.6247ZM169.799 83.6247H172.003V85.8238H169.799V83.6247ZM174.207 83.6247H176.41V85.8238H174.207V83.6247ZM183.025 83.6247H185.228V85.8238H183.025V83.6247ZM183.025 88.026H185.228V90.2251H183.025V88.026ZM125.707 39.6271H127.91V41.8262H125.707V39.6271ZM130.117 39.6271H132.321V41.8262H130.117V39.6271ZM134.528 39.6271H136.731V41.8262H134.528V39.6271ZM138.938 39.6271H141.142V41.8262H138.938V39.6271ZM143.349 39.6271H145.552V41.8262H143.349V39.6271ZM147.759 39.6271H149.963V41.8262H147.759V39.6271ZM152.167 39.6271H154.37V41.8262H152.167V39.6271ZM156.574 39.6271H158.778V41.8262H156.574V39.6271ZM160.985 26.4294H163.188V28.6285H160.985V26.4294ZM165.392 17.6298H167.596V19.829H165.392V17.6298ZM165.392 22.0311H167.596V24.2303H165.392V22.0311ZM165.392 30.8307H167.596V33.0298H165.392V30.8307ZM165.392 26.4294H167.596V28.6285H165.392V26.4294ZM169.799 17.6298H172.003V19.829H169.799V17.6298ZM121.299 13.2285H123.503V15.4277H121.299V13.2285ZM125.71 13.2285H127.914V15.4277H125.71V13.2285ZM121.299 8.82724H123.503V11.0264H121.299V8.82724ZM125.71 8.82724H127.914V11.0264H125.71V8.82724ZM130.12 13.2285H132.324V15.4277H130.12V13.2285ZM134.531 13.2285H136.735V15.4277H134.531V13.2285ZM138.941 13.2285H141.145V15.4277H138.941V13.2285ZM143.352 13.2285H145.556V15.4277H143.352V13.2285ZM147.759 13.2285H149.963V15.4277H147.759V13.2285ZM138.941 8.82724H141.145V11.0264H138.941V8.82724ZM143.352 8.82724H145.556V11.0264H143.352V8.82724ZM143.352 4.42594H145.556V6.62505H143.352V4.42594ZM147.762 8.82724H149.966V11.0264H147.762V8.82724ZM152.17 13.2285H154.373V15.4277H152.17V13.2285ZM156.577 13.2285H158.781V15.4277H156.577V13.2285ZM160.988 13.2285H163.191V15.4277H160.988V13.2285ZM165.395 13.2285H167.599V15.4277H165.395V13.2285ZM169.802 13.2285H172.006V15.4277H169.802V13.2285ZM169.802 8.82724H172.006V11.0264H169.802V8.82724ZM169.802 22.025H172.006V24.2241H169.802V22.025ZM174.21 17.6237H176.414V19.8228H174.21V17.6237ZM174.21 22.025H176.414V24.2241H174.21V22.025ZM178.617 17.6237H180.821V19.8228H178.617V17.6237ZM178.617 22.025H180.821V24.2241H178.617V22.025ZM183.025 17.6237H185.228V19.8228H183.025V17.6237ZM187.432 17.6237H189.636V19.8228H187.432V17.6237ZM191.843 17.6237H194.046V19.8228H191.843V17.6237ZM183.025 22.025H185.228V24.2241H183.025V22.025ZM178.617 26.4263H180.821V28.6254H178.617V26.4263ZM103.66 35.2258H105.864V37.4249H103.66V35.2258ZM108.071 39.6271H110.275V41.8262H108.071V39.6271ZM112.481 39.6271H114.685V41.8262H112.481V39.6271ZM90.4352 35.2258H92.6389V37.4249H90.4352V35.2258ZM90.4352 26.4263H92.6389V28.6254H90.4352V26.4263Z" stroke="white" mask="url(#path-1-outside-1_1033_480)"/>
</g>
<defs>
<clipPath id="clip0_1033_480">
<rect width="194" height="99" fill="white"/>
</clipPath>
</defs>
</svg>
