<?xml version="1.0" encoding="utf-8"?>
<!-- Generator: Adobe Illustrator 26.3.1, SVG Export Plug-In . SVG Version: 6.00 Build 0)  -->
<svg version="1.1" id="Layer_1" xmlns="http://www.w3.org/2000/svg" xmlns:xlink="http://www.w3.org/1999/xlink" x="0px" y="0px"
	 viewBox="0 0 87 109" style="enable-background:new 0 0 87 109;" xml:space="preserve">
<style type="text/css">
	.st0{fill-rule:evenodd;clip-rule:evenodd;fill:#FFFFFF;}
	.st1{fill:#FFFFFF;}
</style>
<path class="st0" d="M49.9,24.9c0,13.8-11.2,24.9-24.9,24.9C11.2,49.9,0,38.7,0,24.9C0,11.2,11.2,0,24.9,0
	C38.7,0,49.9,11.2,49.9,24.9z M41.8,25c-0.5-3.8-3.3-3.8-5.8-3.1c-1.4,0.4-2.4-0.9-2.8-2.2c-0.4-1.2-1.7-4-4.8-3.1
	c2.3,2.6,1.8,7.1-0.7,10.9c1.7,1.8,4.2,3.1,7,3C38.4,30.5,42.2,28,41.8,25L41.8,25z M35.5,23.2C35.5,23.2,35.5,23.2,35.5,23.2
	c-0.1,0-0.2,0.1-0.2,0.1c-0.1,0-0.2,0-0.4,0.1c-0.1,0-0.2,0-0.4,0c0,0-0.1,0-0.1,0c-0.1,0-0.1,0-0.2,0c0,0,0,0-0.1,0
	c-0.1,0-0.1,0-0.2-0.1l0,0l0,0l-0.1,0l-0.1-0.1c0,0,0,0-0.1,0c-0.1,0-0.1-0.1-0.2-0.1c-0.2-0.1-0.3-0.2-0.4-0.3c0,0,0,0-0.1-0.1
	c0,0-0.1-0.1-0.1-0.1c0,0-0.1-0.1-0.1-0.1c0,0,0-0.1-0.1-0.1c-0.1-0.1-0.1-0.1-0.1-0.2c0-0.1-0.1-0.2-0.1-0.2
	c-0.1-0.1-0.1-0.2-0.1-0.3c0,0,0-0.1-0.1-0.1c-0.1-0.1-0.1-0.2-0.1-0.3c0,0,0,0,0-0.1l0-0.1c0-0.1-0.1-0.2-0.1-0.3
	c0-0.1,0-0.1,0-0.2c0,0,0,0,0-0.1c0-0.2,0-0.2,0-0.2s0.1,0.1,0.1,0.2l0,0l0,0c0,0.1,0.1,0.1,0.1,0.2c0,0.1,0.1,0.1,0.1,0.2l0,0
	c0,0,0.1,0.1,0.1,0.1c0,0,0,0.1,0.1,0.1c0,0.1,0.1,0.2,0.2,0.2c0,0,0.1,0.1,0.1,0.1l0,0c0,0.1,0.1,0.2,0.1,0.2c0,0,0.1,0.1,0.1,0.1
	v0c0.1,0.1,0.1,0.2,0.2,0.2l0,0c0,0,0.1,0.1,0.1,0.1c0,0,0.1,0.1,0.1,0.1l0,0c0,0,0,0,0.1,0.1c0.1,0.1,0.2,0.2,0.2,0.2
	c0,0,0.1,0.1,0.1,0.1c0,0,0.1,0.1,0.1,0.1c0,0,0,0,0.1,0l0.1,0.1l0.1,0c0,0,0.1,0,0.1,0c0,0,0,0,0.1,0l0.1,0c0,0,0,0,0,0
	c0.1,0,0.1,0,0.1,0.1l0,0c0,0,0.1,0,0.1,0c0,0,0,0,0.1,0c0,0,0.1,0,0.1,0c0.1,0,0.2,0,0.3,0.1c0.1,0,0.1,0,0.2,0h0c0,0,0.1,0,0.1,0
	c0.1,0,0.2,0,0.2,0l0,0C35.8,23.1,35.7,23.1,35.5,23.2C35.6,23.2,35.6,23.2,35.5,23.2z M17.5,19.4c0.6-1.7,3-6.3,8.8-3.1h0
	c7.1,3.8,0.2,17.6-11,17.2c-5.1-0.2-10.4-3.4-9.9-7.2c0.7-4.9,4.7-4.9,8.2-4C15.6,22.7,16.9,21,17.5,19.4z M19.2,20
	C19.2,19.9,19.2,19.9,19.2,20c0-0.2,0-0.3,0-0.4c0,0,0,0,0,0c0,0-0.1,0.1-0.2,0.3c0,0,0,0,0,0.1c0,0.1-0.1,0.2-0.2,0.3
	c0,0.1-0.1,0.1-0.1,0.2c0,0.1-0.1,0.1-0.1,0.2c0,0-0.1,0.1-0.1,0.1c-0.1,0.1-0.1,0.2-0.2,0.3c0,0.1-0.1,0.1-0.1,0.2
	c-0.1,0.1-0.1,0.2-0.2,0.3c-0.1,0.1-0.1,0.1-0.1,0.2c-0.1,0.1-0.2,0.2-0.2,0.3c0,0,0,0-0.1,0.1c0,0.1-0.1,0.1-0.1,0.2
	c0,0-0.1,0.1-0.1,0.1c0,0-0.1,0.1-0.1,0.1c-0.1,0.1-0.2,0.2-0.3,0.3c0,0-0.1,0.1-0.1,0.1c-0.1,0-0.1,0.1-0.2,0.1c0,0-0.1,0-0.1,0.1
	c-0.1,0-0.2,0.1-0.2,0.1l0,0c-0.1,0-0.2,0.1-0.3,0.1c0,0,0,0-0.1,0c-0.1,0-0.1,0.1-0.2,0.1c0,0,0,0-0.1,0c-0.1,0-0.1,0-0.2,0.1
	c0,0,0,0-0.1,0c-0.1,0-0.1,0-0.2,0c-0.2,0-0.3,0.1-0.5,0.1c-0.1,0-0.2,0-0.2,0c0,0-0.1,0-0.1,0c-0.2,0-0.3,0-0.3,0s0.1,0,0.3,0.1
	c0,0,0.1,0,0.1,0c0.1,0,0.2,0.1,0.3,0.1c0.1,0,0.3,0,0.5,0.1c0.1,0,0.3,0,0.5,0c0,0,0.1,0,0.1,0c0.1,0,0.2,0,0.2,0c0,0,0.1,0,0.1,0
	l0.3-0.1l0,0l0.1,0l0.1,0l0.2-0.1c0,0,0.1,0,0.1,0c0.1,0,0.2-0.1,0.3-0.1c0.2-0.1,0.4-0.3,0.6-0.5c0,0,0.1-0.1,0.1-0.1
	c0.1-0.1,0.1-0.1,0.2-0.2c0.1-0.1,0.1-0.1,0.2-0.2c0,0,0.1-0.1,0.1-0.1c0.1-0.1,0.2-0.2,0.2-0.3l0.2-0.3c0.1-0.1,0.1-0.3,0.2-0.4
	c0-0.1,0-0.1,0.1-0.2C19,21.1,19,21,19,20.8c0,0,0-0.1,0-0.1c0,0,0,0,0-0.1c0-0.1,0.1-0.3,0.1-0.4C19.2,20.2,19.2,20.1,19.2,20z"/>
<g>
	<path class="st1" d="M44.5,43.2h-0.2l-0.1,0.2c-0.5,0.5-0.9,0.9-1.4,1.4l0.3,0.4l0,0l-0.3-0.4l-0.2,0.1v0.2v0.8v0.5h0.5h2.2h0.5
		v-0.5v-2.2v-0.5h-0.5H44.5z"/>
	<polygon class="st1" points="69.5,47.4 69,47.4 69,47.9 69,50.1 69,50.6 69.5,50.6 71.7,50.6 72.2,50.6 72.2,50.1 72.2,47.9 
		72.2,47.4 71.7,47.4 	"/>
	<polygon class="st1" points="38.6,90.9 38.1,90.9 38.1,91.4 38.1,93.6 38.1,94.1 38.6,94.1 40.8,94.1 41.3,94.1 41.3,93.6 
		41.3,91.4 41.3,90.9 40.8,90.9 	"/>
	<polygon class="st1" points="82.8,25.8 82.3,25.8 82.3,26.3 82.3,28.5 82.3,29 82.8,29 85,29 85.5,29 85.5,28.5 85.5,26.3 
		85.5,25.8 85,25.8 	"/>
	<polygon class="st1" points="38.6,86.5 38.1,86.5 38.1,87 38.1,89.2 38.1,89.7 38.6,89.7 40.8,89.7 41.3,89.7 41.3,89.2 41.3,87 
		41.3,86.5 40.8,86.5 	"/>
	<polygon class="st1" points="43.1,51.8 42.6,51.8 42.6,52.3 42.6,54.5 42.6,55 43.1,55 45.3,55 45.8,55 45.8,54.5 45.8,52.3 
		45.8,51.8 45.3,51.8 	"/>
	<polygon class="st1" points="69.5,43.2 69,43.2 69,43.7 69,45.9 69,46.4 69.5,46.4 71.7,46.4 72.2,46.4 72.2,45.9 72.2,43.7 
		72.2,43.2 71.7,43.2 	"/>
	<polygon class="st1" points="43.1,47.4 42.6,47.4 42.6,47.9 42.6,50.1 42.6,50.6 43.1,50.6 45.3,50.6 45.8,50.6 45.8,50.1 
		45.8,47.9 45.8,47.4 45.3,47.4 	"/>
	<polygon class="st1" points="47.5,86.5 47,86.5 47,87 47,89.2 47,89.7 47.5,89.7 49.7,89.7 50.2,89.7 50.2,89.2 50.2,87 50.2,86.5 
		49.7,86.5 	"/>
	<polygon class="st1" points="38.6,99.4 38.1,99.4 38.1,99.9 38.1,102.1 38.1,102.6 38.6,102.6 40.8,102.6 41.3,102.6 41.3,102.1 
		41.3,99.9 41.3,99.4 40.8,99.4 	"/>
	<polygon class="st1" points="47.5,82.2 47,82.2 47,82.7 47,84.9 47,85.4 47.5,85.4 49.7,85.4 50.2,85.4 50.2,84.9 50.2,82.7 
		50.2,82.2 49.7,82.2 	"/>
	<polygon class="st1" points="69.5,56.2 69,56.2 69,56.7 69,58.9 69,59.4 69.5,59.4 71.7,59.4 72.2,59.4 72.2,58.9 72.2,56.7 
		72.2,56.2 71.7,56.2 	"/>
	<polygon class="st1" points="85,21.4 82.8,21.4 82.3,21.4 82.3,21.9 82.3,24.1 82.3,24.6 82.8,24.6 85,24.6 85.5,24.6 85.5,24.1 
		85.5,21.9 85.5,21.4 	"/>
	<polygon class="st1" points="69.5,60.4 69,60.4 69,60.9 69,63.1 69,63.6 69.5,63.6 71.7,63.6 72.2,63.6 72.2,63.1 72.2,60.9 
		72.2,60.4 71.7,60.4 	"/>
	<polygon class="st1" points="47.5,77.8 47,77.8 47,78.3 47,80.5 47,81 47.5,81 49.7,81 50.2,81 50.2,80.5 50.2,78.3 50.2,77.8 
		49.7,77.8 	"/>
	<polygon class="st1" points="47.5,90.9 47,90.9 47,91.4 47,93.6 47,94.1 47.5,94.1 49.7,94.1 50.2,94.1 50.2,93.6 50.2,91.4 
		50.2,90.9 49.7,90.9 	"/>
	<polygon class="st1" points="69.5,51.8 69,51.8 69,52.3 69,54.5 69,55 69.5,55 71.7,55 72.2,55 72.2,54.5 72.2,52.3 72.2,51.8 
		71.7,51.8 	"/>
	<polygon class="st1" points="47.5,95.3 47,95.3 47,95.8 47,98 47,98.5 47.5,98.5 49.7,98.5 50.2,98.5 50.2,98 50.2,95.8 50.2,95.3 
		49.7,95.3 	"/>
	<polygon class="st1" points="38.6,95.3 38.1,95.3 38.1,95.8 38.1,98 38.1,98.5 38.6,98.5 40.8,98.5 41.3,98.5 41.3,98 41.3,95.8 
		41.3,95.3 40.8,95.3 	"/>
	<polygon class="st1" points="47.5,99.4 47,99.4 47,99.9 47,102.1 47,102.6 47.5,102.6 49.7,102.6 50.2,102.6 50.2,102.1 50.2,99.9 
		50.2,99.4 49.7,99.4 	"/>
	<polygon class="st1" points="47.5,73.4 47,73.4 47,73.9 47,76.1 47,76.6 47.5,76.6 49.7,76.6 50.2,76.6 50.2,76.1 50.2,73.9 
		50.2,73.4 49.7,73.4 	"/>
	<polygon class="st1" points="43.1,56.2 42.6,56.2 42.6,56.7 42.6,58.9 42.6,59.4 43.1,59.4 45.3,59.4 45.8,59.4 45.8,58.9 
		45.8,56.7 45.8,56.2 45.3,56.2 	"/>
	<polygon class="st1" points="38.6,69.2 38.1,69.2 38.1,69.7 38.1,71.9 38.1,72.4 38.6,72.4 40.8,72.4 41.3,72.4 41.3,71.9 
		41.3,69.7 41.3,69.2 40.8,69.2 	"/>
	<polygon class="st1" points="43.1,86.5 42.6,86.5 42.6,87 42.6,89.2 42.6,89.7 43.1,89.7 45.3,89.7 45.8,89.7 45.8,89.2 45.8,87 
		45.8,86.5 45.3,86.5 	"/>
	<polygon class="st1" points="43.1,90.9 42.6,90.9 42.6,91.4 42.6,93.6 42.6,94.1 43.1,94.1 45.3,94.1 45.8,94.1 45.8,93.6 
		45.8,91.4 45.8,90.9 45.3,90.9 	"/>
	<polygon class="st1" points="43.1,82.2 42.6,82.2 42.6,82.7 42.6,84.9 42.6,85.4 43.1,85.4 45.3,85.4 45.8,85.4 45.8,84.9 
		45.8,82.7 45.8,82.2 45.3,82.2 	"/>
	<polygon class="st1" points="69.5,21.4 69,21.4 69,21.9 69,24.1 69,24.6 69.5,24.6 71.7,24.6 72.2,24.6 72.2,24.1 72.2,21.9 
		72.2,21.4 71.7,21.4 	"/>
	<polygon class="st1" points="69.5,25.8 69,25.8 69,26.3 69,28.5 69,29 69.5,29 71.7,29 72.2,29 72.2,28.5 72.2,26.3 72.2,25.8 
		71.7,25.8 	"/>
	<polygon class="st1" points="78.3,34.4 77.8,34.4 77.8,34.9 77.8,37.1 77.8,37.6 78.3,37.6 80.5,37.6 81,37.6 81,37.1 81,34.9 
		81,34.4 80.5,34.4 	"/>
	<polygon class="st1" points="73.9,34.4 73.4,34.4 73.4,34.9 73.4,37.1 73.4,37.6 73.9,37.6 76.1,37.6 76.6,37.6 76.6,37.1 
		76.6,34.9 76.6,34.4 76.1,34.4 	"/>
	<polygon class="st1" points="43.1,99.4 42.6,99.4 42.6,99.9 42.6,102.1 42.6,102.6 43.1,102.6 45.3,102.6 45.8,102.6 45.8,102.1 
		45.8,99.9 45.8,99.4 45.3,99.4 	"/>
	<polygon class="st1" points="43.1,103.8 42.6,103.8 42.6,104.3 42.6,106.5 42.6,107 43.1,107 45.3,107 45.8,107 45.8,106.5 
		45.8,104.3 45.8,103.8 45.3,103.8 	"/>
	<polygon class="st1" points="39.7,64.8 38.6,64.8 38.1,64.8 38.1,65.3 38.1,67.5 38.1,68 38.6,68 40.8,68 41.3,68 41.3,67.5 
		41.3,65.3 41.3,64.8 40.8,64.8 	"/>
	<polygon class="st1" points="43.1,95.3 42.6,95.3 42.6,95.8 42.6,98 42.6,98.5 43.1,98.5 45.3,98.5 45.8,98.5 45.8,98 45.8,95.8 
		45.8,95.3 45.3,95.3 	"/>
	<polygon class="st1" points="73.9,30.2 73.4,30.2 73.4,30.7 73.4,32.9 73.4,33.4 73.9,33.4 76.1,33.4 76.6,33.4 76.6,32.9 
		76.6,30.7 76.6,30.2 76.1,30.2 	"/>
	<polygon class="st1" points="43.1,60.4 42.6,60.4 42.6,60.9 42.6,63.1 42.6,63.6 43.1,63.6 45.3,63.6 45.8,63.6 45.8,63.1 
		45.8,60.9 45.8,60.4 45.3,60.4 	"/>
	<polygon class="st1" points="43.1,64.8 42.6,64.8 42.6,65.3 42.6,67.5 42.6,68 43.1,68 45.3,68 45.8,68 45.8,67.5 45.8,65.3 
		45.8,64.8 45.3,64.8 	"/>
	<polygon class="st1" points="78.3,30.2 77.8,30.2 77.8,30.7 77.8,32.9 77.8,33.4 78.3,33.4 80.5,33.4 81,33.4 81,32.9 81,30.7 
		81,30.2 80.5,30.2 	"/>
	<polygon class="st1" points="38.6,60.4 38.1,60.4 38.1,60.9 38.1,63.1 38.1,63.6 38.6,63.6 40.8,63.6 41.3,63.6 41.3,63.1 
		41.3,60.9 41.3,60.4 40.8,60.4 	"/>
	<polygon class="st1" points="69.5,34.4 69,34.4 69,34.9 69,37.1 69,37.6 69.5,37.6 71.7,37.6 72.2,37.6 72.2,37.1 72.2,34.9 
		72.2,34.4 71.7,34.4 	"/>
	<polygon class="st1" points="69.5,38.8 69,38.8 69,39.3 69,41.5 69,42 69.5,42 71.7,42 72.2,42 72.2,41.5 72.2,39.3 72.2,38.8 
		71.7,38.8 	"/>
	<polygon class="st1" points="38.6,82.2 38.1,82.2 38.1,82.7 38.1,84.9 38.1,85.4 38.6,85.4 40.8,85.4 41.3,85.4 41.3,84.9 
		41.3,82.7 41.3,82.2 40.8,82.2 	"/>
	<polygon class="st1" points="43.1,69.2 42.6,69.2 42.6,69.7 42.6,71.9 42.6,72.4 43.1,72.4 45.3,72.4 45.8,72.4 45.8,71.9 
		45.8,69.7 45.8,69.2 45.3,69.2 	"/>
	<polygon class="st1" points="43.1,77.8 42.6,77.8 42.6,78.3 42.6,80.5 42.6,81 43.1,81 45.3,81 45.8,81 45.8,80.5 45.8,78.3 
		45.8,77.8 45.3,77.8 	"/>
	<polygon class="st1" points="69.5,30.2 69,30.2 69,30.7 69,32.9 69,33.4 69.5,33.4 71.7,33.4 72.2,33.4 72.2,32.9 72.2,30.7 
		72.2,30.2 71.7,30.2 	"/>
	<polygon class="st1" points="43.1,73.4 42.6,73.4 42.6,73.9 42.6,76.1 42.6,76.6 43.1,76.6 45.3,76.6 45.8,76.6 45.8,76.1 
		45.8,73.9 45.8,73.4 45.3,73.4 	"/>
	<polygon class="st1" points="38.6,73.4 38.1,73.4 38.1,73.9 38.1,76.1 38.1,76.6 38.6,76.6 40.8,76.6 41.3,76.6 41.3,76.1 
		41.3,73.9 41.3,73.4 40.8,73.4 	"/>
	<polygon class="st1" points="60.7,69.2 60.2,69.2 60.2,69.7 60.2,71.9 60.2,72.4 60.7,72.4 62.9,72.4 63.4,72.4 63.4,71.9 
		63.4,69.7 63.4,69.2 62.9,69.2 	"/>
	<polygon class="st1" points="38.6,77.8 38.1,77.8 38.1,78.3 38.1,80.5 38.1,81 38.6,81 40.8,81 41.3,81 41.3,80.5 41.3,78.3 
		41.3,77.8 40.8,77.8 	"/>
	<polygon class="st1" points="56.3,69.2 55.8,69.2 55.8,69.7 55.8,71.9 55.8,72.4 56.3,72.4 58.5,72.4 59,72.4 59,71.9 59,69.7 
		59,69.2 58.5,69.2 	"/>
	<polygon class="st1" points="51.9,12.9 51.4,12.9 51.4,13.4 51.4,15.6 51.4,16.1 51.9,16.1 54.1,16.1 54.6,16.1 54.6,15.6 
		54.6,13.4 54.6,12.9 54.1,12.9 	"/>
	<polygon class="st1" points="56.3,56.2 55.8,56.2 55.8,56.7 55.8,58.9 55.8,59.4 56.3,59.4 58.5,59.4 59,59.4 59,58.9 59,56.7 
		59,56.2 58.5,56.2 	"/>
	<polygon class="st1" points="51.9,17.3 51.4,17.3 51.4,17.8 51.4,20 51.4,20.5 51.9,20.5 54.1,20.5 54.6,20.5 54.6,20 54.6,17.8 
		54.6,17.3 54.1,17.3 	"/>
	<polygon class="st1" points="56.3,60.4 55.8,60.4 55.8,60.9 55.8,63.1 55.8,63.6 56.3,63.6 58.5,63.6 59,63.6 59,63.1 59,60.9 
		59,60.4 58.5,60.4 	"/>
	<polygon class="st1" points="60.7,34.4 60.2,34.4 60.2,34.9 60.2,37.1 60.2,37.6 60.7,37.6 62.9,37.6 63.4,37.6 63.4,37.1 
		63.4,34.9 63.4,34.4 62.9,34.4 	"/>
	<polygon class="st1" points="56.3,64.8 55.8,64.8 55.8,65.3 55.8,67.5 55.8,68 56.3,68 58.5,68 59,68 59,67.5 59,65.3 59,64.8 
		58.5,64.8 	"/>
	<polygon class="st1" points="60.7,43.2 60.2,43.2 60.2,43.7 60.2,45.9 60.2,46.4 60.7,46.4 62.9,46.4 63.4,46.4 63.4,45.9 
		63.4,43.7 63.4,43.2 62.9,43.2 	"/>
	<polygon class="st1" points="60.7,38.8 60.2,38.8 60.2,39.3 60.2,41.5 60.2,42 60.7,42 62.9,42 63.4,42 63.4,41.5 63.4,39.3 
		63.4,38.8 62.9,38.8 	"/>
	<polygon class="st1" points="60.7,21.4 60.2,21.4 60.2,21.9 60.2,24.1 60.2,24.6 60.7,24.6 62.9,24.6 63.4,24.6 63.4,24.1 
		63.4,21.9 63.4,21.4 62.9,21.4 	"/>
	<polygon class="st1" points="51.9,30.2 51.4,30.2 51.4,30.7 51.4,32.9 51.4,33.4 51.9,33.4 54.1,33.4 54.6,33.4 54.6,32.9 
		54.6,30.7 54.6,30.2 54.1,30.2 	"/>
	<polygon class="st1" points="51.9,34.4 51.4,34.4 51.4,34.9 51.4,37.1 51.4,37.6 51.9,37.6 54.1,37.6 54.6,37.6 54.6,37.1 
		54.6,34.9 54.6,34.4 54.1,34.4 	"/>
	<path class="st1" d="M51.9,21.4h-0.5v0.5v0.5v0l0,0l0.5,0v0l-0.5,0c0.1,0.6,0.1,1.1,0.1,1.7l0,0.5H52h2.1h0.5v-0.5v-2.2v-0.5h-0.5
		H51.9z"/>
	<polygon class="st1" points="60.7,30.2 60.2,30.2 60.2,30.7 60.2,32.9 60.2,33.4 60.7,33.4 62.9,33.4 63.4,33.4 63.4,32.9 
		63.4,30.7 63.4,30.2 62.9,30.2 	"/>
	<path class="st1" d="M52,25.8h-0.5l0,0.5l0.5,0v0l-0.5,0c0,0.4-0.1,0.9-0.1,1.3l0.5,0v0l-0.5,0l0,0v0v0.9V29h0.5h2.2h0.5v-0.5v-2.2
		v-0.5h-0.5H52z"/>
	<polygon class="st1" points="60.7,25.8 60.2,25.8 60.2,26.3 60.2,28.5 60.2,29 60.7,29 62.9,29 63.4,29 63.4,28.5 63.4,26.3 
		63.4,25.8 62.9,25.8 	"/>
	<polygon class="st1" points="56.3,17.3 55.8,17.3 55.8,17.8 55.8,20 55.8,20.5 56.3,20.5 58.5,20.5 59,20.5 59,20 59,17.8 59,17.3 
		58.5,17.3 	"/>
	<polygon class="st1" points="56.3,25.8 55.8,25.8 55.8,26.3 55.8,28.5 55.8,29 56.3,29 58.5,29 59,29 59,28.5 59,26.3 59,25.8 
		58.5,25.8 	"/>
	<polygon class="st1" points="60.7,60.4 60.2,60.4 60.2,60.9 60.2,63.1 60.2,63.6 60.7,63.6 62.9,63.6 63.4,63.6 63.4,63.1 
		63.4,60.9 63.4,60.4 62.9,60.4 	"/>
	<polygon class="st1" points="56.3,21.4 55.8,21.4 55.8,21.9 55.8,24.1 55.8,24.6 56.3,24.6 58.5,24.6 59,24.6 59,24.1 59,21.9 
		59,21.4 58.5,21.4 	"/>
	<polygon class="st1" points="65.1,17.3 64.6,17.3 64.6,17.8 64.6,20 64.6,20.5 65.1,20.5 67.3,20.5 67.8,20.5 67.8,20 67.8,17.8 
		67.8,17.3 67.3,17.3 	"/>
	<polygon class="st1" points="56.3,12.9 55.8,12.9 55.8,13.4 55.8,15.6 55.8,16.1 56.3,16.1 58.5,16.1 59,16.1 59,15.6 59,13.4 
		59,12.9 58.5,12.9 	"/>
	<polygon class="st1" points="60.7,47.4 60.2,47.4 60.2,47.9 60.2,50.1 60.2,50.6 60.7,50.6 62.9,50.6 63.4,50.6 63.4,50.1 
		63.4,47.9 63.4,47.4 62.9,47.4 	"/>
	<polygon class="st1" points="60.7,17.3 60.2,17.3 60.2,17.8 60.2,20 60.2,20.5 60.7,20.5 62.9,20.5 63.4,20.5 63.4,20 63.4,17.8 
		63.4,17.3 62.9,17.3 	"/>
	<polygon class="st1" points="56.3,30.2 55.8,30.2 55.8,30.7 55.8,32.9 55.8,33.4 56.3,33.4 58.5,33.4 59,33.4 59,32.9 59,30.7 
		59,30.2 58.5,30.2 	"/>
	<polygon class="st1" points="60.7,51.8 60.2,51.8 60.2,52.3 60.2,54.5 60.2,55 60.7,55 62.9,55 63.4,55 63.4,54.5 63.4,52.3 
		63.4,51.8 62.9,51.8 	"/>
	<polygon class="st1" points="56.3,47.4 55.8,47.4 55.8,47.9 55.8,50.1 55.8,50.6 56.3,50.6 58.5,50.6 59,50.6 59,50.1 59,47.9 
		59,47.4 58.5,47.4 	"/>
	<polygon class="st1" points="56.3,34.4 55.8,34.4 55.8,34.9 55.8,37.1 55.8,37.6 56.3,37.6 58.5,37.6 59,37.6 59,37.1 59,34.9 
		59,34.4 58.5,34.4 	"/>
	<polygon class="st1" points="56.3,51.8 55.8,51.8 55.8,52.3 55.8,54.5 55.8,55 56.3,55 58.5,55 59,55 59,54.5 59,52.3 59,51.8 
		58.5,51.8 	"/>
	<polygon class="st1" points="56.3,43.2 55.8,43.2 55.8,43.7 55.8,45.9 55.8,46.4 56.3,46.4 58.5,46.4 59,46.4 59,45.9 59,43.7 
		59,43.2 58.5,43.2 	"/>
	<polygon class="st1" points="60.7,56.2 60.2,56.2 60.2,56.7 60.2,58.9 60.2,59.4 60.7,59.4 62.9,59.4 63.4,59.4 63.4,58.9 
		63.4,56.7 63.4,56.2 62.9,56.2 	"/>
	<polygon class="st1" points="56.3,38.8 55.8,38.8 55.8,39.3 55.8,41.5 55.8,42 56.3,42 58.5,42 59,42 59,41.5 59,39.3 59,38.8 
		58.5,38.8 	"/>
	<polygon class="st1" points="60.7,64.8 60.2,64.8 60.2,65.3 60.2,67.5 60.2,68 60.7,68 62.9,68 63.4,68 63.4,67.5 63.4,65.3 
		63.4,64.8 62.9,64.8 	"/>
	<polygon class="st1" points="65.1,34.4 64.6,34.4 64.6,34.9 64.6,37.1 64.6,37.6 65.1,37.6 67.3,37.6 67.8,37.6 67.8,37.1 
		67.8,34.9 67.8,34.4 67.3,34.4 	"/>
	<polygon class="st1" points="47.5,43.2 47,43.2 47,43.7 47,45.9 47,46.4 47.5,46.4 49.7,46.4 50.2,46.4 50.2,45.9 50.2,43.7 
		50.2,43.2 49.7,43.2 	"/>
	<path class="st1" d="M47.9,38.8h-0.3L47.5,39c-0.1,0.2-0.3,0.5-0.4,0.7l0.4,0.3l0,0L47,39.7L47,39.8V40v1.5V42h0.5h2.2h0.5v-0.5
		v-2.2v-0.5h-0.5H47.9z"/>
	<polygon class="st1" points="47.5,47.4 47,47.4 47,47.9 47,50.1 47,50.6 47.5,50.6 49.7,50.6 50.2,50.6 50.2,50.1 50.2,47.9 
		50.2,47.4 49.7,47.4 	"/>
	<polygon class="st1" points="65.1,30.2 64.6,30.2 64.6,30.7 64.6,32.9 64.6,33.4 65.1,33.4 67.3,33.4 67.8,33.4 67.8,32.9 
		67.8,30.7 67.8,30.2 67.3,30.2 	"/>
	<polygon class="st1" points="65.1,38.8 64.6,38.8 64.6,39.3 64.6,41.5 64.6,42 65.1,42 67.3,42 67.8,42 67.8,41.5 67.8,39.3 
		67.8,38.8 67.3,38.8 	"/>
	<path class="st1" d="M49.4,12.9h-0.8l0.3,0.7c0.1,0.2,0.2,0.4,0.3,0.6l1-0.2v-0.6v-0.5h-0.5H49.4z"/>
	<polygon class="st1" points="51.9,90.9 51.4,90.9 51.4,91.4 51.4,93.6 51.4,94.1 51.9,94.1 54.1,94.1 54.6,94.1 54.6,93.6 
		54.6,91.4 54.6,90.9 54.1,90.9 	"/>
	<path class="st1" d="M48.7,36.8l0.4,0.2v0L48.7,36.8l-0.4,0.7h0.8h0.5h0.5v-0.5V36l-1-0.2C49.1,36.1,48.9,36.5,48.7,36.8z"/>
	<polygon class="st1" points="47.5,64.8 47,64.8 47,65.3 47,67.5 47,68 47.5,68 49.7,68 50.2,68 50.2,67.5 50.2,65.3 50.2,64.8 
		49.7,64.8 	"/>
	<polygon class="st1" points="65.1,21.4 64.6,21.4 64.6,21.9 64.6,24.1 64.6,24.6 65.1,24.6 67.3,24.6 67.8,24.6 67.8,24.1 
		67.8,21.9 67.8,21.4 67.3,21.4 	"/>
	<polygon class="st1" points="47.5,69.2 47,69.2 47,69.7 47,71.9 47,72.4 47.5,72.4 49.7,72.4 50.2,72.4 50.2,71.9 50.2,69.7 
		50.2,69.2 49.7,69.2 	"/>
	<polygon class="st1" points="51.9,38.8 51.4,38.8 51.4,39.3 51.4,41.5 51.4,42 51.9,42 54.1,42 54.6,42 54.6,41.5 54.6,39.3 
		54.6,38.8 54.1,38.8 	"/>
	<polygon class="st1" points="47.5,51.8 47,51.8 47,52.3 47,54.5 47,55 47.5,55 49.7,55 50.2,55 50.2,54.5 50.2,52.3 50.2,51.8 
		49.7,51.8 	"/>
	<polygon class="st1" points="65.1,25.8 64.6,25.8 64.6,26.3 64.6,28.5 64.6,29 65.1,29 67.3,29 67.8,29 67.8,28.5 67.8,26.3 
		67.8,25.8 67.3,25.8 	"/>
	<polygon class="st1" points="47.5,56.2 47,56.2 47,56.7 47,58.9 47,59.4 47.5,59.4 49.7,59.4 50.2,59.4 50.2,58.9 50.2,56.7 
		50.2,56.2 49.7,56.2 	"/>
	<polygon class="st1" points="47.5,60.4 47,60.4 47,60.9 47,63.1 47,63.6 47.5,63.6 49.7,63.6 50.2,63.6 50.2,63.1 50.2,60.9 
		50.2,60.4 49.7,60.4 	"/>
	<polygon class="st1" points="65.1,56.2 64.6,56.2 64.6,56.7 64.6,58.9 64.6,59.4 65.1,59.4 67.3,59.4 67.8,59.4 67.8,58.9 
		67.8,56.7 67.8,56.2 67.3,56.2 	"/>
	<polygon class="st1" points="51.9,51.8 51.4,51.8 51.4,52.3 51.4,54.5 51.4,55 51.9,55 54.1,55 54.6,55 54.6,54.5 54.6,52.3 
		54.6,51.8 54.1,51.8 	"/>
	<polygon class="st1" points="51.9,56.2 51.4,56.2 51.4,56.7 51.4,58.9 51.4,59.4 51.9,59.4 54.1,59.4 54.6,59.4 54.6,58.9 
		54.6,56.7 54.6,56.2 54.1,56.2 	"/>
	<polygon class="st1" points="51.9,82.2 51.4,82.2 51.4,82.7 51.4,84.9 51.4,85.4 51.9,85.4 54.1,85.4 54.6,85.4 54.6,84.9 
		54.6,82.7 54.6,82.2 54.1,82.2 	"/>
	<polygon class="st1" points="51.9,43.2 51.4,43.2 51.4,43.7 51.4,45.9 51.4,46.4 51.9,46.4 54.1,46.4 54.6,46.4 54.6,45.9 
		54.6,43.7 54.6,43.2 54.1,43.2 	"/>
	<polygon class="st1" points="65.1,60.4 64.6,60.4 64.6,60.9 64.6,63.1 64.6,63.6 65.1,63.6 67.3,63.6 67.8,63.6 67.8,63.1 
		67.8,60.9 67.8,60.4 67.3,60.4 	"/>
	<polygon class="st1" points="51.9,60.4 51.4,60.4 51.4,60.9 51.4,63.1 51.4,63.6 51.9,63.6 54.1,63.6 54.6,63.6 54.6,63.1 
		54.6,60.9 54.6,60.4 54.1,60.4 	"/>
	<polygon class="st1" points="51.9,47.4 51.4,47.4 51.4,47.9 51.4,50.1 51.4,50.6 51.9,50.6 54.1,50.6 54.6,50.6 54.6,50.1 
		54.6,47.9 54.6,47.4 54.1,47.4 	"/>
	<polygon class="st1" points="51.9,73.4 51.4,73.4 51.4,73.9 51.4,76.1 51.4,76.6 51.9,76.6 54.1,76.6 54.6,76.6 54.6,76.1 
		54.6,73.9 54.6,73.4 54.1,73.4 	"/>
	<polygon class="st1" points="51.9,77.8 51.4,77.8 51.4,78.3 51.4,80.5 51.4,81 51.9,81 54.1,81 54.6,81 54.6,80.5 54.6,78.3 
		54.6,77.8 54.1,77.8 	"/>
	<polygon class="st1" points="65.1,43.2 64.6,43.2 64.6,43.7 64.6,45.9 64.6,46.4 65.1,46.4 67.3,46.4 67.8,46.4 67.8,45.9 
		67.8,43.7 67.8,43.2 67.3,43.2 	"/>
	<polygon class="st1" points="65.1,47.4 64.6,47.4 64.6,47.9 64.6,50.1 64.6,50.6 65.1,50.6 67.3,50.6 67.8,50.6 67.8,50.1 
		67.8,47.9 67.8,47.4 67.3,47.4 	"/>
	<polygon class="st1" points="65.1,51.8 64.6,51.8 64.6,52.3 64.6,54.5 64.6,55 65.1,55 67.3,55 67.8,55 67.8,54.5 67.8,52.3 
		67.8,51.8 67.3,51.8 	"/>
	<polygon class="st1" points="51.9,64.8 51.4,64.8 51.4,65.3 51.4,67.5 51.4,68 51.9,68 54.1,68 54.6,68 54.6,67.5 54.6,65.3 
		54.6,64.8 54.1,64.8 	"/>
	<polygon class="st1" points="51.9,69.2 51.4,69.2 51.4,69.7 51.4,71.9 51.4,72.4 51.9,72.4 54.1,72.4 54.6,72.4 54.6,71.9 
		54.6,69.7 54.6,69.2 54.1,69.2 	"/>
</g>
</svg>
