<svg xmlns="http://www.w3.org/2000/svg" width="24" height="24" fill="currentColor" viewBox="0 0 24 24">
  <path fill-rule="evenodd" d="M6 8.5a2.5 2.5 0 1 1 5 0 2.5 2.5 0 0 1-5 0ZM8.5 8a.5.5 0 1 0 0 1 .5.5 0 0 0 0-1Z" clip-rule="evenodd"/>
  <path fill-rule="evenodd" d="M2 5a3 3 0 0 1 3-3h14a3 3 0 0 1 3 3v14a3 3 0 0 1-3 3H5a3 3 0 0 1-3-3V5Zm3-1a1 1 0 0 0-1 1v14a1 1 0 0 0 .65.937L15.292 9.293a1 1 0 0 1 1.414 0L20 12.586V5a1 1 0 0 0-1-1H5Zm15 11.414-4-4L7.414 20H19a1 1 0 0 0 1-1v-3.586Z" clip-rule="evenodd"/>
</svg>
