<svg xmlns="http://www.w3.org/2000/svg" width="24" height="24" fill="currentColor" viewBox="0 0 24 24">
  <path fill-rule="evenodd" d="M12 6a4 4 0 1 0 0 8 4 4 0 0 0 0-8Zm-2 4a2 2 0 1 1 4 0 2 2 0 0 1-4 0Z" clip-rule="evenodd"/>
  <path fill-rule="evenodd" d="M11.445 23.832 12 23l-.555.832a1 1 0 0 0 1.11 0L12 23l.555.832.003-.002.007-.005.023-.015.082-.057c.072-.05.174-.12.302-.214a31.433 31.433 0 0 0 4.254-3.727C19.516 17.397 22 13.903 22 10a10 10 0 0 0-20 0c0 3.902 2.484 7.396 4.774 9.813a31.428 31.428 0 0 0 4.254 3.726 18.887 18.887 0 0 0 .384.27l.023.016.007.005.003.002ZM6.343 4.343A8 8 0 0 1 20 10c0 3.098-2.016 6.104-4.226 8.437A29.412 29.412 0 0 1 12 21.773a29.419 29.419 0 0 1-3.774-3.335C6.016 16.103 4 13.097 4 10a8 8 0 0 1 2.343-5.657Z" clip-rule="evenodd"/>
</svg>
