<svg xmlns="http://www.w3.org/2000/svg" width="24" height="24" fill="currentColor" viewBox="0 0 24 24">
  <path d="M12 8a1 1 0 0 1 1 1v4a1 1 0 1 1-2 0V9a1 1 0 0 1 1-1Zm0 8a1 1 0 1 0 0 2h.01a1 1 0 1 0 0-2H12Z"/>
  <path fill-rule="evenodd" d="M10.529 2.282a3 3 0 0 1 4.037 1.059l.003.004 8.47 14.14.008.014a3 3 0 0 1-2.565 4.5H3.52a2.999 2.999 0 0 1-2.565-4.5l.008-.014 8.47-14.14.858.514-.855-.518a3 3 0 0 1 1.093-1.059Zm.618 2.094-8.464 14.13a1 1 0 0 0 .854 1.493h16.927a1 1 0 0 0 .854-1.494L12.856 4.378l-.002-.002a1 1 0 0 0-1.707 0Z" clip-rule="evenodd"/>
</svg>
