<svg xmlns="http://www.w3.org/2000/svg" width="24" height="24" fill="currentColor" viewBox="0 0 24 24">
  <path fill-rule="evenodd" d="M10.11 2.006a1 1 0 0 1 .884 1.105L10.45 8h3.987l.568-5.111a1 1 0 1 1 1.988.22L16.45 8H20a1 1 0 1 1 0 2h-3.772l-.444 4H20a1 1 0 1 1 0 2h-4.438l-.568 5.11a1 1 0 0 1-1.988-.22L13.55 16H9.562l-.568 5.11a1 1 0 0 1-1.988-.22L7.55 16H4a1 1 0 1 1 0-2h3.772l.444-4H4a1 1 0 0 1 0-2h4.438l.568-5.11a1 1 0 0 1 1.104-.884ZM13.772 14l.444-4h-3.988l-.444 4h3.988Z" clip-rule="evenodd"/>
</svg>
