<svg xmlns="http://www.w3.org/2000/svg" width="18" height="18" fill="currentColor" viewBox="0 0 18 18">
  <path fill-rule="evenodd" d="M14.676 2.263a1 1 0 0 1 .061 1.413l-11 12a1 1 0 1 1-1.474-1.352l11-12a1 1 0 0 1 1.413-.061ZM11.544 3.46A7.377 7.377 0 0 0 9 3C6.074 3 3.268 4.798 1.3 7.933 1.106 8.243 1 8.617 1 9c0 .384.105.757.3 1.068a12.678 12.678 0 0 0 1.96 2.43l3.077-3.359c-.066-1.207.735-2.458 2.405-2.623l2.802-3.057Zm-3.223 7.955c.21.049.436.078.679.085 2.277-.068 3.096-2.056 2.456-3.505l2.735-2.983c.928.772 1.776 1.754 2.508 2.92.196.311.301.685.301 1.068 0 .384-.105.757-.3 1.068C14.731 13.202 11.925 15 9 15a7.524 7.524 0 0 1-3.265-.764l2.586-2.82Z" clip-rule="evenodd"/>
</svg>
