<svg width="16" height="17" viewBox="0 0 16 17" xmlns="http://www.w3.org/2000/svg">
<path fill-rule="evenodd" clip-rule="evenodd" d="M8.58132 0.186267C8.23362 -0.0620888 7.76654 -0.0620888 7.41884 0.186267L0.418839 5.18627C0.156043 5.37398 7.76737e-05 5.67705 7.76737e-05 6C7.76737e-05 6.32295 0.156043 6.62602 0.418839 6.81373L7.41884 11.8137C7.76654 12.0621 8.23362 12.0621 8.58132 11.8137L15.5813 6.81373C15.8441 6.62602 16.0001 6.32295 16.0001 6C16.0001 5.67705 15.8441 5.37398 15.5813 5.18627L8.58132 0.186267ZM8.00008 9.7711L2.72054 6L8.00008 2.2289L13.2796 6L8.00008 9.7711ZM1.58132 10.1863C1.1319 9.86526 0.507353 9.96935 0.186344 10.4188C-0.134665 10.8682 -0.0305731 11.4927 0.418839 11.8137L7.41884 16.8137C7.76654 17.0621 8.23362 17.0621 8.58132 16.8137L15.5813 11.8137C16.0307 11.4927 16.1348 10.8682 15.8138 10.4188C15.4928 9.96935 14.8683 9.86526 14.4188 10.1863L8.00008 14.7711L1.58132 10.1863Z" />
</svg>
