<svg width="14" height="17" viewBox="0 0 14 17" xmlns="http://www.w3.org/2000/svg">
<path fill-rule="evenodd" clip-rule="evenodd" d="M6.66667 4.5C5.19391 4.5 4 5.69391 4 7.16667C4 8.63943 5.19391 9.83333 6.66667 9.83333C8.13943 9.83333 9.33333 8.63943 9.33333 7.16667C9.33333 5.69391 8.13943 4.5 6.66667 4.5ZM5.33333 7.16667C5.33333 6.43029 5.93029 5.83333 6.66667 5.83333C7.40305 5.83333 8 6.43029 8 7.16667C8 7.90305 7.40305 8.5 6.66667 8.5C5.93029 8.5 5.33333 7.90305 5.33333 7.16667Z" />
<path fill-rule="evenodd" clip-rule="evenodd" d="M6.29651 16.3878C6.2967 16.3879 6.29687 16.388 6.66667 15.8333L6.29651 16.3878C6.52044 16.5371 6.81253 16.5373 7.03647 16.388L6.66667 15.8333C7.03647 16.388 7.03627 16.3882 7.03647 16.388L7.03873 16.3865L7.04318 16.3835L7.05845 16.3732C7.07144 16.3644 7.08995 16.3517 7.11363 16.3353C7.16098 16.3025 7.22902 16.2547 7.31481 16.1928C7.4863 16.0689 7.72909 15.8881 8.01945 15.6569C8.59911 15.1954 9.37374 14.5286 10.1506 13.7085C11.6772 12.0972 13.3333 9.76796 13.3333 7.16667C13.3333 5.39856 12.631 3.70286 11.3807 2.45262C10.1305 1.20238 8.43478 0.5 6.66667 0.5C4.89856 0.5 3.20286 1.20238 1.95262 2.45262C0.702379 3.70286 0 5.39856 0 7.16667C0 9.76796 1.65618 12.0972 3.1827 13.7085C3.95959 14.5286 4.73422 15.1954 5.31388 15.6569C5.60424 15.8881 5.84703 16.0689 6.01853 16.1928C6.10431 16.2547 6.17235 16.3025 6.21971 16.3353C6.24338 16.3517 6.2619 16.3644 6.27488 16.3732L6.29016 16.3835L6.2946 16.3865L6.29651 16.3878ZM2.89543 3.39543C3.89562 2.39524 5.25218 1.83333 6.66667 1.83333C8.08115 1.83333 9.43771 2.39524 10.4379 3.39543C11.4381 4.39562 12 5.75218 12 7.16667C12 9.23204 10.6562 11.2362 9.1827 12.7915C8.45959 13.5548 7.73422 14.1796 7.18888 14.6139C6.98592 14.7755 6.80865 14.9101 6.66667 15.0151C6.52468 14.9101 6.34741 14.7755 6.14445 14.6139C5.59911 14.1796 4.87374 13.5548 4.15064 12.7915C2.67716 11.2362 1.33333 9.23204 1.33333 7.16667C1.33333 5.75218 1.89524 4.39562 2.89543 3.39543Z" />
</svg>
