<?xml version="1.0" encoding="UTF-8"?><svg id="Layer_2" xmlns="http://www.w3.org/2000/svg" viewBox="0 0 223.36 63.58"><defs></defs><g id="Layer_1-2"><g><polygon class="cls-1" points="82.67 60.9 84.04 60.9 84.04 62.5 82.67 62.5 82.67 60.9 82.67 60.9"/><polygon class="cls-1" points="111.89 60.9 113.27 60.9 113.27 62.5 111.89 62.5 111.89 60.9 111.89 60.9"/><polygon class="cls-1" points="127.97 60.9 129.34 60.9 129.34 62.5 127.97 62.5 127.97 60.9 127.97 60.9"/><polygon class="cls-1" points="60.61 62.69 59.23 62.69 57.7 56.51 57.67 56.51 56.27 62.69 54.89 62.69 52.96 55.38 54.22 55.38 55.61 61.49 55.64 61.49 57.03 55.38 58.46 55.38 59.91 61.49 59.94 61.49 61.31 55.38 62.51 55.38 60.61 62.69 60.61 62.69"/><polygon class="cls-1" points="70.57 62.69 69.19 62.69 67.66 56.51 67.63 56.51 66.22 62.69 64.85 62.69 62.91 55.38 64.18 55.38 65.57 61.49 65.59 61.49 66.99 55.38 68.42 55.38 69.86 61.49 69.89 61.49 71.27 55.38 72.47 55.38 70.57 62.69 70.57 62.69"/><polygon class="cls-1" points="80.52 62.69 79.15 62.69 77.61 56.51 77.59 56.51 76.18 62.69 74.81 62.69 72.87 55.38 74.13 55.38 75.52 61.49 75.55 61.49 76.94 55.38 78.37 55.38 79.82 61.49 79.85 61.49 81.23 55.38 82.43 55.38 80.52 62.69 80.52 62.69"/><path class="cls-1" d="M86.21,55.38h1.2v7.31h-1.2v-7.31h0Zm1.26-3.01v1.43h-1.32v-1.43h1.32Z"/><path class="cls-1" d="M89.54,55.38h1.2v7.31h-1.2v-7.31h0Zm1.26-3.01v1.43h-1.32v-1.43h1.32Z"/><path class="cls-1" d="M96.53,59.11c-.21-.03-.52-.03-.85-.03-1.42,0-2.09,.67-2.09,1.52,0,.77,.4,1.28,1.23,1.28,1.05,0,1.71-.85,1.71-1.85v-.92h0Zm-3.5-3.22c.6-.39,1.35-.6,2.06-.6,1.07,0,1.72,.46,1.95,.69,.32,.32,.63,.76,.63,1.79v3.81c0,.43,.03,.86,.06,1.12h-1.09l-.07-.99h-.03c-.33,.56-.93,1.09-2.05,1.09-1.2,0-2.11-.7-2.11-2.11s.93-2.46,3.44-2.46h.7v-.33c0-.54-.04-.86-.27-1.17-.24-.33-.72-.46-1.22-.46-.75,0-1.46,.3-1.88,.76l-.13-1.13h0Z"/><path class="cls-1" d="M99.21,61.27c.55,.33,1.12,.54,1.72,.54,.92,0,1.39-.47,1.39-1.03,0-.5-.26-.85-.93-1.15l-.8-.36c-1.05-.47-1.43-.95-1.43-1.88,0-1.2,.93-2.12,2.35-2.12,.6,0,1.13,.1,1.55,.26l-.06,1.03c-.37-.17-.89-.32-1.43-.32-.79,0-1.2,.43-1.2,1s.43,.92,1.23,1.23l.43,.17c.89,.36,1.45,.96,1.45,1.86,0,1.26-.67,2.26-2.35,2.26-.76,0-1.45-.16-1.98-.43l.07-1.09h0Z"/><path class="cls-1" d="M108.75,59.11c-.21-.03-.51-.03-.85-.03-1.42,0-2.09,.67-2.09,1.52,0,.77,.4,1.28,1.23,1.28,1.05,0,1.71-.85,1.71-1.85v-.92h0Zm-3.5-3.22c.6-.39,1.35-.6,2.06-.6,1.08,0,1.72,.46,1.95,.69,.32,.32,.63,.76,.63,1.79v3.81c0,.43,.03,.86,.06,1.12h-1.09l-.07-.99h-.03c-.33,.56-.93,1.09-2.05,1.09-1.2,0-2.11-.7-2.11-2.11s.93-2.46,3.44-2.46h.7v-.33c0-.54-.04-.86-.27-1.17-.24-.33-.72-.46-1.22-.46-.75,0-1.46,.3-1.88,.76l-.13-1.13h0Z"/><path class="cls-1" d="M119.11,59.11c-.22-.03-.52-.03-.85-.03-1.42,0-2.09,.67-2.09,1.52,0,.77,.4,1.28,1.23,1.28,1.04,0,1.71-.85,1.71-1.85v-.92h0Zm-3.5-3.22c.6-.39,1.35-.6,2.06-.6,1.07,0,1.72,.46,1.95,.69,.31,.32,.63,.76,.63,1.79v3.81c0,.43,.03,.86,.06,1.12h-1.09l-.07-.99h-.03c-.33,.56-.93,1.09-2.05,1.09-1.2,0-2.1-.7-2.1-2.11s.93-2.46,3.44-2.46h.7v-.33c0-.54-.04-.86-.27-1.17-.24-.33-.72-.46-1.22-.46-.75,0-1.46,.3-1.88,.76l-.13-1.13h0Z"/><path class="cls-1" d="M126.4,56.66c-.42-.23-.83-.34-1.39-.34-1.17,0-2,.82-2,2.79,0,1.69,.8,2.65,1.98,2.65,.57,0,1.06-.17,1.48-.39l.06,1.1c-.36,.16-1,.32-1.53,.32-2.18,0-3.24-1.62-3.24-3.68,0-2.36,1.23-3.83,3.27-3.83,.5,0,1.06,.1,1.45,.29l-.06,1.09h0Z"/><path class="cls-1" d="M135.19,59.11c-.22-.03-.52-.03-.85-.03-1.42,0-2.09,.67-2.09,1.52,0,.77,.4,1.28,1.23,1.28,1.04,0,1.71-.85,1.71-1.85v-.92h0Zm-3.5-3.22c.6-.39,1.35-.6,2.06-.6,1.07,0,1.72,.46,1.95,.69,.31,.32,.63,.76,.63,1.79v3.81c0,.43,.03,.86,.06,1.12h-1.09l-.07-.99h-.03c-.33,.56-.93,1.09-2.05,1.09-1.2,0-2.1-.7-2.1-2.11s.93-2.46,3.44-2.46h.7v-.33c0-.54-.04-.86-.27-1.17-.24-.33-.72-.46-1.22-.46-.75,0-1.46,.3-1.88,.76l-.13-1.13h0Z"/><path class="cls-1" d="M141.4,62.6c-.29,.1-.69,.19-1.02,.19-1.1,0-1.69-.44-1.69-1.73v-4.7h-1.16v-.97h1.16v-1.49l1.2-.36v1.85h1.5v.97h-1.5v4.31c0,.83,.21,1.15,.76,1.15,.3,0,.52-.09,.74-.19v.97h0Z"/><polygon class="cls-1" points="53.96 10.3 55.48 10.3 55.48 22.41 53.96 22.41 53.96 10.3 53.96 10.3"/><path class="cls-1" d="M58.05,15.47c0-.64-.05-1.28-.07-1.91h1.41l.05,1.32h.04c.47-1.01,1.21-1.44,2.24-1.44,1.54,0,2.59,.88,2.59,2.83v6.14h-1.46v-5.71c0-1.41-.52-2.01-1.46-2.01-1.15,0-1.87,.8-1.87,2.39v5.33h-1.46v-6.94h0Z"/><path class="cls-1" d="M70.49,22.3c-.35,.12-.83,.23-1.23,.23-1.34,0-2.05-.54-2.05-2.1v-5.69h-1.41v-1.18h1.41v-1.8l1.46-.43v2.24h1.82v1.18h-1.82v5.22c0,1.01,.26,1.39,.92,1.39,.37,0,.62-.1,.9-.23v1.18h0Z"/><path class="cls-1" d="M76.52,17.31c0-1.84-.57-2.76-1.73-2.76-.94,0-1.77,.69-1.8,2.76h3.54Zm-3.54,1.11c0,2.05,.8,3,2.41,3,.73,0,1.53-.37,2.03-.73l.07,1.32c-.69,.33-1.6,.52-2.48,.52-2.34,0-3.56-1.77-3.56-4.55s1.21-4.55,3.42-4.55c2,0,3.11,1.6,3.11,4.2v.78h-5Z"/><path class="cls-1" d="M79.77,15.47c0-.64-.05-1.28-.07-1.91h1.41l.05,1.39h.04c.47-1.08,1.21-1.51,2.52-1.51v1.44c-.17-.03-.36-.05-.55-.05-1.13,0-1.93,.97-1.93,2.9v4.68h-1.46v-6.94h0Z"/><path class="cls-1" d="M85.07,15.47c0-.64-.05-1.28-.07-1.91h1.41l.05,1.32h.03c.47-1.01,1.21-1.44,2.24-1.44,1.55,0,2.59,.88,2.59,2.83v6.14h-1.46v-5.71c0-1.41-.52-2.01-1.46-2.01-1.15,0-1.88,.8-1.88,2.39v5.33h-1.46v-6.94h0Z"/><path class="cls-1" d="M98.19,18.07c-.26-.03-.62-.03-1.02-.03-1.72,0-2.53,.81-2.53,1.84,0,.94,.49,1.55,1.49,1.55,1.27,0,2.06-1.02,2.06-2.24v-1.11h0Zm-4.23-3.91c.73-.47,1.63-.73,2.5-.73,1.3,0,2.08,.55,2.36,.83,.38,.38,.76,.92,.76,2.17v4.62c0,.52,.03,1.04,.07,1.35h-1.32l-.09-1.2h-.03c-.4,.68-1.13,1.32-2.48,1.32-1.46,0-2.55-.85-2.55-2.55s1.13-2.98,4.16-2.98h.85v-.4c0-.66-.05-1.04-.33-1.42-.3-.4-.87-.56-1.47-.56-.9,0-1.77,.37-2.27,.92l-.16-1.37h0Z"/><path class="cls-1" d="M105.72,22.3c-.35,.12-.83,.23-1.23,.23-1.34,0-2.05-.54-2.05-2.1v-5.69h-1.4v-1.18h1.4v-1.8l1.46-.43v2.24h1.82v1.18h-1.82v5.22c0,1.01,.26,1.39,.92,1.39,.37,0,.63-.1,.9-.23v1.18h0Z"/><path class="cls-1" d="M107.26,13.56h1.46v8.85h-1.46V13.56h0Zm1.53-3.64v1.73h-1.6v-1.73h1.6Z"/><path class="cls-1" d="M114.27,21.35c1.39,0,2.03-1.14,2.03-3.37s-.64-3.37-2.03-3.37-2.03,1.15-2.03,3.37,.64,3.37,2.03,3.37h0Zm0-7.91c2.34,0,3.56,1.77,3.56,4.55s-1.21,4.55-3.56,4.55-3.56-1.77-3.56-4.55,1.22-4.55,3.56-4.55h0Z"/><path class="cls-1" d="M119.68,15.47c0-.64-.05-1.28-.07-1.91h1.41l.05,1.32h.03c.47-1.01,1.21-1.44,2.24-1.44,1.54,0,2.59,.88,2.59,2.83v6.14h-1.46v-5.71c0-1.41-.52-2.01-1.46-2.01-1.15,0-1.87,.8-1.87,2.39v5.33h-1.46v-6.94h0Z"/><path class="cls-1" d="M132.79,18.07c-.26-.03-.62-.03-1.02-.03-1.72,0-2.53,.81-2.53,1.84,0,.94,.49,1.55,1.49,1.55,1.27,0,2.06-1.02,2.06-2.24v-1.11h0Zm-4.23-3.91c.73-.47,1.63-.73,2.5-.73,1.3,0,2.08,.55,2.36,.83,.38,.38,.76,.92,.76,2.17v4.62c0,.52,.04,1.04,.07,1.35h-1.32l-.09-1.2h-.04c-.4,.68-1.13,1.32-2.48,1.32-1.46,0-2.55-.85-2.55-2.55s1.13-2.98,4.16-2.98h.85v-.4c0-.66-.05-1.04-.33-1.42-.3-.4-.87-.56-1.47-.56-.9,0-1.77,.37-2.27,.92l-.16-1.37h0Z"/><polygon class="cls-1" points="136.55 9.39 138.01 9.39 138.01 22.41 136.55 22.41 136.55 9.39 136.55 9.39"/><polygon class="cls-1" points="145.05 10.3 146.58 10.3 146.58 22.41 145.05 22.41 145.05 10.3 145.05 10.3"/><path class="cls-1" d="M149.15,15.47c0-.64-.05-1.28-.07-1.91h1.41l.05,1.32h.04c.47-1.01,1.21-1.44,2.24-1.44,1.54,0,2.58,.88,2.58,2.83v6.14h-1.46v-5.71c0-1.41-.52-2.01-1.46-2.01-1.15,0-1.87,.8-1.87,2.39v5.33h-1.46v-6.94h0Z"/><path class="cls-1" d="M157.3,20.69c.66,.4,1.35,.66,2.08,.66,1.11,0,1.68-.57,1.68-1.25,0-.61-.31-1.02-1.13-1.39l-.97-.43c-1.27-.57-1.73-1.15-1.73-2.27,0-1.46,1.13-2.57,2.84-2.57,.73,0,1.37,.12,1.88,.31l-.07,1.25c-.45-.21-1.08-.38-1.74-.38-.95,0-1.46,.52-1.46,1.21s.52,1.11,1.49,1.49l.52,.21c1.08,.43,1.75,1.16,1.75,2.26,0,1.53-.82,2.74-2.85,2.74-.92,0-1.75-.19-2.39-.52l.09-1.32h0Z"/><path class="cls-1" d="M168.18,22.3c-.35,.12-.83,.23-1.23,.23-1.34,0-2.05-.54-2.05-2.1v-5.69h-1.4v-1.18h1.4v-1.8l1.46-.43v2.24h1.82v1.18h-1.82v5.22c0,1.01,.26,1.39,.92,1.39,.36,0,.62-.1,.9-.23v1.18h0Z"/><path class="cls-1" d="M169.72,13.56h1.46v8.85h-1.46V13.56h0Zm1.53-3.64v1.73h-1.6v-1.73h1.6Z"/><path class="cls-1" d="M177.51,22.3c-.35,.12-.83,.23-1.23,.23-1.34,0-2.05-.54-2.05-2.1v-5.69h-1.4v-1.18h1.4v-1.8l1.46-.43v2.24h1.82v1.18h-1.82v5.22c0,1.01,.26,1.39,.92,1.39,.36,0,.62-.1,.9-.23v1.18h0Z"/><path class="cls-1" d="M185.16,20.5c0,.64,.05,1.28,.07,1.91h-1.4l-.05-1.32h-.04c-.47,1.01-1.21,1.44-2.24,1.44-1.54,0-2.58-.89-2.58-2.83v-6.14h1.46v5.71c0,1.41,.52,2.01,1.46,2.01,1.14,0,1.87-.8,1.87-2.39v-5.33h1.46v6.94h0Z"/><path class="cls-1" d="M191.35,22.3c-.35,.12-.83,.23-1.23,.23-1.34,0-2.05-.54-2.05-2.1v-5.69h-1.4v-1.18h1.4v-1.8l1.46-.43v2.24h1.82v1.18h-1.82v5.22c0,1.01,.26,1.39,.92,1.39,.36,0,.62-.1,.9-.23v1.18h0Z"/><path class="cls-1" d="M197.39,17.31c0-1.84-.57-2.76-1.74-2.76-.94,0-1.77,.69-1.8,2.76h3.54Zm-3.54,1.11c0,2.05,.8,3,2.41,3,.73,0,1.53-.37,2.03-.73l.07,1.32c-.69,.33-1.6,.52-2.48,.52-2.34,0-3.56-1.77-3.56-4.55s1.21-4.55,3.42-4.55c2,0,3.11,1.6,3.11,4.2v.78h-5Z"/><path class="cls-1" d="M205.59,14.74h-1.41v-1.18h1.41v-1.98c0-1.44,.66-2.39,2.2-2.39,.4,0,.82,.05,1.15,.14v1.25c-.17-.14-.49-.21-.83-.21-.81,0-1.06,.45-1.06,1.34v1.86h1.6v1.18h-1.6v7.67h-1.46v-7.67h0Z"/><path class="cls-1" d="M213.08,21.35c1.39,0,2.03-1.14,2.03-3.37s-.64-3.37-2.03-3.37-2.03,1.15-2.03,3.37,.64,3.37,2.03,3.37h0Zm0-7.91c2.34,0,3.56,1.77,3.56,4.55s-1.21,4.55-3.56,4.55-3.56-1.77-3.56-4.55,1.21-4.55,3.56-4.55h0Z"/><path class="cls-1" d="M218.49,15.47c0-.64-.05-1.28-.07-1.91h1.4l.05,1.39h.04c.47-1.08,1.21-1.51,2.51-1.51v1.44c-.17-.03-.37-.05-.55-.05-1.13,0-1.93,.97-1.93,2.9v4.68h-1.46v-6.94h0Z"/><path class="cls-1" d="M59.67,36.61l-1.86-6.04h-.03l-1.91,6.04h3.8Zm-.99-7.64l3.96,12.11h-1.6l-.97-3.16h-4.62l-.97,3.16h-1.53l4.06-12.11h1.67Z"/><path class="cls-1" d="M67.27,40.03c1.34,0,1.94-1.15,1.94-3.37s-.61-3.37-1.94-3.37-1.94,1.15-1.94,3.37,.61,3.37,1.94,3.37h0Zm-3.4-6.16c0-.54-.05-1.09-.07-1.63h1.41l.05,1.3h.03c.38-.7,1.04-1.42,2.33-1.42,1.82,0,3.05,1.49,3.05,4.55s-1.23,4.55-3.05,4.55c-1.01,0-1.66-.4-2.26-1.34h-.03v4.96h-1.46v-10.97h0Z"/><path class="cls-1" d="M75.79,40.03c1.34,0,1.94-1.15,1.94-3.37s-.61-3.37-1.94-3.37-1.94,1.15-1.94,3.37,.61,3.37,1.94,3.37h0Zm-3.4-6.16c0-.54-.05-1.09-.07-1.63h1.41l.05,1.3h.03c.38-.7,1.04-1.42,2.33-1.42,1.82,0,3.05,1.49,3.05,4.55s-1.23,4.55-3.05,4.55c-1.01,0-1.66-.4-2.25-1.34h-.04v4.96h-1.46v-10.97h0Z"/><polygon class="cls-1" points="81.18 28.07 82.63 28.07 82.63 41.08 81.18 41.08 81.18 28.07 81.18 28.07"/><path class="cls-1" d="M85.2,32.23h1.46v8.85h-1.46v-8.85h0Zm1.53-3.64v1.74h-1.6v-1.74h1.6Z"/><path class="cls-1" d="M93.72,35.98c0-1.84-.57-2.76-1.73-2.76-.94,0-1.77,.69-1.8,2.76h3.54Zm-3.54,1.11c0,2.05,.8,3,2.41,3,.73,0,1.53-.36,2.03-.73l.07,1.32c-.69,.33-1.6,.52-2.48,.52-2.34,0-3.56-1.77-3.56-4.55s1.21-4.55,3.42-4.55c2,0,3.11,1.6,3.11,4.2v.78h-5Z"/><path class="cls-1" d="M99.93,33.29c-1.34,0-1.94,1.15-1.94,3.37s.61,3.37,1.94,3.37,1.94-1.15,1.94-3.37-.61-3.37-1.94-3.37h0Zm3.4,6.16c0,.54,.05,1.09,.07,1.63h-1.4l-.05-1.3h-.04c-.38,.69-1.04,1.42-2.33,1.42-1.82,0-3.05-1.49-3.05-4.55s1.23-4.55,3.05-4.55c1.01,0,1.67,.4,2.26,1.33h.03v-5.38h1.46v11.38h0Z"/><path class="cls-1" d="M115.09,30.73c-.57-.35-1.32-.56-2.07-.56-1.15,0-1.89,.78-1.89,1.8,0,.78,.31,1.27,2.05,2.27,1.87,1.08,2.5,2.13,2.5,3.52,0,1.93-1.2,3.44-3.52,3.44-.97,0-1.89-.21-2.53-.52v-1.58c.69,.42,1.6,.78,2.31,.78,1.37,0,2.15-.92,2.15-1.91,0-.94-.24-1.48-1.88-2.46-2.19-1.32-2.67-2.07-2.67-3.63,0-2,1.53-3.04,3.37-3.04,.8,0,1.65,.17,2.19,.4v1.48h0Z"/><path class="cls-1" d="M120.46,42.89c-.43,1.51-1.06,2.05-2.17,2.05-.35,0-.73-.04-.99-.1l.07-1.32c.22,.1,.49,.17,.8,.17,.42,0,.73-.19,.97-1.11l.35-1.35-2.79-8.99h1.53l1.98,7.22h.03l1.84-7.22h1.46l-3.07,10.65h0Z"/><path class="cls-1" d="M124.54,39.37c.66,.4,1.35,.66,2.08,.66,1.11,0,1.68-.57,1.68-1.25,0-.61-.31-1.02-1.13-1.39l-.97-.43c-1.27-.57-1.73-1.14-1.73-2.27,0-1.46,1.13-2.57,2.84-2.57,.73,0,1.37,.12,1.87,.31l-.07,1.25c-.45-.21-1.08-.38-1.74-.38-.95,0-1.46,.52-1.46,1.21s.52,1.11,1.49,1.49l.52,.21c1.07,.43,1.75,1.16,1.75,2.26,0,1.53-.82,2.74-2.85,2.74-.92,0-1.75-.19-2.39-.52l.09-1.32h0Z"/><path class="cls-1" d="M135.41,40.98c-.35,.12-.83,.23-1.23,.23-1.34,0-2.05-.54-2.05-2.1v-5.69h-1.41v-1.18h1.41v-1.8l1.46-.43v2.24h1.82v1.18h-1.82v5.22c0,1.01,.26,1.39,.92,1.39,.37,0,.62-.1,.9-.23v1.18h0Z"/><path class="cls-1" d="M141.45,35.98c0-1.84-.57-2.76-1.74-2.76-.94,0-1.77,.69-1.8,2.76h3.54Zm-3.54,1.11c0,2.05,.8,3,2.41,3,.73,0,1.53-.36,2.03-.73l.07,1.32c-.69,.33-1.6,.52-2.48,.52-2.34,0-3.56-1.77-3.56-4.55s1.21-4.55,3.42-4.55c2,0,3.11,1.6,3.11,4.2v.78h-5Z"/><path class="cls-1" d="M144.69,34.14c0-.64-.05-1.28-.07-1.91h1.4l.05,1.32h.03c.47-1.01,1.21-1.44,2.19-1.44s1.63,.49,2.08,1.39c.47-.87,1.15-1.39,2.15-1.39,1.53,0,2.57,.88,2.57,2.83v6.14h-1.46v-6.07c0-1.13-.49-1.65-1.35-1.65-1.08,0-1.67,.66-1.67,2.25v5.47h-1.46v-6.07c0-1.13-.49-1.65-1.36-1.65-1.07,0-1.66,.66-1.66,2.25v5.47h-1.46v-6.94h0Z"/><path class="cls-1" d="M157.01,39.37c.66,.4,1.35,.66,2.08,.66,1.11,0,1.68-.57,1.68-1.25,0-.61-.31-1.02-1.13-1.39l-.97-.43c-1.27-.57-1.73-1.14-1.73-2.27,0-1.46,1.13-2.57,2.85-2.57,.73,0,1.37,.12,1.87,.31l-.07,1.25c-.45-.21-1.08-.38-1.74-.38-.96,0-1.46,.52-1.46,1.21s.52,1.11,1.49,1.49l.52,.21c1.08,.43,1.75,1.16,1.75,2.26,0,1.53-.82,2.74-2.85,2.74-.92,0-1.75-.19-2.39-.52l.09-1.32h0Z"/><path class="cls-1" d="M173.16,36.61l-1.86-6.04h-.04l-1.91,6.04h3.8Zm-.99-7.64l3.96,12.11h-1.6l-.97-3.16h-4.62l-.97,3.16h-1.53l4.06-12.11h1.66Z"/><path class="cls-1" d="M177.49,34.14c0-.64-.05-1.28-.07-1.91h1.4l.05,1.32h.03c.47-1.01,1.21-1.44,2.24-1.44,1.55,0,2.59,.88,2.59,2.83v6.14h-1.46v-5.71c0-1.41-.52-2.01-1.46-2.01-1.15,0-1.88,.8-1.88,2.39v5.33h-1.46v-6.94h0Z"/><path class="cls-1" d="M190.61,36.75c-.26-.04-.63-.04-1.02-.04-1.72,0-2.53,.82-2.53,1.84,0,.94,.49,1.54,1.49,1.54,1.27,0,2.06-1.02,2.06-2.24v-1.11h0Zm-4.23-3.91c.73-.47,1.63-.73,2.5-.73,1.3,0,2.08,.55,2.36,.83,.38,.38,.76,.92,.76,2.17v4.62c0,.52,.03,1.04,.07,1.35h-1.32l-.09-1.2h-.03c-.4,.68-1.13,1.32-2.48,1.32-1.46,0-2.55-.85-2.55-2.55s1.13-2.98,4.16-2.98h.85v-.4c0-.66-.05-1.04-.33-1.42-.3-.4-.87-.56-1.48-.56-.9,0-1.77,.37-2.27,.92l-.16-1.37h0Z"/><polygon class="cls-1" points="194.37 28.07 195.83 28.07 195.83 41.08 194.37 41.08 194.37 28.07 194.37 28.07"/><path class="cls-1" d="M201.03,42.89c-.43,1.51-1.06,2.05-2.17,2.05-.35,0-.73-.04-.99-.1l.07-1.32c.23,.1,.49,.17,.8,.17,.42,0,.73-.19,.97-1.11l.35-1.35-2.79-8.99h1.53l1.98,7.22h.04l1.84-7.22h1.46l-3.07,10.65h0Z"/><path class="cls-1" d="M205.11,39.37c.66,.4,1.35,.66,2.08,.66,1.11,0,1.68-.57,1.68-1.25,0-.61-.31-1.02-1.13-1.39l-.97-.43c-1.26-.57-1.73-1.14-1.73-2.27,0-1.46,1.13-2.57,2.85-2.57,.73,0,1.37,.12,1.88,.31l-.07,1.25c-.45-.21-1.08-.38-1.74-.38-.95,0-1.46,.52-1.46,1.21s.52,1.11,1.49,1.49l.52,.21c1.08,.43,1.75,1.16,1.75,2.26,0,1.53-.82,2.74-2.85,2.74-.92,0-1.75-.19-2.39-.52l.09-1.32h0Z"/><path class="cls-1" d="M212.22,32.23h1.46v8.85h-1.46v-8.85h0Zm1.53-3.64v1.74h-1.6v-1.74h1.6Z"/><path class="cls-1" d="M215.72,39.37c.66,.4,1.35,.66,2.08,.66,1.11,0,1.68-.57,1.68-1.25,0-.61-.31-1.02-1.13-1.39l-.97-.43c-1.27-.57-1.74-1.14-1.74-2.27,0-1.46,1.13-2.57,2.85-2.57,.73,0,1.37,.12,1.87,.31l-.07,1.25c-.45-.21-1.08-.38-1.74-.38-.95,0-1.46,.52-1.46,1.21s.52,1.11,1.49,1.49l.52,.21c1.08,.43,1.75,1.16,1.75,2.26,0,1.53-.82,2.74-2.85,2.74-.92,0-1.75-.19-2.39-.52l.09-1.32h0Z"/><path class="cls-1" d="M25.82,8.22c-6.76,0-12.63,3.82-15.59,9.41h31.17c-2.95-5.59-8.82-9.4-15.58-9.41h0Z"/><path class="cls-1" d="M43.42,25.14c-.05-1.3-.23-2.55-.55-3.76l-32.63-3.75c-1.3,2.46-2.04,5.25-2.04,8.22,0,1.53,.2,3.02,.56,4.44l16.35,1.89v-7.04h18.3Z"/><path class="cls-1" d="M10.23,34.07c2.85,5.39,8.42,9.12,14.88,9.37v-9.38H10.23Z"/><path class="cls-1" d="M41.41,34.06c1.19-2.26,1.9-4.8,2.01-7.51H26.53v5.79l14.88,1.72h0Z"/><path class="cls-1" d="M41.41,34.06h-14.88v9.38c6.46-.25,12.03-3.98,14.88-9.38h0Z"/><polygon class="cls-1" points="2.02 44.44 .78 44.44 .78 .79 43.42 .79 43.42 2.03 2.02 2.03 2.02 44.44 2.02 44.44"/><polygon class="cls-1" points=".83 50.46 2.07 50.46 2.07 62.63 .83 62.63 .83 50.46 .83 50.46"/><polygon class="cls-1" points="10.88 50.46 12.12 50.46 12.12 62.63 10.88 62.63 10.88 50.46 10.88 50.46"/><path class="cls-1" d="M22.25,58.47l-.68-5.1h-.03l-.68,5.1h1.38Zm-1.33-8.09h1.28l1.8,12.24h-1.2l-.35-2.7h-1.79l-.38,2.7h-1.2l1.82-12.24h0Z"/><path class="cls-1" d="M30.03,60.7c.35,.42,.72,.67,1.08,.67,.52,0,.94-.53,.94-1.19,0-1.88-2.08-4.61-2.08-7.1,0-1.64,.81-2.79,1.96-2.79,.35,0,.64,.09,1.04,.33v1.47c-.38-.27-.58-.38-.87-.38-.61,0-.94,.38-.94,1.17,0,1.93,2.08,4.55,2.08,7.11,0,1.66-.81,2.81-1.99,2.81-.43,0-.81-.15-1.23-.47v-1.62h0Z"/><path class="cls-1" d="M42.36,58.47l-.68-5.1h-.03l-.68,5.1h1.39Zm-1.33-8.09h1.29l1.8,12.24h-1.2l-.35-2.7h-1.79l-.38,2.7h-1.2l1.82-12.24h0Z"/></g></g></svg>
