<?xml version="1.0" encoding="UTF-8" standalone="no"?><!DOCTYPE svg PUBLIC "-//W3C//DTD SVG 1.1//EN" "http://www.w3.org/Graphics/SVG/1.1/DTD/svg11.dtd"><svg width="100%" height="100%" viewBox="0 0 151 29" version="1.1" xmlns="http://www.w3.org/2000/svg" xmlns:xlink="http://www.w3.org/1999/xlink" xml:space="preserve" xmlns:serif="http://www.serif.com/" style="fill-rule:evenodd;clip-rule:evenodd;stroke-linejoin:round;stroke-miterlimit:2;"><path d="M63.53,17.984l0.001,-17.984l-8.613,0l-0,4.641l2.041,0.495l-0,1.089c-0.587,-0.156 -1.21,-0.235 -1.871,-0.235c-1.202,-0 -2.263,0.205 -3.19,0.589c-0.984,0.39 -1.833,0.972 -2.548,1.747c-0.637,0.681 -1.162,1.528 -1.55,2.546c-0.407,-1.03 -0.967,-1.904 -1.661,-2.626c-0.746,-0.78 -1.66,-1.361 -2.751,-1.73c-0.973,-0.345 -2.065,-0.526 -3.279,-0.526c-1.225,-0 -2.315,0.185 -3.274,0.534c-1.03,0.364 -1.941,0.952 -2.728,1.772c-0.697,0.724 -1.268,1.617 -1.693,2.691c-0.41,-1.08 -0.985,-1.992 -1.705,-2.741c-0.746,-0.78 -1.66,-1.361 -2.751,-1.73c-0.973,-0.345 -2.065,-0.526 -3.279,-0.526c-1.225,-0 -2.315,0.185 -3.274,0.534c-0.924,0.326 -1.751,0.833 -2.479,1.525l-0,-6.487l-18.926,0.001l0,4.728l2.492,0.547c0,-0 0,12.169 0,12.169c0,0 -2.492,0.625 -2.492,0.625l0,4.681l12.245,-0l-0,-4.957l-3.102,-0.495c0,0 0,-3.116 0,-3.116c0,-0 0.738,-0 0.738,-0c0,-0 0.451,2.656 0.451,2.656l5.041,0l0,-7.266l1.554,0c-0.06,0.158 -0.116,0.32 -0.17,0.485c-0.398,1.22 -0.6,2.5 -0.6,3.844c0,1.338 0.197,2.581 0.58,3.731l0.007,0.021c0.442,1.234 1.057,2.251 1.835,3.083l0.007,0.007c0.746,0.782 1.642,1.367 2.702,1.755l0.019,0.007c0.969,0.332 2.05,0.505 3.266,0.505c1.241,-0 2.348,-0.185 3.323,-0.533c1.093,-0.39 2.008,-0.993 2.753,-1.797c0.683,-0.729 1.241,-1.615 1.661,-2.669c0.429,1.075 0.998,1.975 1.699,2.725l0.007,0.007c0.746,0.782 1.642,1.367 2.702,1.755l0.019,0.007c0.97,0.332 2.051,0.505 3.266,0.505c1.241,-0 2.348,-0.185 3.324,-0.533c1.092,-0.39 2.007,-0.993 2.753,-1.797c0.687,-0.735 1.249,-1.629 1.67,-2.694c0.409,1.028 0.93,1.909 1.561,2.664c0.705,0.847 1.591,1.467 2.662,1.851l-0,0c0.926,0.333 1.964,0.509 3.115,0.509c0.909,-0 1.749,-0.138 2.523,-0.405l0.052,0.523l7.909,-0.501l-0,-0.995c0.055,0.038 0.111,0.076 0.168,0.114c1.236,0.809 2.847,1.264 4.86,1.264c1.401,-0 2.636,-0.217 3.708,-0.626c1.235,-0.47 2.192,-1.169 2.897,-2.06l0.009,-0.01c0.313,-0.406 0.564,-0.841 0.752,-1.305l0.024,0.044c0.694,1.293 1.667,2.285 2.9,2.974l0.02,0.011c1.207,0.638 2.593,0.972 4.19,0.972c1.606,-0 3.002,-0.347 4.195,-1.001l0.013,-0.007c0.753,-0.427 1.451,-0.984 2.092,-1.68c0.254,0.475 0.585,0.897 0.986,1.269l-0,-0c0.971,0.901 2.284,1.419 3.985,1.419c1.391,-0 2.688,-0.337 3.891,-1.009l0.151,-0.088c0.546,0.685 1.365,1.097 2.532,1.097c0.88,-0 2.122,-0.269 3.706,-0.895l0.077,-0.031l-0,0.217c0,0 -2.042,0.495 -2.042,0.495l0,4.641l11.185,0l0,-4.72l-0.002,-0c2.112,-0.166 3.745,-0.98 4.937,-2.338c0.591,-0.669 1.089,-1.46 1.483,-2.379c0.109,0.303 0.232,0.594 0.369,0.873l0.002,0.005c0.686,1.37 1.677,2.407 2.968,3.125l0.012,0.007c1.224,0.658 2.616,1 4.194,1c1.854,-0 3.356,-0.438 4.531,-1.222c0.831,-0.555 1.565,-1.199 2.204,-1.931c0.386,0.726 0.98,1.357 1.791,1.888c1.235,0.809 2.847,1.265 4.861,1.265c1.401,-0 2.634,-0.217 3.707,-0.626c1.234,-0.47 2.192,-1.169 2.898,-2.059l0.008,-0.011c0.768,-0.997 1.166,-2.163 1.166,-3.523c0,-1.109 -0.26,-2.03 -0.712,-2.778c-0.301,-0.499 -0.672,-0.942 -1.114,-1.327c0.158,-0.135 0.304,-0.289 0.439,-0.459l0.017,-0.022c0.494,-0.66 0.787,-1.483 0.787,-2.523c0,-1.698 -0.697,-3.033 -2.09,-4.002c-1.101,-0.793 -2.589,-1.253 -4.497,-1.253c-2.208,-0 -3.913,0.579 -5.159,1.594c-0.859,0.698 -1.461,1.536 -1.798,2.52c-0.309,-0.665 -0.702,-1.257 -1.171,-1.778c-1.329,-1.512 -3.196,-2.336 -5.656,-2.336c-2.607,-0 -4.656,0.925 -6.183,2.701l-0.005,0.006c-0.557,0.659 -1.015,1.419 -1.365,2.285c-0.364,-0.998 -0.851,-1.867 -1.442,-2.603c-0.686,-0.857 -1.578,-1.49 -2.687,-1.881c-0.925,-0.333 -1.963,-0.508 -3.115,-0.508c-1.115,-0 -2.127,0.197 -3.04,0.576l-0.063,-0.316l-7.46,0l0,3.16c-0.32,-0.624 -0.702,-1.146 -1.134,-1.571c-0.626,-0.615 -1.389,-1.085 -2.298,-1.396c-0.784,-0.294 -1.678,-0.453 -2.657,-0.453c-1.002,-0 -2.005,0.161 -3.008,0.49l-0.006,0.002c-1.095,0.366 -1.991,0.913 -2.708,1.617c-0.384,0.377 -0.688,0.79 -0.91,1.238c-0.101,-0.188 -0.213,-0.371 -0.336,-0.549c-0.608,-0.903 -1.465,-1.616 -2.596,-2.109c-0.958,-0.443 -2.113,-0.689 -3.456,-0.689c-1.754,-0 -3.287,0.42 -4.609,1.223c-1.346,0.8 -2.395,1.925 -3.138,3.385l-0.006,0.011c-0.017,0.035 -0.034,0.071 -0.051,0.106c-0.133,-1.448 -0.821,-2.606 -2.067,-3.472c-1.101,-0.793 -2.588,-1.253 -4.496,-1.253c-2.209,-0 -3.914,0.579 -5.159,1.594c-1.398,1.136 -2.117,2.645 -2.117,4.546c0,1.406 0.392,2.519 1.066,3.374c0.059,0.075 0.121,0.149 0.184,0.221c-0.369,0.205 -0.69,0.484 -0.968,0.83l-0.004,0.005c-0.307,0.388 -0.546,0.858 -0.682,1.424Zm79.484,0.448c0.004,0.069 0.006,0.138 0.006,0.209c0,0.245 -0.023,0.486 -0.071,0.722c0.123,0.008 0.249,0.012 0.378,0.012c0.524,0 0.964,-0.058 1.307,-0.268c-0.186,-0.134 -0.413,-0.241 -0.69,-0.34l-0.034,-0.014c-0.293,-0.117 -0.589,-0.223 -0.896,-0.321Zm-72.62,0c0.004,0.069 0.006,0.138 0.006,0.209c-0,0.245 -0.024,0.486 -0.071,0.722c0.122,0.008 0.248,0.012 0.377,0.012c0.525,0 0.965,-0.058 1.308,-0.268c-0.186,-0.134 -0.413,-0.241 -0.689,-0.34l-0.034,-0.014c-0.294,-0.117 -0.59,-0.223 -0.897,-0.321Zm74.353,0.763c0.005,0.005 0.01,0.009 0.016,0.013c0.005,0.004 0.01,0.009 0.015,0.013l-0.031,-0.026Zm-72.623,-0.002c0.006,0.004 0.011,0.009 0.017,0.014c0.006,0.004 0.011,0.009 0.017,0.014l-0.034,-0.028Zm-33.7,-4.016c-0,-1.586 0.14,-2.767 0.607,-3.508c0.211,-0.291 0.577,-0.325 1.025,-0.325c0.262,-0 0.484,0.005 0.649,0.1l0.042,0.024c0.166,0.084 0.26,0.185 0.34,0.31c0.196,0.32 0.326,0.739 0.429,1.246l0.004,0.021c0.153,0.676 0.221,1.441 0.221,2.314c-0,0.894 -0.064,1.685 -0.2,2.37l-0.004,0.021c-0.081,0.455 -0.172,0.81 -0.339,1.063c-0.249,0.324 -0.638,0.406 -1.116,0.406c-0.249,-0 -0.461,-0.005 -0.624,-0.086c-0.157,-0.098 -0.281,-0.223 -0.393,-0.373c-0.19,-0.338 -0.329,-0.745 -0.443,-1.224c-0.137,-0.685 -0.198,-1.464 -0.198,-2.359Zm-15.43,0c-0,-1.586 0.14,-2.767 0.607,-3.508c0.211,-0.291 0.577,-0.325 1.025,-0.325c0.262,-0 0.483,0.005 0.649,0.1l0.042,0.024c0.166,0.084 0.26,0.185 0.34,0.31c0.196,0.32 0.325,0.739 0.429,1.246l0.004,0.021c0.153,0.676 0.221,1.441 0.221,2.314c-0,0.894 -0.064,1.685 -0.2,2.37l-0.005,0.021c-0.08,0.455 -0.171,0.81 -0.338,1.063c-0.249,0.324 -0.638,0.406 -1.116,0.406c-0.249,-0 -0.461,-0.005 -0.624,-0.086c-0.157,-0.098 -0.281,-0.223 -0.393,-0.373c-0.19,-0.338 -0.329,-0.745 -0.443,-1.224c-0.138,-0.685 -0.198,-1.464 -0.198,-2.359Zm33.965,0.208c-0,0.904 -0.062,1.691 -0.198,2.358c-0.103,0.497 -0.236,0.91 -0.431,1.226l-0.017,0.027c-0.036,0.063 -0.073,0.083 -0.114,0.102c-0.224,0.095 -0.488,0.121 -0.792,0.121c-0.237,-0 -0.44,-0.007 -0.598,-0.087c-0.157,-0.097 -0.281,-0.221 -0.393,-0.372c-0.188,-0.336 -0.317,-0.745 -0.417,-1.225c-0.136,-0.667 -0.198,-1.444 -0.198,-2.332c0,-0.91 0.058,-1.714 0.181,-2.412l0.001,-0.003c0.078,-0.447 0.159,-0.802 0.332,-1.038l0.01,-0.013c0.085,-0.119 0.179,-0.202 0.293,-0.26c0.228,-0.1 0.48,-0.133 0.762,-0.133c0.242,-0 0.445,-0.007 0.591,0.081l0.027,0.016c0.154,0.086 0.248,0.202 0.335,0.34c0.195,0.317 0.324,0.736 0.427,1.243l0.001,-0c0.136,0.668 0.198,1.456 0.198,2.361Zm42.198,2.168c-0.244,0.077 -0.469,0.157 -0.673,0.239l-0.017,0.007c-0.378,0.145 -0.68,0.263 -0.848,0.488l-0.011,0.015c-0.083,0.107 -0.086,0.253 -0.086,0.417c0,0.128 -0.012,0.245 0.003,0.342c0.21,-0.007 0.425,-0.073 0.654,-0.177c0.266,-0.129 0.492,-0.301 0.673,-0.52c0.107,-0.133 0.177,-0.291 0.231,-0.492l0.074,-0.319Zm6.158,-6.51c0.309,1.107 0.479,2.421 0.479,3.952l0,4.041l0.934,0l0,-7.65l-1.413,-0.343Zm7.958,4.004c0,-0.851 0.058,-1.589 0.188,-2.212c0.12,-0.515 0.256,-0.929 0.442,-1.242c0.032,-0.05 0.075,-0.08 0.126,-0.101l0.015,-0.007c0.236,-0.107 0.493,-0.141 0.781,-0.141c0.241,-0 0.444,-0.007 0.59,0.08l0.087,0.05c0.125,0.066 0.219,0.175 0.303,0.307c0.194,0.317 0.328,0.723 0.431,1.209c0.134,0.629 0.195,1.376 0.195,2.239c0,0.873 -0.058,1.649 -0.18,2.326c-0.076,0.418 -0.162,0.756 -0.33,0.99c-0.093,0.124 -0.215,0.217 -0.359,0.292c-0.209,0.095 -0.444,0.121 -0.71,0.121c-0.237,0 -0.441,-0.007 -0.6,-0.087c-0.151,-0.094 -0.268,-0.221 -0.368,-0.374c-0.192,-0.3 -0.315,-0.695 -0.415,-1.175c-0.135,-0.648 -0.196,-1.407 -0.196,-2.275Zm20.04,2.39l-4.714,0c0.038,0.124 0.08,0.243 0.129,0.361c0.151,0.334 0.337,0.597 0.613,0.743c0.364,0.193 0.759,0.287 1.182,0.287c0.508,0 0.975,-0.091 1.406,-0.294c0.47,-0.24 0.89,-0.564 1.264,-0.968l0.12,-0.129Zm-40.988,-3.658c-0.145,0.386 -0.338,0.717 -0.563,0.995c-0.619,0.797 -1.524,1.283 -2.791,1.283c-1.066,0 -1.904,-0.35 -2.573,-0.969l-0.022,-0.021c-0.648,-0.636 -1.023,-1.472 -1.023,-2.546c0,-0.428 0.06,-0.827 0.176,-1.199c-0.591,0.024 -1.059,0.165 -1.347,0.565c-0.473,0.669 -0.608,1.736 -0.608,3.16c0,0.708 0.039,1.324 0.13,1.869c0.078,0.368 0.18,0.689 0.322,0.961c0.17,0.304 0.387,0.546 0.665,0.712l0,-0c0.294,0.174 0.645,0.239 1.045,0.239c0.518,0 1.013,-0.111 1.486,-0.332c0.472,-0.221 0.876,-0.537 1.214,-0.946l1.243,-1.506l1.477,1.161c0.394,-1.022 1.114,-1.901 2.179,-2.625c-0.307,-0.16 -0.591,-0.37 -0.854,-0.629l-0.023,-0.023c-0.046,-0.048 -0.09,-0.098 -0.133,-0.149Zm-15.45,0.152c-0.101,0.115 -0.208,0.221 -0.322,0.318c0.093,0.081 0.183,0.164 0.269,0.25c0.013,-0.192 0.031,-0.382 0.053,-0.568Zm21.589,-2.659c0.009,0.097 0.013,0.192 0.013,0.285c-0,0.423 -0.063,0.811 -0.186,1.164c0.216,-0.048 0.438,-0.094 0.665,-0.139l-0.06,-0.315c-0.074,-0.342 -0.152,-0.621 -0.271,-0.834l-0.004,-0.006c-0.033,-0.061 -0.072,-0.113 -0.157,-0.155Zm32.424,0.89c-0.058,-0.191 -0.142,-0.36 -0.259,-0.505l-0.009,-0.011c-0.163,-0.208 -0.424,-0.25 -0.733,-0.25c-0.514,-0 -0.847,0.284 -1.069,0.766l2.07,-0Zm-59.892,-0.972c-0.363,0.006 -0.661,0.035 -0.885,0.169l-0.003,0.042l0.002,0.026c0.081,0.049 0.179,0.091 0.285,0.136c0.174,0.073 0.363,0.147 0.566,0.22l-0.001,-0.069c-0,-0.18 0.012,-0.354 0.036,-0.524Zm72.62,-0c-0.363,0.006 -0.66,0.035 -0.884,0.169l-0.003,0.042l0.002,0.026c0.081,0.05 0.178,0.091 0.285,0.136c0.173,0.073 0.362,0.147 0.566,0.22l-0.002,-0.069c0,-0.18 0.012,-0.354 0.036,-0.524Zm-130.501,-3.664l-0.095,-0.453c0,-0 -3.877,-0 -3.877,-0c0,-0 0,3.109 0,3.109c0,0 0.738,0 0.738,0l0.451,-2.656l2.783,0Z" style="fill:#edf2ef;fill-opacity:0.5;"/><path d="M111.299,25.438l2.572,0.494l-0,1.068l-7.185,0l0,-1.068l2.042,-0.494l-0,-15.625l-2.042,-0.495l0,-1.068l3.818,0l0.398,2.005c0.565,-0.868 1.201,-1.458 1.908,-1.771c0.725,-0.329 1.538,-0.494 2.439,-0.494c0.902,-0 1.715,0.13 2.439,0.39c0.743,0.261 1.344,0.677 1.803,1.25c0.53,0.66 0.946,1.459 1.246,2.396c0.318,0.92 0.477,1.918 0.477,2.995c0,1.111 -0.176,2.161 -0.53,3.151c-0.336,0.972 -0.795,1.788 -1.379,2.448c-0.989,1.128 -2.412,1.692 -4.268,1.692c-0.76,0 -1.449,-0.138 -2.068,-0.416c-0.601,-0.295 -1.157,-0.799 -1.67,-1.511l0,5.052Zm-64.721,-10.286c-0,1.128 -0.177,2.205 -0.531,3.229c-0.335,1.007 -0.813,1.84 -1.431,2.5c-0.53,0.573 -1.184,0.998 -1.962,1.276c-0.778,0.278 -1.661,0.417 -2.651,0.417c-0.972,-0 -1.838,-0.13 -2.598,-0.391c-0.76,-0.278 -1.405,-0.694 -1.936,-1.25c-0.6,-0.642 -1.069,-1.432 -1.405,-2.37c-0.318,-0.954 -0.477,-1.987 -0.477,-3.099c0,-1.128 0.168,-2.204 0.504,-3.229c0.336,-1.041 0.822,-1.892 1.458,-2.552c0.566,-0.59 1.22,-1.015 1.962,-1.276c0.76,-0.278 1.626,-0.416 2.598,-0.416c0.972,-0 1.847,0.138 2.624,0.416c0.778,0.261 1.432,0.669 1.962,1.224c0.619,0.643 1.087,1.45 1.405,2.422c0.318,0.955 0.478,1.988 0.478,3.099Zm2.439,0.26c0,-1.128 0.151,-2.204 0.451,-3.229c0.301,-1.024 0.751,-1.857 1.352,-2.5c0.513,-0.555 1.122,-0.972 1.829,-1.25c0.707,-0.295 1.52,-0.442 2.439,-0.442c0.778,-0 1.485,0.147 2.121,0.442c0.654,0.295 1.237,0.825 1.75,1.589l-0,-6.459l-2.041,-0.494l-0,-1.068l4.613,-0l-0,18.75l2.041,0.495l-0,1.067l-4.109,0.261l-0.212,-2.136c-0.548,0.799 -1.167,1.355 -1.856,1.667c-0.689,0.313 -1.458,0.469 -2.307,0.469c-0.901,-0 -1.714,-0.13 -2.439,-0.391c-0.724,-0.26 -1.325,-0.677 -1.802,-1.25c-0.566,-0.677 -1.017,-1.484 -1.352,-2.422c-0.319,-0.954 -0.478,-1.987 -0.478,-3.099Zm21.689,5.964c0.99,-0 1.794,-0.2 2.413,-0.599c0.636,-0.399 0.954,-0.955 0.954,-1.667c0,-0.573 -0.194,-1.033 -0.583,-1.38c-0.389,-0.347 -0.875,-0.625 -1.458,-0.833c-0.566,-0.226 -1.14,-0.417 -1.723,-0.573c-0.725,-0.226 -1.423,-0.486 -2.095,-0.781c-0.671,-0.313 -1.219,-0.738 -1.643,-1.276c-0.424,-0.539 -0.637,-1.25 -0.637,-2.136c0,-1.25 0.46,-2.248 1.379,-2.995c0.937,-0.763 2.236,-1.145 3.897,-1.145c1.414,-0 2.528,0.295 3.341,0.885c0.83,0.573 1.246,1.363 1.246,2.37c-0,0.538 -0.124,0.972 -0.372,1.302c-0.247,0.312 -0.601,0.469 -1.06,0.469c-0.407,-0 -0.742,-0.122 -1.007,-0.365c-0.266,-0.243 -0.398,-0.556 -0.398,-0.938c-0,-0.329 0.088,-0.625 0.265,-0.885c0.177,-0.278 0.406,-0.477 0.689,-0.599c-0.265,-0.364 -0.609,-0.625 -1.034,-0.781c-0.406,-0.174 -0.936,-0.261 -1.59,-0.261c-1.061,0 -1.856,0.191 -2.386,0.573c-0.531,0.365 -0.796,0.912 -0.796,1.641c0,0.521 0.124,0.937 0.372,1.25c0.265,0.295 0.645,0.547 1.139,0.755c0.495,0.209 1.105,0.426 1.83,0.651c0.601,0.174 1.193,0.374 1.776,0.599c0.583,0.209 1.113,0.469 1.591,0.781c0.477,0.313 0.857,0.704 1.14,1.172c0.282,0.469 0.424,1.051 0.424,1.745c-0,0.886 -0.248,1.649 -0.743,2.292c-0.494,0.625 -1.175,1.102 -2.041,1.432c-0.866,0.33 -1.864,0.495 -2.996,0.495c-1.555,-0 -2.81,-0.313 -3.764,-0.938c-0.955,-0.625 -1.432,-1.467 -1.432,-2.526c0,-0.555 0.124,-0.989 0.371,-1.302c0.266,-0.33 0.637,-0.495 1.114,-0.495c0.424,0 0.778,0.122 1.06,0.365c0.301,0.243 0.451,0.564 0.451,0.964c-0,0.329 -0.097,0.642 -0.292,0.937c-0.176,0.295 -0.397,0.512 -0.662,0.651c0.229,0.33 0.636,0.608 1.219,0.833c0.601,0.209 1.281,0.313 2.041,0.313Zm72.621,-0c0.989,-0 1.794,-0.2 2.412,-0.599c0.636,-0.399 0.955,-0.955 0.955,-1.667c0,-0.573 -0.195,-1.033 -0.584,-1.38c-0.389,-0.347 -0.875,-0.625 -1.458,-0.833c-0.565,-0.226 -1.14,-0.417 -1.723,-0.573c-0.725,-0.226 -1.423,-0.486 -2.094,-0.781c-0.672,-0.313 -1.22,-0.738 -1.644,-1.276c-0.424,-0.539 -0.636,-1.25 -0.636,-2.136c0,-1.25 0.459,-2.248 1.378,-2.995c0.937,-0.763 2.236,-1.145 3.897,-1.145c1.414,-0 2.528,0.295 3.341,0.885c0.83,0.573 1.246,1.363 1.246,2.37c0,0.538 -0.124,0.972 -0.371,1.302c-0.248,0.312 -0.601,0.469 -1.061,0.469c-0.406,-0 -0.742,-0.122 -1.007,-0.365c-0.265,-0.243 -0.398,-0.556 -0.398,-0.938c0,-0.329 0.088,-0.624 0.265,-0.885c0.177,-0.278 0.407,-0.477 0.689,-0.599c-0.265,-0.364 -0.609,-0.625 -1.033,-0.781c-0.407,-0.174 -0.937,-0.26 -1.591,-0.26c-1.061,-0 -1.856,0.19 -2.386,0.572c-0.53,0.365 -0.795,0.912 -0.795,1.641c0,0.521 0.123,0.938 0.371,1.25c0.265,0.295 0.645,0.547 1.14,0.755c0.495,0.209 1.104,0.426 1.829,0.651c0.601,0.174 1.193,0.374 1.776,0.599c0.583,0.209 1.114,0.469 1.591,0.782c0.477,0.312 0.857,0.703 1.14,1.171c0.283,0.469 0.424,1.051 0.424,1.745c0,0.886 -0.247,1.649 -0.742,2.292c-0.495,0.625 -1.176,1.102 -2.042,1.432c-0.866,0.33 -1.864,0.495 -2.995,0.495c-1.556,-0 -2.811,-0.313 -3.765,-0.938c-0.954,-0.625 -1.432,-1.467 -1.432,-2.526c0,-0.555 0.124,-0.989 0.372,-1.302c0.265,-0.33 0.636,-0.495 1.113,-0.495c0.424,0 0.778,0.122 1.061,0.365c0.3,0.243 0.45,0.564 0.45,0.964c0,0.33 -0.097,0.642 -0.291,0.937c-0.177,0.295 -0.398,0.512 -0.663,0.651c0.23,0.33 0.636,0.608 1.219,0.834c0.601,0.208 1.282,0.312 2.042,0.312Zm-50.535,-2.109c-0,-1.354 0.645,-2.422 1.935,-3.203c1.29,-0.782 3.429,-1.389 6.416,-1.823c-0.071,-1.025 -0.168,-1.823 -0.292,-2.396c-0.124,-0.573 -0.283,-1.033 -0.477,-1.38c-0.248,-0.452 -0.592,-0.782 -1.034,-0.99c-0.442,-0.226 -0.919,-0.339 -1.432,-0.339c-0.495,0 -0.945,0.087 -1.352,0.261c-0.389,0.173 -0.654,0.408 -0.795,0.703c0.247,0.174 0.424,0.399 0.53,0.677c0.124,0.278 0.186,0.538 0.186,0.781c-0,0.434 -0.151,0.782 -0.451,1.042c-0.283,0.243 -0.636,0.365 -1.06,0.365c-0.425,-0 -0.778,-0.139 -1.061,-0.417c-0.265,-0.278 -0.398,-0.668 -0.398,-1.172c0,-0.729 0.257,-1.345 0.769,-1.849c0.513,-0.503 1.158,-0.885 1.936,-1.146c0.795,-0.26 1.59,-0.39 2.386,-0.39c0.724,-0 1.387,0.112 1.988,0.338c0.618,0.208 1.14,0.521 1.564,0.938c1.096,1.076 1.644,2.986 1.644,5.729l0,3.776c0,0.851 0.053,1.441 0.159,1.771c0.123,0.33 0.38,0.495 0.769,0.495l1.193,-0l0,0.781c-1.273,0.503 -2.263,0.755 -2.97,0.755c-0.548,-0 -0.919,-0.191 -1.113,-0.573c-0.177,-0.399 -0.265,-1.154 -0.265,-2.266l-0.106,0c-0.548,0.886 -1.273,1.58 -2.174,2.084c-0.901,0.503 -1.874,0.755 -2.916,0.755c-1.114,-0 -1.989,-0.295 -2.625,-0.885c-0.636,-0.591 -0.954,-1.398 -0.954,-2.422Zm-7.215,-11.276c1.025,-0 1.909,0.173 2.651,0.52c0.76,0.33 1.344,0.799 1.75,1.407c0.424,0.607 0.636,1.319 0.636,2.135c0,0.642 -0.141,1.137 -0.424,1.485c-0.265,0.347 -0.672,0.52 -1.219,0.52c-0.495,0 -0.893,-0.139 -1.193,-0.416c-0.283,-0.278 -0.425,-0.651 -0.425,-1.12c0,-0.434 0.115,-0.807 0.345,-1.12c0.248,-0.312 0.574,-0.529 0.981,-0.651c-0.265,-0.503 -0.645,-0.868 -1.14,-1.094c-0.477,-0.225 -1.078,-0.338 -1.803,-0.338c-1.449,-0 -2.509,0.468 -3.181,1.406c-0.654,0.92 -0.981,2.361 -0.981,4.323c0,0.851 0.053,1.588 0.159,2.213c0.124,0.608 0.3,1.129 0.53,1.563c0.354,0.642 0.822,1.137 1.405,1.484c0.584,0.348 1.273,0.521 2.068,0.521c0.813,0 1.591,-0.173 2.333,-0.521c0.742,-0.347 1.379,-0.842 1.909,-1.484l0.795,0.625c-0.707,1.059 -1.52,1.849 -2.439,2.37c-0.919,0.503 -1.997,0.755 -3.234,0.755c-1.237,-0 -2.315,-0.243 -3.234,-0.729c-0.902,-0.504 -1.609,-1.233 -2.121,-2.188c-0.637,-1.163 -0.955,-2.569 -0.955,-4.218c0,-1.511 0.274,-2.822 0.822,-3.933c0.566,-1.111 1.361,-1.97 2.386,-2.578c1.025,-0.625 2.218,-0.937 3.579,-0.937Zm-54.43,7.161c0,1.129 -0.176,2.205 -0.53,3.229c-0.336,1.007 -0.813,1.841 -1.432,2.5c-0.53,0.573 -1.184,0.999 -1.961,1.276c-0.778,0.278 -1.662,0.417 -2.651,0.417c-0.973,-0 -1.839,-0.13 -2.599,-0.391c-0.759,-0.277 -1.405,-0.694 -1.935,-1.25c-0.601,-0.642 -1.069,-1.432 -1.405,-2.369c-0.318,-0.955 -0.477,-1.988 -0.477,-3.099c-0,-1.129 0.168,-2.205 0.504,-3.23c0.335,-1.041 0.821,-1.892 1.458,-2.552c0.565,-0.59 1.219,-1.015 1.962,-1.276c0.76,-0.278 1.626,-0.416 2.598,-0.416c0.972,-0 1.847,0.138 2.624,0.416c0.778,0.261 1.432,0.669 1.962,1.224c0.619,0.643 1.087,1.45 1.405,2.422c0.318,0.955 0.477,1.988 0.477,3.099Zm104.466,0.287l-9.252,-0c-0,1.267 0.177,2.317 0.53,3.151c0.354,0.798 0.858,1.371 1.511,1.718c0.654,0.348 1.361,0.521 2.121,0.521c0.831,0 1.591,-0.165 2.28,-0.495c0.69,-0.347 1.308,-0.816 1.856,-1.406l0.848,0.625c-0.618,0.833 -1.369,1.545 -2.253,2.136c-0.884,0.59 -2.024,0.885 -3.42,0.885c-1.219,-0 -2.298,-0.252 -3.234,-0.755c-0.937,-0.521 -1.653,-1.276 -2.148,-2.266c-0.265,-0.538 -0.459,-1.137 -0.583,-1.797c-0.124,-0.659 -0.185,-1.363 -0.185,-2.109c-0,-2.431 0.565,-4.314 1.696,-5.651c1.149,-1.337 2.704,-2.005 4.666,-2.005c1.803,-0 3.19,0.555 4.162,1.666c0.99,1.094 1.485,2.613 1.485,4.558c-0,0.173 -0.009,0.338 -0.027,0.494c-0,0.139 -0.017,0.382 -0.053,0.73Zm-122.24,0.963l-1.352,0l-0.451,-2.656l-4.427,-0l0,6.823l3.102,0.495l-0,1.25l-8.245,-0l-0,-1.12l2.492,-0.625l0,-15.339l-2.492,-0.547l-0,-1.119l14.926,-0l-0,5.572l-1.432,0l-0.848,-4.062l-7.503,-0l0,7.109l4.427,0l0.451,-2.656l1.352,0l0,6.875Zm45.586,-1.016c-0,-1.059 -0.08,-1.979 -0.239,-2.76c-0.159,-0.781 -0.389,-1.415 -0.689,-1.901c-0.283,-0.451 -0.627,-0.79 -1.034,-1.016c-0.406,-0.243 -0.945,-0.364 -1.617,-0.364c-0.601,-0 -1.131,0.104 -1.591,0.312c-0.442,0.209 -0.804,0.512 -1.087,0.912c-0.318,0.434 -0.548,1.059 -0.689,1.875c-0.141,0.798 -0.212,1.719 -0.212,2.76c-0,1.042 0.079,1.953 0.239,2.735c0.159,0.763 0.388,1.397 0.689,1.901c0.3,0.434 0.654,0.772 1.06,1.015c0.424,0.243 0.963,0.365 1.617,0.365c0.619,-0 1.149,-0.096 1.591,-0.287c0.46,-0.208 0.804,-0.512 1.034,-0.911c0.3,-0.486 0.53,-1.111 0.689,-1.875c0.159,-0.781 0.239,-1.702 0.239,-2.761Zm-22.535,-0.208c-0,1.059 0.079,1.979 0.238,2.761c0.177,0.763 0.416,1.397 0.716,1.901c0.301,0.434 0.654,0.772 1.061,1.015c0.424,0.243 0.972,0.365 1.643,0.365c1.22,-0 2.13,-0.408 2.731,-1.224c0.318,-0.452 0.548,-1.077 0.689,-1.875c0.159,-0.799 0.239,-1.719 0.239,-2.761c-0,-1.041 -0.089,-1.953 -0.265,-2.734c-0.159,-0.781 -0.389,-1.415 -0.69,-1.901c-0.282,-0.451 -0.645,-0.79 -1.087,-1.016c-0.424,-0.243 -0.972,-0.364 -1.643,-0.364c-1.237,-0 -2.13,0.399 -2.678,1.198c-0.636,0.972 -0.954,2.517 -0.954,4.635Zm-15.43,0c-0,1.059 0.079,1.979 0.238,2.761c0.177,0.763 0.416,1.397 0.716,1.901c0.3,0.434 0.654,0.772 1.06,1.015c0.425,0.243 0.972,0.365 1.644,0.365c1.22,-0 2.13,-0.408 2.731,-1.224c0.318,-0.452 0.548,-1.077 0.689,-1.875c0.159,-0.799 0.239,-1.719 0.239,-2.761c-0,-1.041 -0.089,-1.953 -0.266,-2.734c-0.159,-0.781 -0.388,-1.415 -0.689,-1.901c-0.283,-0.451 -0.645,-0.79 -1.087,-1.016c-0.424,-0.243 -0.972,-0.364 -1.643,-0.364c-1.238,-0 -2.13,0.399 -2.678,1.198c-0.636,0.972 -0.954,2.517 -0.954,4.635Zm76.49,5.886c0.495,-0 1.007,-0.122 1.538,-0.365c0.548,-0.26 1.007,-0.616 1.378,-1.068c0.283,-0.347 0.486,-0.755 0.61,-1.224c0.141,-0.486 0.212,-1.05 0.212,-1.692c-0,-0.296 -0.009,-0.582 -0.026,-0.86c-0.018,-0.295 -0.045,-0.573 -0.08,-0.833c-1.432,0.278 -2.554,0.581 -3.367,0.911c-0.813,0.313 -1.387,0.695 -1.723,1.146c-0.336,0.434 -0.504,0.981 -0.504,1.641c0,0.746 0.168,1.328 0.504,1.745c0.353,0.399 0.839,0.599 1.458,0.599Zm13.789,-6.016c-0,1.024 0.079,1.918 0.238,2.682c0.159,0.764 0.389,1.38 0.69,1.849c0.282,0.434 0.627,0.773 1.033,1.016c0.425,0.243 0.964,0.364 1.618,0.364c0.601,0 1.122,-0.104 1.564,-0.312c0.459,-0.226 0.83,-0.53 1.113,-0.912c0.318,-0.434 0.548,-1.041 0.69,-1.822c0.141,-0.782 0.212,-1.676 0.212,-2.683c-0,-1.024 -0.08,-1.91 -0.239,-2.656c-0.159,-0.747 -0.389,-1.363 -0.689,-1.849c-0.283,-0.451 -0.637,-0.79 -1.061,-1.016c-0.406,-0.243 -0.945,-0.364 -1.617,-0.364c-0.601,-0 -1.131,0.104 -1.591,0.312c-0.441,0.191 -0.786,0.486 -1.033,0.886c-0.283,0.468 -0.513,1.085 -0.69,1.849c-0.159,0.746 -0.238,1.632 -0.238,2.656Zm18.614,-5.651c-2.121,-0 -3.287,1.588 -3.499,4.766l6.627,-0l-0,-0.86c-0,-1.25 -0.274,-2.213 -0.821,-2.89c-0.531,-0.678 -1.3,-1.016 -2.307,-1.016Z" style="fill:#1c274a;fill-rule:nonzero;"/></svg>