<svg width="16" height="16" viewBox="0 0 16 14" xmlns="http://www.w3.org/2000/svg">
<path d="M2.70716 10.6066C2.31664 10.9971 2.31664 11.6303 2.70716 12.0208C3.09768 12.4113 3.73085 12.4113 4.12137 12.0208L14.0209 2.12132C14.4114 1.73079 14.4114 1.09763 14.0209 0.707104C13.6303 0.316579 12.9972 0.31658 12.6067 0.707104L2.70716 10.6066Z" />
<path d="M3.70706 1.02081C3.31654 0.630288 2.68337 0.630288 2.29285 1.02081C1.90232 1.41134 1.90232 2.0445 2.29285 2.43503L12.1923 12.3345C12.5829 12.725 13.216 12.725 13.6066 12.3345C13.9971 11.944 13.9971 11.3108 13.6066 10.9203L3.70706 1.02081Z" />
</svg>
