<?xml version="1.0" standalone="no"?>
<!DOCTYPE svg PUBLIC "-//W3C//DTD SVG 20010904//EN"
 "http://www.w3.org/TR/2001/REC-SVG-20010904/DTD/svg10.dtd">
<svg version="1.0" xmlns="http://www.w3.org/2000/svg"
 width="512.000000pt" height="512.000000pt" viewBox="0 0 512.000000 512.000000"
 preserveAspectRatio="xMidYMid meet">
<metadata>
Created by potrace 1.14, written by Peter Selinger 2001-2017
</metadata>
<g transform="translate(0.000000,512.000000) scale(0.100000,-0.100000)"
fill="#000000" stroke="none">
<path d="M640 4665 c0 -74 2 -135 4 -135 10 0 602 -121 619 -126 16 -5 17 -99
15 -1837 l-3 -1831 -200 -47 c-110 -26 -253 -59 -317 -74 l-118 -27 0 -134 0
-134 1060 0 1060 0 0 149 0 149 -32 6 c-18 3 -188 28 -378 56 -190 28 -355 53
-368 55 l-22 5 2 813 3 812 567 3 c533 2 567 1 572 -15 3 -10 28 -146 56 -303
28 -157 53 -293 56 -303 5 -16 20 -17 177 -15 l172 3 0 820 0 820 -172 3
c-172 2 -173 2 -178 -20 -3 -13 -27 -147 -55 -298 -27 -151 -52 -285 -55 -297
l-5 -23 -570 0 -570 0 0 850 0 850 967 -2 967 -3 88 -390 c48 -214 97 -432
109 -482 l21 -93 184 0 184 0 0 665 0 665 -1920 0 -1920 0 0 -135z"/>
</g>
</svg>
