<svg width="195" height="100" viewBox="0 0 195 100" fill="none" xmlns="http://www.w3.org/2000/svg">
<mask id="path-1-outside-1_3332_341" maskUnits="userSpaceOnUse" x="-0.5" y="-0.273438" width="196" height="101" fill="black">
<rect fill="white" x="-0.5" y="-0.273438" width="196" height="101"/>
<path fill-rule="evenodd" clip-rule="evenodd" d="M0.5 18.3348H2.7037V20.534H0.5V18.3348ZM0.5 22.7361H2.7037V24.9353H0.5V22.7361ZM4.91049 18.3348H7.1142V20.534H4.91049V18.3348ZM4.91049 22.7361H7.1142V24.9353H4.91049V22.7361ZM4.91049 27.1374H7.1142V29.3366H4.91049V27.1374ZM9.32099 18.3379H11.5247V20.537H9.32099V18.3379ZM9.32099 22.7392H11.5247V24.9383H9.32099V22.7392ZM13.7315 18.3379H15.9352V20.537H13.7315V18.3379ZM13.7315 22.7392H15.9352V24.9383H13.7315V22.7392ZM9.32099 27.1405H11.5247V29.3396H9.32099V27.1405ZM18.1389 18.341H20.3426V20.5401H18.1389V18.341ZM18.1389 22.7423H20.3426V24.9414H18.1389V22.7423ZM18.1389 27.1436H20.3426V29.3427H18.1389V27.1436ZM22.5494 18.3441H24.7531V20.5432H22.5494V18.3441ZM22.5494 22.7454H24.7531V24.9445H22.5494V22.7454ZM22.5494 27.1467H24.7531V29.3458H22.5494V27.1467ZM22.5494 31.548H24.7531V33.7471H22.5494V31.548ZM22.5494 35.9493H24.7531V38.1484H22.5494V35.9493ZM26.9568 9.55072H29.1605V11.7498H26.9568V9.55072ZM26.9568 13.952H29.1605V16.1511H26.9568V13.952ZM26.9568 18.3533H29.1605V20.5524H26.9568V18.3533ZM26.9568 22.7546H29.1605V24.9537H26.9568V22.7546ZM26.9568 27.1559H29.1605V29.355H26.9568V27.1559ZM26.9568 31.5572H29.1605V33.7563H26.9568V31.5572ZM26.9568 35.9585H29.1605V38.1576H26.9568V35.9585ZM26.9568 40.3598H29.1605V42.5589H26.9568V40.3598ZM26.9568 44.7611H29.1605V46.9602H26.9568V44.7611ZM31.3673 9.55996H33.571V11.7591H31.3673V9.55996ZM35.7778 5.15866H37.9815V7.35777H35.7778V5.15866ZM31.3673 13.9582H33.571V16.1573H31.3673V13.9582ZM31.3673 18.3595H33.571V20.5586H31.3673V18.3595ZM31.3673 22.7608H33.571V24.9599H31.3673V22.7608ZM31.3673 27.1621H33.571V29.3612H31.3673V27.1621ZM31.3673 31.5634H33.571V33.7625H31.3673V31.5634ZM31.3673 35.9647H33.571V38.1638H31.3673V35.9647ZM31.3673 40.366H33.571V42.5651H31.3673V40.366ZM31.3673 44.7673H33.571V46.9664H31.3673V44.7673ZM31.3673 49.1686H33.571V51.3677H31.3673V49.1686ZM35.7778 13.9674H37.9815V16.1665H35.7778V13.9674ZM35.7778 18.3687H37.9815V20.5678H35.7778V18.3687ZM35.7778 22.77H37.9815V24.9691H35.7778V22.77ZM35.7778 27.1713H37.9815V29.3704H35.7778V27.1713ZM35.7778 31.5726H37.9815V33.7717H35.7778V31.5726ZM35.7778 35.9739H37.9815V38.173H35.7778V35.9739ZM35.7778 40.3752H37.9815V42.5743H35.7778V40.3752ZM35.7778 44.7765H37.9815V46.9756H35.7778V44.7765ZM35.7778 49.1778H37.9815V51.3769H35.7778V49.1778ZM35.7778 53.5791H37.9815V55.7782H35.7778V53.5791ZM40.1821 5.13094H42.3858V7.33005H40.1821V5.13094ZM40.1821 9.53224H42.3858V11.7314H40.1821V9.53224ZM40.1821 13.9335H42.3858V16.1327H40.1821V13.9335ZM44.5926 13.9335H46.7963V16.1327H44.5926V13.9335ZM49.0031 13.9335H51.2068V16.1327H49.0031V13.9335ZM40.1852 18.3348H42.3889V20.534H40.1852V18.3348ZM40.1852 31.5357H42.3889V33.7348H40.1852V31.5357ZM40.1852 35.937H42.3889V38.1361H40.1852V35.937ZM40.1852 40.3383H42.3889V42.5374H40.1852V40.3383ZM40.1852 44.7396H42.3889V46.9387H40.1852V44.7396ZM44.5957 31.5418H46.7994V33.7409H44.5957V31.5418ZM44.5957 35.9431H46.7994V38.1422H44.5957V35.9431ZM44.5957 40.3413H46.7994V42.5405H44.5957V40.3413ZM44.5957 44.7426H46.7994V46.9418H44.5957V44.7426ZM44.5957 57.9435H46.7994V60.1426H44.5957V57.9435ZM49.0062 57.9435H51.2099V60.1426H49.0062V57.9435ZM53.4167 57.9435H55.6204V60.1426H53.4167V57.9435ZM57.8272 57.9435H60.0309V60.1426H57.8272V57.9435ZM49.0093 62.3448H51.213V64.5439H49.0093V62.3448ZM53.4198 62.3448H55.6235V64.5439H53.4198V62.3448ZM57.8302 62.3448H60.034V64.5439H57.8302V62.3448ZM62.2407 62.3448H64.4444V64.5439H62.2407V62.3448ZM49.0123 66.7461H51.2161V68.9452H49.0123V66.7461ZM53.4228 66.7461H55.6265V68.9452H53.4228V66.7461ZM57.8333 66.7461H60.037V68.9452H57.8333V66.7461ZM62.2438 66.7461H64.4475V68.9452H62.2438V66.7461ZM66.6543 66.7461H68.858V68.9452H66.6543V66.7461ZM49.0154 71.1474H51.2191V73.3465H49.0154V71.1474ZM53.4259 71.1474H55.6296V73.3465H53.4259V71.1474ZM57.8364 71.1474H60.0401V73.3465H57.8364V71.1474ZM62.2469 71.1474H64.4506V73.3465H62.2469V71.1474ZM53.429 75.5487H55.6327V77.7478H53.429V75.5487ZM57.8395 75.5487H60.0432V77.7478H57.8395V75.5487ZM62.25 75.5487H64.4537V77.7478H62.25V75.5487ZM53.4321 79.95H55.6358V82.1491H53.4321V79.95ZM57.8426 79.95H60.0463V82.1491H57.8426V79.95ZM53.4321 84.3513H55.6358V86.5504H53.4321V84.3513ZM53.4321 88.7526H55.6358V90.9517H53.4321V88.7526ZM53.4321 93.1539H55.6358V95.353H53.4321V93.1539ZM57.8426 97.5552H60.0463V99.7543H57.8426V97.5552ZM57.8426 84.3543H60.0463V86.5535H57.8426V84.3543ZM62.2531 79.953H64.4568V82.1522H62.2531V79.953ZM66.6636 71.1535H68.8673V73.3526H66.6636V71.1535ZM49.0247 27.1528H51.2284V29.352H49.0247V27.1528ZM49.0247 31.5541H51.2284V33.7533H49.0247V31.5541ZM49.0247 18.3533H51.2284V20.5524H49.0247V18.3533ZM49.0247 22.7546H51.2284V24.9537H49.0247V22.7546ZM49.0247 35.9554H51.2284V38.1546H49.0247V35.9554ZM53.4352 27.1559H55.6389V29.355H53.4352V27.1559ZM53.4352 31.5572H55.6389V33.7563H53.4352V31.5572ZM53.4352 18.3564H55.6389V20.5555H53.4352V18.3564ZM53.4352 22.7577H55.6389V24.9568H53.4352V22.7577ZM53.4352 35.9585H55.6389V38.1576H53.4352V35.9585ZM57.8457 31.5572H60.0494V33.7563H57.8457V31.5572ZM57.8457 35.9585H60.0494V38.1576H57.8457V35.9585ZM49.0278 40.3598H51.2315V42.5589H49.0278V40.3598ZM40.2099 53.5606H42.4136V55.7598H40.2099V53.5606ZM44.5895 0.726562H46.7932V2.92567H44.5895V0.726562ZM44.5895 5.12786H46.7932V7.32697H44.5895V5.12786ZM49 0.726562H51.2037V2.92567H49V0.726562ZM49 5.12786H51.2037V7.32697H49V5.12786ZM53.4105 5.12786H55.6142V7.32697H53.4105V5.12786ZM57.821 5.12786H60.0247V7.32697H57.821V5.12786ZM57.821 9.52916H60.0247V11.7283H57.821V9.52916ZM62.2315 5.12786H64.4352V7.32697H62.2315V5.12786ZM66.642 5.12786H68.8457V7.32697H66.642V5.12786ZM71.0525 5.12786H73.2562V7.32697H71.0525V5.12786ZM75.463 5.12786H77.6667V7.32697H75.463V5.12786ZM79.8735 5.12786H82.0772V7.32697H79.8735V5.12786ZM99.716 5.12786H101.92V7.32697H99.716V5.12786ZM104.127 5.12786H106.33V7.32697H104.127V5.12786ZM62.2407 9.52916H64.4444V11.7283H62.2407V9.52916ZM66.6512 9.52916H68.8549V11.7283H66.6512V9.52916ZM71.0617 9.52916H73.2654V11.7283H71.0617V9.52916ZM75.4722 9.52916H77.6759V11.7283H75.4722V9.52916ZM62.2469 13.9305H64.4506V16.1296H62.2469V13.9305ZM66.6574 13.9305H68.8611V16.1296H66.6574V13.9305ZM62.25 18.3318H64.4537V20.5309H62.25V18.3318ZM66.6605 18.3318H68.8642V20.5309H66.6605V18.3318ZM66.6605 22.7331H68.8642V24.9322H66.6605V22.7331ZM71.071 13.9335H73.2747V16.1327H71.071V13.9335ZM75.4815 13.9335H77.6852V16.1327H75.4815V13.9335ZM79.892 9.53224H82.0957V11.7314H79.892V9.53224ZM86.5062 31.5326H88.7099V33.7317H86.5062V31.5326ZM86.5062 49.1316H88.7099V51.3307H86.5062V49.1316ZM86.5062 53.5329H88.7099V55.732H86.5062V53.5329ZM86.5062 57.9342H88.7099V60.1333H86.5062V57.9342ZM90.9167 49.1347H93.1204V51.3338H90.9167V49.1347ZM90.9167 53.536H93.1204V55.7351H90.9167V53.536ZM90.9167 57.9373H93.1204V60.1364H90.9167V57.9373ZM95.3272 49.1378H97.5309V51.3369H95.3272V49.1378ZM95.3272 53.5391H97.5309V55.7382H95.3272V53.5391ZM95.3272 57.9404H97.5309V60.1395H95.3272V57.9404ZM99.7377 49.1409H101.941V51.34H99.7377V49.1409ZM90.9197 44.7396H93.1235V46.9387H90.9197V44.7396ZM95.3302 44.7396H97.534V46.9387H95.3302V44.7396ZM95.3302 35.94H97.534V38.1392H95.3302V35.94ZM95.3302 31.5387H97.534V33.7379H95.3302V31.5387ZM99.7407 44.7396H101.944V46.9387H99.7407V44.7396ZM99.7407 53.5391H101.944V55.7382H99.7407V53.5391ZM99.7407 57.9404H101.944V60.1395H99.7407V57.9404ZM99.7407 66.7399H101.944V68.939H99.7407V66.7399ZM99.7407 62.3386H101.944V64.5377H99.7407V62.3386ZM99.7407 71.1381H101.944V73.3372H99.7407V71.1381ZM104.151 49.1378H106.355V51.3369H104.151V49.1378ZM104.151 44.7365H106.355V46.9356H104.151V44.7365ZM104.151 53.536H106.355V55.7351H104.151V53.536ZM104.151 57.9373H106.355V60.1364H104.151V57.9373ZM104.151 66.7368H106.355V68.9359H104.151V66.7368ZM104.151 62.3355H106.355V64.5346H104.151V62.3355ZM104.151 71.135H106.355V73.3342H104.151V71.135ZM108.562 49.1347H110.765V51.3338H108.562V49.1347ZM108.562 53.536H110.765V55.7351H108.562V53.536ZM108.562 57.9373H110.765V60.1364H108.562V57.9373ZM108.562 66.7368H110.765V68.9359H108.562V66.7368ZM108.562 62.3355H110.765V64.5346H108.562V62.3355ZM112.972 57.9342H115.176V60.1333H112.972V57.9342ZM117.383 57.9342H119.586V60.1333H117.383V57.9342ZM112.972 66.7337H115.176V68.9329H112.972V66.7337ZM112.972 62.3325H115.176V64.5316H112.972V62.3325ZM108.562 71.132H110.765V73.3311H108.562V71.132ZM117.38 75.5333H119.583V77.7324H117.38V75.5333ZM117.38 79.9346H119.583V82.1337H117.38V79.9346ZM104.151 75.5333H106.355V77.7324H104.151V75.5333ZM104.151 79.9346H106.355V82.1337H104.151V79.9346ZM99.7407 18.3348H101.944V20.534H99.7407V18.3348ZM99.7407 22.7361H101.944V24.9353H99.7407V22.7361ZM99.7407 31.5357H101.944V33.7348H99.7407V31.5357ZM99.7407 27.1344H101.944V29.3335H99.7407V27.1344ZM99.7407 35.9339H101.944V38.133H99.7407V35.9339ZM104.151 18.3318H106.355V20.5309H104.151V18.3318ZM104.151 22.7331H106.355V24.9322H104.151V22.7331ZM104.151 31.5326H106.355V33.7317H104.151V31.5326ZM104.151 27.1313H106.355V29.3304H104.151V27.1313ZM108.562 18.3318H110.765V20.5309H108.562V18.3318ZM108.562 22.7331H110.765V24.9322H108.562V22.7331ZM108.562 31.5326H110.765V33.7317H108.562V31.5326ZM108.562 27.1313H110.765V29.3304H108.562V27.1313ZM112.972 18.3318H115.176V20.5309H112.972V18.3318ZM112.972 22.7331H115.176V24.9322H112.972V22.7331ZM112.972 31.5326H115.176V33.7317H112.972V31.5326ZM117.383 35.9339H119.586V38.133H117.383V35.9339ZM112.972 27.1344H115.176V29.3335H112.972V27.1344ZM117.383 18.3348H119.586V20.534H117.383V18.3348ZM117.383 22.7361H119.586V24.9353H117.383V22.7361ZM117.383 31.5357H119.586V33.7348H117.383V31.5357ZM117.383 27.1344H119.586V29.3335H117.383V27.1344ZM121.793 18.3348H123.997V20.534H121.793V18.3348ZM121.793 22.7361H123.997V24.9353H121.793V22.7361ZM121.793 31.5357H123.997V33.7348H121.793V31.5357ZM121.793 27.1344H123.997V29.3335H121.793V27.1344ZM126.204 18.3348H128.407V20.534H126.204V18.3348ZM126.204 22.7361H128.407V24.9353H126.204V22.7361ZM126.204 31.5357H128.407V33.7348H126.204V31.5357ZM126.204 27.1344H128.407V29.3335H126.204V27.1344ZM130.614 18.3348H132.818V20.534H130.614V18.3348ZM130.614 22.7361H132.818V24.9353H130.614V22.7361ZM130.614 31.5357H132.818V33.7348H130.614V31.5357ZM130.614 27.1344H132.818V29.3335H130.614V27.1344ZM135.025 18.3348H137.228V20.534H135.025V18.3348ZM135.025 22.7361H137.228V24.9353H135.025V22.7361ZM135.025 31.5357H137.228V33.7348H135.025V31.5357ZM135.025 27.1344H137.228V29.3335H135.025V27.1344ZM139.435 18.3348H141.639V20.534H139.435V18.3348ZM139.435 22.7361H141.639V24.9353H139.435V22.7361ZM139.435 31.5357H141.639V33.7348H139.435V31.5357ZM139.435 27.1344H141.639V29.3335H139.435V27.1344ZM143.846 18.3348H146.049V20.534H143.846V18.3348ZM143.846 22.7361H146.049V24.9353H143.846V22.7361ZM143.846 31.5357H146.049V33.7348H143.846V31.5357ZM143.846 27.1344H146.049V29.3335H143.846V27.1344ZM148.256 18.3348H150.46V20.534H148.256V18.3348ZM148.256 22.7361H150.46V24.9353H148.256V22.7361ZM148.256 31.5357H150.46V33.7348H148.256V31.5357ZM148.256 27.1344H150.46V29.3335H148.256V27.1344ZM152.664 18.3348H154.867V20.534H152.664V18.3348ZM152.664 22.7361H154.867V24.9353H152.664V22.7361ZM152.664 31.5357H154.867V33.7348H152.664V31.5357ZM112.981 44.7365H115.185V46.9356H112.981V44.7365ZM117.392 44.7365H119.596V46.9356H117.392V44.7365ZM121.802 44.7365H124.006V46.9356H121.802V44.7365ZM126.213 44.7365H128.417V46.9356H126.213V44.7365ZM130.623 44.7365H132.827V46.9356H130.623V44.7365ZM135.034 44.7365H137.238V46.9356H135.034V44.7365ZM139.444 44.7365H141.648V46.9356H139.444V44.7365ZM143.855 44.7365H146.059V46.9356H143.855V44.7365ZM148.262 44.7365H150.466V46.9356H148.262V44.7365ZM152.67 44.7365H154.873V46.9356H152.67V44.7365ZM117.395 49.1378H119.599V51.3369H117.395V49.1378ZM121.806 49.1378H124.009V51.3369H121.806V49.1378ZM126.216 49.1378H128.42V51.3369H126.216V49.1378ZM130.627 49.1378H132.83V51.3369H130.627V49.1378ZM135.037 49.1378H137.241V51.3369H135.037V49.1378ZM135.037 53.5391H137.241V55.7382H135.037V53.5391ZM135.037 57.9404H137.241V60.1395H135.037V57.9404ZM139.448 49.1409H141.651V51.34H139.448V49.1409ZM143.858 49.1409H146.062V51.34H143.858V49.1409ZM148.265 49.1409H150.469V51.34H148.265V49.1409ZM143.855 53.5422H146.059V55.7413H143.855V53.5422ZM148.265 53.5422H150.469V55.7413H148.265V53.5422ZM148.265 57.9435H150.469V60.1426H148.265V57.9435ZM148.265 62.3448H150.469V64.5439H148.265V62.3448ZM152.673 62.3448H154.877V64.5439H152.673V62.3448ZM157.08 62.3448H159.284V64.5439H157.08V62.3448ZM152.673 66.7461H154.877V68.9452H152.673V66.7461ZM157.08 66.7461H159.284V68.9452H157.08V66.7461ZM168.105 66.7461H170.309V68.9452H168.105V66.7461ZM172.512 66.7461H174.716V68.9452H172.512V66.7461ZM152.673 49.147H154.877V51.3461H152.673V49.147ZM152.673 27.1467H154.877V29.3458H152.673V27.1467ZM157.08 18.3472H159.284V20.5463H157.08V18.3472ZM157.08 22.7485H159.284V24.9476H157.08V22.7485ZM157.08 31.548H159.284V33.7471H157.08V31.548ZM157.08 27.1467H159.284V29.3458H157.08V27.1467ZM161.491 18.3472H163.694V20.5463H161.491V18.3472ZM161.491 22.7485H163.694V24.9476H161.491V22.7485ZM161.491 31.548H163.694V33.7471H161.491V31.548ZM126.216 35.9493H128.42V38.1484H126.216V35.9493ZM130.627 35.9493H132.83V38.1484H130.627V35.9493ZM135.037 35.9493H137.241V38.1484H135.037V35.9493ZM139.448 35.9493H141.651V38.1484H139.448V35.9493ZM143.858 35.9493H146.062V38.1484H143.858V35.9493ZM148.265 35.9493H150.469V38.1484H148.265V35.9493ZM152.673 35.9493H154.877V38.1484H152.673V35.9493ZM157.08 35.9493H159.284V38.1484H157.08V35.9493ZM161.491 35.9493H163.694V38.1484H161.491V35.9493ZM152.673 75.5487H154.877V77.7478H152.673V75.5487ZM157.08 75.5487H159.284V77.7478H157.08V75.5487ZM161.491 75.5487H163.694V77.7478H161.491V75.5487ZM165.898 75.5487H168.102V77.7478H165.898V75.5487ZM152.67 79.95H154.873V82.1491H152.67V79.95ZM157.077 79.95H159.281V82.1491H157.077V79.95ZM161.488 79.95H163.691V82.1491H161.488V79.95ZM165.895 79.95H168.099V82.1491H165.895V79.95ZM170.302 75.5487H172.506V77.7478H170.302V75.5487ZM170.302 79.95H172.506V82.1491H170.302V79.95ZM161.485 84.3513H163.688V86.5504H161.485V84.3513ZM165.892 84.3513H168.096V86.5504H165.892V84.3513ZM170.299 84.3513H172.503V86.5504H170.299V84.3513ZM174.707 84.3513H176.91V86.5504H174.707V84.3513ZM183.525 84.3513H185.728V86.5504H183.525V84.3513ZM183.525 88.7526H185.728V90.9517H183.525V88.7526ZM126.207 40.3537H128.41V42.5528H126.207V40.3537ZM130.617 40.3537H132.821V42.5528H130.617V40.3537ZM135.028 40.3537H137.231V42.5528H135.028V40.3537ZM139.438 40.3537H141.642V42.5528H139.438V40.3537ZM143.849 40.3537H146.052V42.5528H143.849V40.3537ZM148.259 40.3537H150.463V42.5528H148.259V40.3537ZM152.667 40.3537H154.87V42.5528H152.667V40.3537ZM157.074 40.3537H159.278V42.5528H157.074V40.3537ZM161.485 27.1559H163.688V29.355H161.485V27.1559ZM165.892 18.3564H168.096V20.5555H165.892V18.3564ZM165.892 22.7577H168.096V24.9568H165.892V22.7577ZM165.892 31.5572H168.096V33.7563H165.892V31.5572ZM165.892 27.1559H168.096V29.355H165.892V27.1559ZM170.299 18.3564H172.503V20.5555H170.299V18.3564ZM121.799 13.9551H124.003V16.1542H121.799V13.9551ZM126.21 13.9551H128.414V16.1542H126.21V13.9551ZM121.799 9.5538H124.003V11.7529H121.799V9.5538ZM126.21 9.5538H128.414V11.7529H126.21V9.5538ZM130.62 13.9551H132.824V16.1542H130.62V13.9551ZM135.031 13.9551H137.235V16.1542H135.031V13.9551ZM139.441 13.9551H141.645V16.1542H139.441V13.9551ZM143.852 13.9551H146.056V16.1542H143.852V13.9551ZM148.259 13.9551H150.463V16.1542H148.259V13.9551ZM139.441 9.5538H141.645V11.7529H139.441V9.5538ZM143.852 9.5538H146.056V11.7529H143.852V9.5538ZM143.852 5.1525H146.056V7.35161H143.852V5.1525ZM148.262 9.5538H150.466V11.7529H148.262V9.5538ZM152.67 13.9551H154.873V16.1542H152.67V13.9551ZM157.077 13.9551H159.281V16.1542H157.077V13.9551ZM161.488 13.9551H163.691V16.1542H161.488V13.9551ZM165.895 13.9551H168.099V16.1542H165.895V13.9551ZM170.302 13.9551H172.506V16.1542H170.302V13.9551ZM170.302 9.5538H172.506V11.7529H170.302V9.5538ZM170.302 22.7515H172.506V24.9507H170.302V22.7515ZM174.71 18.3502H176.914V20.5494H174.71V18.3502ZM174.71 22.7515H176.914V24.9507H174.71V22.7515ZM179.117 18.3502H181.321V20.5494H179.117V18.3502ZM179.117 22.7515H181.321V24.9507H179.117V22.7515ZM183.525 18.3502H185.728V20.5494H183.525V18.3502ZM187.932 18.3502H190.136V20.5494H187.932V18.3502ZM192.343 18.3502H194.546V20.5494H192.343V18.3502ZM183.525 22.7515H185.728V24.9507H183.525V22.7515ZM179.117 27.1528H181.321V29.352H179.117V27.1528ZM104.16 35.9524H106.364V38.1515H104.16V35.9524ZM108.571 40.3537H110.775V42.5528H108.571V40.3537ZM112.981 40.3537H115.185V42.5528H112.981V40.3537ZM90.9352 35.9524H93.1389V38.1515H90.9352V35.9524ZM90.9352 27.1528H93.1389V29.352H90.9352V27.1528Z"/>
</mask>
<path fill-rule="evenodd" clip-rule="evenodd" d="M0.5 18.3348H2.7037V20.534H0.5V18.3348ZM0.5 22.7361H2.7037V24.9353H0.5V22.7361ZM4.91049 18.3348H7.1142V20.534H4.91049V18.3348ZM4.91049 22.7361H7.1142V24.9353H4.91049V22.7361ZM4.91049 27.1374H7.1142V29.3366H4.91049V27.1374ZM9.32099 18.3379H11.5247V20.537H9.32099V18.3379ZM9.32099 22.7392H11.5247V24.9383H9.32099V22.7392ZM13.7315 18.3379H15.9352V20.537H13.7315V18.3379ZM13.7315 22.7392H15.9352V24.9383H13.7315V22.7392ZM9.32099 27.1405H11.5247V29.3396H9.32099V27.1405ZM18.1389 18.341H20.3426V20.5401H18.1389V18.341ZM18.1389 22.7423H20.3426V24.9414H18.1389V22.7423ZM18.1389 27.1436H20.3426V29.3427H18.1389V27.1436ZM22.5494 18.3441H24.7531V20.5432H22.5494V18.3441ZM22.5494 22.7454H24.7531V24.9445H22.5494V22.7454ZM22.5494 27.1467H24.7531V29.3458H22.5494V27.1467ZM22.5494 31.548H24.7531V33.7471H22.5494V31.548ZM22.5494 35.9493H24.7531V38.1484H22.5494V35.9493ZM26.9568 9.55072H29.1605V11.7498H26.9568V9.55072ZM26.9568 13.952H29.1605V16.1511H26.9568V13.952ZM26.9568 18.3533H29.1605V20.5524H26.9568V18.3533ZM26.9568 22.7546H29.1605V24.9537H26.9568V22.7546ZM26.9568 27.1559H29.1605V29.355H26.9568V27.1559ZM26.9568 31.5572H29.1605V33.7563H26.9568V31.5572ZM26.9568 35.9585H29.1605V38.1576H26.9568V35.9585ZM26.9568 40.3598H29.1605V42.5589H26.9568V40.3598ZM26.9568 44.7611H29.1605V46.9602H26.9568V44.7611ZM31.3673 9.55996H33.571V11.7591H31.3673V9.55996ZM35.7778 5.15866H37.9815V7.35777H35.7778V5.15866ZM31.3673 13.9582H33.571V16.1573H31.3673V13.9582ZM31.3673 18.3595H33.571V20.5586H31.3673V18.3595ZM31.3673 22.7608H33.571V24.9599H31.3673V22.7608ZM31.3673 27.1621H33.571V29.3612H31.3673V27.1621ZM31.3673 31.5634H33.571V33.7625H31.3673V31.5634ZM31.3673 35.9647H33.571V38.1638H31.3673V35.9647ZM31.3673 40.366H33.571V42.5651H31.3673V40.366ZM31.3673 44.7673H33.571V46.9664H31.3673V44.7673ZM31.3673 49.1686H33.571V51.3677H31.3673V49.1686ZM35.7778 13.9674H37.9815V16.1665H35.7778V13.9674ZM35.7778 18.3687H37.9815V20.5678H35.7778V18.3687ZM35.7778 22.77H37.9815V24.9691H35.7778V22.77ZM35.7778 27.1713H37.9815V29.3704H35.7778V27.1713ZM35.7778 31.5726H37.9815V33.7717H35.7778V31.5726ZM35.7778 35.9739H37.9815V38.173H35.7778V35.9739ZM35.7778 40.3752H37.9815V42.5743H35.7778V40.3752ZM35.7778 44.7765H37.9815V46.9756H35.7778V44.7765ZM35.7778 49.1778H37.9815V51.3769H35.7778V49.1778ZM35.7778 53.5791H37.9815V55.7782H35.7778V53.5791ZM40.1821 5.13094H42.3858V7.33005H40.1821V5.13094ZM40.1821 9.53224H42.3858V11.7314H40.1821V9.53224ZM40.1821 13.9335H42.3858V16.1327H40.1821V13.9335ZM44.5926 13.9335H46.7963V16.1327H44.5926V13.9335ZM49.0031 13.9335H51.2068V16.1327H49.0031V13.9335ZM40.1852 18.3348H42.3889V20.534H40.1852V18.3348ZM40.1852 31.5357H42.3889V33.7348H40.1852V31.5357ZM40.1852 35.937H42.3889V38.1361H40.1852V35.937ZM40.1852 40.3383H42.3889V42.5374H40.1852V40.3383ZM40.1852 44.7396H42.3889V46.9387H40.1852V44.7396ZM44.5957 31.5418H46.7994V33.7409H44.5957V31.5418ZM44.5957 35.9431H46.7994V38.1422H44.5957V35.9431ZM44.5957 40.3413H46.7994V42.5405H44.5957V40.3413ZM44.5957 44.7426H46.7994V46.9418H44.5957V44.7426ZM44.5957 57.9435H46.7994V60.1426H44.5957V57.9435ZM49.0062 57.9435H51.2099V60.1426H49.0062V57.9435ZM53.4167 57.9435H55.6204V60.1426H53.4167V57.9435ZM57.8272 57.9435H60.0309V60.1426H57.8272V57.9435ZM49.0093 62.3448H51.213V64.5439H49.0093V62.3448ZM53.4198 62.3448H55.6235V64.5439H53.4198V62.3448ZM57.8302 62.3448H60.034V64.5439H57.8302V62.3448ZM62.2407 62.3448H64.4444V64.5439H62.2407V62.3448ZM49.0123 66.7461H51.2161V68.9452H49.0123V66.7461ZM53.4228 66.7461H55.6265V68.9452H53.4228V66.7461ZM57.8333 66.7461H60.037V68.9452H57.8333V66.7461ZM62.2438 66.7461H64.4475V68.9452H62.2438V66.7461ZM66.6543 66.7461H68.858V68.9452H66.6543V66.7461ZM49.0154 71.1474H51.2191V73.3465H49.0154V71.1474ZM53.4259 71.1474H55.6296V73.3465H53.4259V71.1474ZM57.8364 71.1474H60.0401V73.3465H57.8364V71.1474ZM62.2469 71.1474H64.4506V73.3465H62.2469V71.1474ZM53.429 75.5487H55.6327V77.7478H53.429V75.5487ZM57.8395 75.5487H60.0432V77.7478H57.8395V75.5487ZM62.25 75.5487H64.4537V77.7478H62.25V75.5487ZM53.4321 79.95H55.6358V82.1491H53.4321V79.95ZM57.8426 79.95H60.0463V82.1491H57.8426V79.95ZM53.4321 84.3513H55.6358V86.5504H53.4321V84.3513ZM53.4321 88.7526H55.6358V90.9517H53.4321V88.7526ZM53.4321 93.1539H55.6358V95.353H53.4321V93.1539ZM57.8426 97.5552H60.0463V99.7543H57.8426V97.5552ZM57.8426 84.3543H60.0463V86.5535H57.8426V84.3543ZM62.2531 79.953H64.4568V82.1522H62.2531V79.953ZM66.6636 71.1535H68.8673V73.3526H66.6636V71.1535ZM49.0247 27.1528H51.2284V29.352H49.0247V27.1528ZM49.0247 31.5541H51.2284V33.7533H49.0247V31.5541ZM49.0247 18.3533H51.2284V20.5524H49.0247V18.3533ZM49.0247 22.7546H51.2284V24.9537H49.0247V22.7546ZM49.0247 35.9554H51.2284V38.1546H49.0247V35.9554ZM53.4352 27.1559H55.6389V29.355H53.4352V27.1559ZM53.4352 31.5572H55.6389V33.7563H53.4352V31.5572ZM53.4352 18.3564H55.6389V20.5555H53.4352V18.3564ZM53.4352 22.7577H55.6389V24.9568H53.4352V22.7577ZM53.4352 35.9585H55.6389V38.1576H53.4352V35.9585ZM57.8457 31.5572H60.0494V33.7563H57.8457V31.5572ZM57.8457 35.9585H60.0494V38.1576H57.8457V35.9585ZM49.0278 40.3598H51.2315V42.5589H49.0278V40.3598ZM40.2099 53.5606H42.4136V55.7598H40.2099V53.5606ZM44.5895 0.726562H46.7932V2.92567H44.5895V0.726562ZM44.5895 5.12786H46.7932V7.32697H44.5895V5.12786ZM49 0.726562H51.2037V2.92567H49V0.726562ZM49 5.12786H51.2037V7.32697H49V5.12786ZM53.4105 5.12786H55.6142V7.32697H53.4105V5.12786ZM57.821 5.12786H60.0247V7.32697H57.821V5.12786ZM57.821 9.52916H60.0247V11.7283H57.821V9.52916ZM62.2315 5.12786H64.4352V7.32697H62.2315V5.12786ZM66.642 5.12786H68.8457V7.32697H66.642V5.12786ZM71.0525 5.12786H73.2562V7.32697H71.0525V5.12786ZM75.463 5.12786H77.6667V7.32697H75.463V5.12786ZM79.8735 5.12786H82.0772V7.32697H79.8735V5.12786ZM99.716 5.12786H101.92V7.32697H99.716V5.12786ZM104.127 5.12786H106.33V7.32697H104.127V5.12786ZM62.2407 9.52916H64.4444V11.7283H62.2407V9.52916ZM66.6512 9.52916H68.8549V11.7283H66.6512V9.52916ZM71.0617 9.52916H73.2654V11.7283H71.0617V9.52916ZM75.4722 9.52916H77.6759V11.7283H75.4722V9.52916ZM62.2469 13.9305H64.4506V16.1296H62.2469V13.9305ZM66.6574 13.9305H68.8611V16.1296H66.6574V13.9305ZM62.25 18.3318H64.4537V20.5309H62.25V18.3318ZM66.6605 18.3318H68.8642V20.5309H66.6605V18.3318ZM66.6605 22.7331H68.8642V24.9322H66.6605V22.7331ZM71.071 13.9335H73.2747V16.1327H71.071V13.9335ZM75.4815 13.9335H77.6852V16.1327H75.4815V13.9335ZM79.892 9.53224H82.0957V11.7314H79.892V9.53224ZM86.5062 31.5326H88.7099V33.7317H86.5062V31.5326ZM86.5062 49.1316H88.7099V51.3307H86.5062V49.1316ZM86.5062 53.5329H88.7099V55.732H86.5062V53.5329ZM86.5062 57.9342H88.7099V60.1333H86.5062V57.9342ZM90.9167 49.1347H93.1204V51.3338H90.9167V49.1347ZM90.9167 53.536H93.1204V55.7351H90.9167V53.536ZM90.9167 57.9373H93.1204V60.1364H90.9167V57.9373ZM95.3272 49.1378H97.5309V51.3369H95.3272V49.1378ZM95.3272 53.5391H97.5309V55.7382H95.3272V53.5391ZM95.3272 57.9404H97.5309V60.1395H95.3272V57.9404ZM99.7377 49.1409H101.941V51.34H99.7377V49.1409ZM90.9197 44.7396H93.1235V46.9387H90.9197V44.7396ZM95.3302 44.7396H97.534V46.9387H95.3302V44.7396ZM95.3302 35.94H97.534V38.1392H95.3302V35.94ZM95.3302 31.5387H97.534V33.7379H95.3302V31.5387ZM99.7407 44.7396H101.944V46.9387H99.7407V44.7396ZM99.7407 53.5391H101.944V55.7382H99.7407V53.5391ZM99.7407 57.9404H101.944V60.1395H99.7407V57.9404ZM99.7407 66.7399H101.944V68.939H99.7407V66.7399ZM99.7407 62.3386H101.944V64.5377H99.7407V62.3386ZM99.7407 71.1381H101.944V73.3372H99.7407V71.1381ZM104.151 49.1378H106.355V51.3369H104.151V49.1378ZM104.151 44.7365H106.355V46.9356H104.151V44.7365ZM104.151 53.536H106.355V55.7351H104.151V53.536ZM104.151 57.9373H106.355V60.1364H104.151V57.9373ZM104.151 66.7368H106.355V68.9359H104.151V66.7368ZM104.151 62.3355H106.355V64.5346H104.151V62.3355ZM104.151 71.135H106.355V73.3342H104.151V71.135ZM108.562 49.1347H110.765V51.3338H108.562V49.1347ZM108.562 53.536H110.765V55.7351H108.562V53.536ZM108.562 57.9373H110.765V60.1364H108.562V57.9373ZM108.562 66.7368H110.765V68.9359H108.562V66.7368ZM108.562 62.3355H110.765V64.5346H108.562V62.3355ZM112.972 57.9342H115.176V60.1333H112.972V57.9342ZM117.383 57.9342H119.586V60.1333H117.383V57.9342ZM112.972 66.7337H115.176V68.9329H112.972V66.7337ZM112.972 62.3325H115.176V64.5316H112.972V62.3325ZM108.562 71.132H110.765V73.3311H108.562V71.132ZM117.38 75.5333H119.583V77.7324H117.38V75.5333ZM117.38 79.9346H119.583V82.1337H117.38V79.9346ZM104.151 75.5333H106.355V77.7324H104.151V75.5333ZM104.151 79.9346H106.355V82.1337H104.151V79.9346ZM99.7407 18.3348H101.944V20.534H99.7407V18.3348ZM99.7407 22.7361H101.944V24.9353H99.7407V22.7361ZM99.7407 31.5357H101.944V33.7348H99.7407V31.5357ZM99.7407 27.1344H101.944V29.3335H99.7407V27.1344ZM99.7407 35.9339H101.944V38.133H99.7407V35.9339ZM104.151 18.3318H106.355V20.5309H104.151V18.3318ZM104.151 22.7331H106.355V24.9322H104.151V22.7331ZM104.151 31.5326H106.355V33.7317H104.151V31.5326ZM104.151 27.1313H106.355V29.3304H104.151V27.1313ZM108.562 18.3318H110.765V20.5309H108.562V18.3318ZM108.562 22.7331H110.765V24.9322H108.562V22.7331ZM108.562 31.5326H110.765V33.7317H108.562V31.5326ZM108.562 27.1313H110.765V29.3304H108.562V27.1313ZM112.972 18.3318H115.176V20.5309H112.972V18.3318ZM112.972 22.7331H115.176V24.9322H112.972V22.7331ZM112.972 31.5326H115.176V33.7317H112.972V31.5326ZM117.383 35.9339H119.586V38.133H117.383V35.9339ZM112.972 27.1344H115.176V29.3335H112.972V27.1344ZM117.383 18.3348H119.586V20.534H117.383V18.3348ZM117.383 22.7361H119.586V24.9353H117.383V22.7361ZM117.383 31.5357H119.586V33.7348H117.383V31.5357ZM117.383 27.1344H119.586V29.3335H117.383V27.1344ZM121.793 18.3348H123.997V20.534H121.793V18.3348ZM121.793 22.7361H123.997V24.9353H121.793V22.7361ZM121.793 31.5357H123.997V33.7348H121.793V31.5357ZM121.793 27.1344H123.997V29.3335H121.793V27.1344ZM126.204 18.3348H128.407V20.534H126.204V18.3348ZM126.204 22.7361H128.407V24.9353H126.204V22.7361ZM126.204 31.5357H128.407V33.7348H126.204V31.5357ZM126.204 27.1344H128.407V29.3335H126.204V27.1344ZM130.614 18.3348H132.818V20.534H130.614V18.3348ZM130.614 22.7361H132.818V24.9353H130.614V22.7361ZM130.614 31.5357H132.818V33.7348H130.614V31.5357ZM130.614 27.1344H132.818V29.3335H130.614V27.1344ZM135.025 18.3348H137.228V20.534H135.025V18.3348ZM135.025 22.7361H137.228V24.9353H135.025V22.7361ZM135.025 31.5357H137.228V33.7348H135.025V31.5357ZM135.025 27.1344H137.228V29.3335H135.025V27.1344ZM139.435 18.3348H141.639V20.534H139.435V18.3348ZM139.435 22.7361H141.639V24.9353H139.435V22.7361ZM139.435 31.5357H141.639V33.7348H139.435V31.5357ZM139.435 27.1344H141.639V29.3335H139.435V27.1344ZM143.846 18.3348H146.049V20.534H143.846V18.3348ZM143.846 22.7361H146.049V24.9353H143.846V22.7361ZM143.846 31.5357H146.049V33.7348H143.846V31.5357ZM143.846 27.1344H146.049V29.3335H143.846V27.1344ZM148.256 18.3348H150.46V20.534H148.256V18.3348ZM148.256 22.7361H150.46V24.9353H148.256V22.7361ZM148.256 31.5357H150.46V33.7348H148.256V31.5357ZM148.256 27.1344H150.46V29.3335H148.256V27.1344ZM152.664 18.3348H154.867V20.534H152.664V18.3348ZM152.664 22.7361H154.867V24.9353H152.664V22.7361ZM152.664 31.5357H154.867V33.7348H152.664V31.5357ZM112.981 44.7365H115.185V46.9356H112.981V44.7365ZM117.392 44.7365H119.596V46.9356H117.392V44.7365ZM121.802 44.7365H124.006V46.9356H121.802V44.7365ZM126.213 44.7365H128.417V46.9356H126.213V44.7365ZM130.623 44.7365H132.827V46.9356H130.623V44.7365ZM135.034 44.7365H137.238V46.9356H135.034V44.7365ZM139.444 44.7365H141.648V46.9356H139.444V44.7365ZM143.855 44.7365H146.059V46.9356H143.855V44.7365ZM148.262 44.7365H150.466V46.9356H148.262V44.7365ZM152.67 44.7365H154.873V46.9356H152.67V44.7365ZM117.395 49.1378H119.599V51.3369H117.395V49.1378ZM121.806 49.1378H124.009V51.3369H121.806V49.1378ZM126.216 49.1378H128.42V51.3369H126.216V49.1378ZM130.627 49.1378H132.83V51.3369H130.627V49.1378ZM135.037 49.1378H137.241V51.3369H135.037V49.1378ZM135.037 53.5391H137.241V55.7382H135.037V53.5391ZM135.037 57.9404H137.241V60.1395H135.037V57.9404ZM139.448 49.1409H141.651V51.34H139.448V49.1409ZM143.858 49.1409H146.062V51.34H143.858V49.1409ZM148.265 49.1409H150.469V51.34H148.265V49.1409ZM143.855 53.5422H146.059V55.7413H143.855V53.5422ZM148.265 53.5422H150.469V55.7413H148.265V53.5422ZM148.265 57.9435H150.469V60.1426H148.265V57.9435ZM148.265 62.3448H150.469V64.5439H148.265V62.3448ZM152.673 62.3448H154.877V64.5439H152.673V62.3448ZM157.08 62.3448H159.284V64.5439H157.08V62.3448ZM152.673 66.7461H154.877V68.9452H152.673V66.7461ZM157.08 66.7461H159.284V68.9452H157.08V66.7461ZM168.105 66.7461H170.309V68.9452H168.105V66.7461ZM172.512 66.7461H174.716V68.9452H172.512V66.7461ZM152.673 49.147H154.877V51.3461H152.673V49.147ZM152.673 27.1467H154.877V29.3458H152.673V27.1467ZM157.08 18.3472H159.284V20.5463H157.08V18.3472ZM157.08 22.7485H159.284V24.9476H157.08V22.7485ZM157.08 31.548H159.284V33.7471H157.08V31.548ZM157.08 27.1467H159.284V29.3458H157.08V27.1467ZM161.491 18.3472H163.694V20.5463H161.491V18.3472ZM161.491 22.7485H163.694V24.9476H161.491V22.7485ZM161.491 31.548H163.694V33.7471H161.491V31.548ZM126.216 35.9493H128.42V38.1484H126.216V35.9493ZM130.627 35.9493H132.83V38.1484H130.627V35.9493ZM135.037 35.9493H137.241V38.1484H135.037V35.9493ZM139.448 35.9493H141.651V38.1484H139.448V35.9493ZM143.858 35.9493H146.062V38.1484H143.858V35.9493ZM148.265 35.9493H150.469V38.1484H148.265V35.9493ZM152.673 35.9493H154.877V38.1484H152.673V35.9493ZM157.08 35.9493H159.284V38.1484H157.08V35.9493ZM161.491 35.9493H163.694V38.1484H161.491V35.9493ZM152.673 75.5487H154.877V77.7478H152.673V75.5487ZM157.08 75.5487H159.284V77.7478H157.08V75.5487ZM161.491 75.5487H163.694V77.7478H161.491V75.5487ZM165.898 75.5487H168.102V77.7478H165.898V75.5487ZM152.67 79.95H154.873V82.1491H152.67V79.95ZM157.077 79.95H159.281V82.1491H157.077V79.95ZM161.488 79.95H163.691V82.1491H161.488V79.95ZM165.895 79.95H168.099V82.1491H165.895V79.95ZM170.302 75.5487H172.506V77.7478H170.302V75.5487ZM170.302 79.95H172.506V82.1491H170.302V79.95ZM161.485 84.3513H163.688V86.5504H161.485V84.3513ZM165.892 84.3513H168.096V86.5504H165.892V84.3513ZM170.299 84.3513H172.503V86.5504H170.299V84.3513ZM174.707 84.3513H176.91V86.5504H174.707V84.3513ZM183.525 84.3513H185.728V86.5504H183.525V84.3513ZM183.525 88.7526H185.728V90.9517H183.525V88.7526ZM126.207 40.3537H128.41V42.5528H126.207V40.3537ZM130.617 40.3537H132.821V42.5528H130.617V40.3537ZM135.028 40.3537H137.231V42.5528H135.028V40.3537ZM139.438 40.3537H141.642V42.5528H139.438V40.3537ZM143.849 40.3537H146.052V42.5528H143.849V40.3537ZM148.259 40.3537H150.463V42.5528H148.259V40.3537ZM152.667 40.3537H154.87V42.5528H152.667V40.3537ZM157.074 40.3537H159.278V42.5528H157.074V40.3537ZM161.485 27.1559H163.688V29.355H161.485V27.1559ZM165.892 18.3564H168.096V20.5555H165.892V18.3564ZM165.892 22.7577H168.096V24.9568H165.892V22.7577ZM165.892 31.5572H168.096V33.7563H165.892V31.5572ZM165.892 27.1559H168.096V29.355H165.892V27.1559ZM170.299 18.3564H172.503V20.5555H170.299V18.3564ZM121.799 13.9551H124.003V16.1542H121.799V13.9551ZM126.21 13.9551H128.414V16.1542H126.21V13.9551ZM121.799 9.5538H124.003V11.7529H121.799V9.5538ZM126.21 9.5538H128.414V11.7529H126.21V9.5538ZM130.62 13.9551H132.824V16.1542H130.62V13.9551ZM135.031 13.9551H137.235V16.1542H135.031V13.9551ZM139.441 13.9551H141.645V16.1542H139.441V13.9551ZM143.852 13.9551H146.056V16.1542H143.852V13.9551ZM148.259 13.9551H150.463V16.1542H148.259V13.9551ZM139.441 9.5538H141.645V11.7529H139.441V9.5538ZM143.852 9.5538H146.056V11.7529H143.852V9.5538ZM143.852 5.1525H146.056V7.35161H143.852V5.1525ZM148.262 9.5538H150.466V11.7529H148.262V9.5538ZM152.67 13.9551H154.873V16.1542H152.67V13.9551ZM157.077 13.9551H159.281V16.1542H157.077V13.9551ZM161.488 13.9551H163.691V16.1542H161.488V13.9551ZM165.895 13.9551H168.099V16.1542H165.895V13.9551ZM170.302 13.9551H172.506V16.1542H170.302V13.9551ZM170.302 9.5538H172.506V11.7529H170.302V9.5538ZM170.302 22.7515H172.506V24.9507H170.302V22.7515ZM174.71 18.3502H176.914V20.5494H174.71V18.3502ZM174.71 22.7515H176.914V24.9507H174.71V22.7515ZM179.117 18.3502H181.321V20.5494H179.117V18.3502ZM179.117 22.7515H181.321V24.9507H179.117V22.7515ZM183.525 18.3502H185.728V20.5494H183.525V18.3502ZM187.932 18.3502H190.136V20.5494H187.932V18.3502ZM192.343 18.3502H194.546V20.5494H192.343V18.3502ZM183.525 22.7515H185.728V24.9507H183.525V22.7515ZM179.117 27.1528H181.321V29.352H179.117V27.1528ZM104.16 35.9524H106.364V38.1515H104.16V35.9524ZM108.571 40.3537H110.775V42.5528H108.571V40.3537ZM112.981 40.3537H115.185V42.5528H112.981V40.3537ZM90.9352 35.9524H93.1389V38.1515H90.9352V35.9524ZM90.9352 27.1528H93.1389V29.352H90.9352V27.1528Z" fill="white"/>
<path fill-rule="evenodd" clip-rule="evenodd" d="M0.5 18.3348H2.7037V20.534H0.5V18.3348ZM0.5 22.7361H2.7037V24.9353H0.5V22.7361ZM4.91049 18.3348H7.1142V20.534H4.91049V18.3348ZM4.91049 22.7361H7.1142V24.9353H4.91049V22.7361ZM4.91049 27.1374H7.1142V29.3366H4.91049V27.1374ZM9.32099 18.3379H11.5247V20.537H9.32099V18.3379ZM9.32099 22.7392H11.5247V24.9383H9.32099V22.7392ZM13.7315 18.3379H15.9352V20.537H13.7315V18.3379ZM13.7315 22.7392H15.9352V24.9383H13.7315V22.7392ZM9.32099 27.1405H11.5247V29.3396H9.32099V27.1405ZM18.1389 18.341H20.3426V20.5401H18.1389V18.341ZM18.1389 22.7423H20.3426V24.9414H18.1389V22.7423ZM18.1389 27.1436H20.3426V29.3427H18.1389V27.1436ZM22.5494 18.3441H24.7531V20.5432H22.5494V18.3441ZM22.5494 22.7454H24.7531V24.9445H22.5494V22.7454ZM22.5494 27.1467H24.7531V29.3458H22.5494V27.1467ZM22.5494 31.548H24.7531V33.7471H22.5494V31.548ZM22.5494 35.9493H24.7531V38.1484H22.5494V35.9493ZM26.9568 9.55072H29.1605V11.7498H26.9568V9.55072ZM26.9568 13.952H29.1605V16.1511H26.9568V13.952ZM26.9568 18.3533H29.1605V20.5524H26.9568V18.3533ZM26.9568 22.7546H29.1605V24.9537H26.9568V22.7546ZM26.9568 27.1559H29.1605V29.355H26.9568V27.1559ZM26.9568 31.5572H29.1605V33.7563H26.9568V31.5572ZM26.9568 35.9585H29.1605V38.1576H26.9568V35.9585ZM26.9568 40.3598H29.1605V42.5589H26.9568V40.3598ZM26.9568 44.7611H29.1605V46.9602H26.9568V44.7611ZM31.3673 9.55996H33.571V11.7591H31.3673V9.55996ZM35.7778 5.15866H37.9815V7.35777H35.7778V5.15866ZM31.3673 13.9582H33.571V16.1573H31.3673V13.9582ZM31.3673 18.3595H33.571V20.5586H31.3673V18.3595ZM31.3673 22.7608H33.571V24.9599H31.3673V22.7608ZM31.3673 27.1621H33.571V29.3612H31.3673V27.1621ZM31.3673 31.5634H33.571V33.7625H31.3673V31.5634ZM31.3673 35.9647H33.571V38.1638H31.3673V35.9647ZM31.3673 40.366H33.571V42.5651H31.3673V40.366ZM31.3673 44.7673H33.571V46.9664H31.3673V44.7673ZM31.3673 49.1686H33.571V51.3677H31.3673V49.1686ZM35.7778 13.9674H37.9815V16.1665H35.7778V13.9674ZM35.7778 18.3687H37.9815V20.5678H35.7778V18.3687ZM35.7778 22.77H37.9815V24.9691H35.7778V22.77ZM35.7778 27.1713H37.9815V29.3704H35.7778V27.1713ZM35.7778 31.5726H37.9815V33.7717H35.7778V31.5726ZM35.7778 35.9739H37.9815V38.173H35.7778V35.9739ZM35.7778 40.3752H37.9815V42.5743H35.7778V40.3752ZM35.7778 44.7765H37.9815V46.9756H35.7778V44.7765ZM35.7778 49.1778H37.9815V51.3769H35.7778V49.1778ZM35.7778 53.5791H37.9815V55.7782H35.7778V53.5791ZM40.1821 5.13094H42.3858V7.33005H40.1821V5.13094ZM40.1821 9.53224H42.3858V11.7314H40.1821V9.53224ZM40.1821 13.9335H42.3858V16.1327H40.1821V13.9335ZM44.5926 13.9335H46.7963V16.1327H44.5926V13.9335ZM49.0031 13.9335H51.2068V16.1327H49.0031V13.9335ZM40.1852 18.3348H42.3889V20.534H40.1852V18.3348ZM40.1852 31.5357H42.3889V33.7348H40.1852V31.5357ZM40.1852 35.937H42.3889V38.1361H40.1852V35.937ZM40.1852 40.3383H42.3889V42.5374H40.1852V40.3383ZM40.1852 44.7396H42.3889V46.9387H40.1852V44.7396ZM44.5957 31.5418H46.7994V33.7409H44.5957V31.5418ZM44.5957 35.9431H46.7994V38.1422H44.5957V35.9431ZM44.5957 40.3413H46.7994V42.5405H44.5957V40.3413ZM44.5957 44.7426H46.7994V46.9418H44.5957V44.7426ZM44.5957 57.9435H46.7994V60.1426H44.5957V57.9435ZM49.0062 57.9435H51.2099V60.1426H49.0062V57.9435ZM53.4167 57.9435H55.6204V60.1426H53.4167V57.9435ZM57.8272 57.9435H60.0309V60.1426H57.8272V57.9435ZM49.0093 62.3448H51.213V64.5439H49.0093V62.3448ZM53.4198 62.3448H55.6235V64.5439H53.4198V62.3448ZM57.8302 62.3448H60.034V64.5439H57.8302V62.3448ZM62.2407 62.3448H64.4444V64.5439H62.2407V62.3448ZM49.0123 66.7461H51.2161V68.9452H49.0123V66.7461ZM53.4228 66.7461H55.6265V68.9452H53.4228V66.7461ZM57.8333 66.7461H60.037V68.9452H57.8333V66.7461ZM62.2438 66.7461H64.4475V68.9452H62.2438V66.7461ZM66.6543 66.7461H68.858V68.9452H66.6543V66.7461ZM49.0154 71.1474H51.2191V73.3465H49.0154V71.1474ZM53.4259 71.1474H55.6296V73.3465H53.4259V71.1474ZM57.8364 71.1474H60.0401V73.3465H57.8364V71.1474ZM62.2469 71.1474H64.4506V73.3465H62.2469V71.1474ZM53.429 75.5487H55.6327V77.7478H53.429V75.5487ZM57.8395 75.5487H60.0432V77.7478H57.8395V75.5487ZM62.25 75.5487H64.4537V77.7478H62.25V75.5487ZM53.4321 79.95H55.6358V82.1491H53.4321V79.95ZM57.8426 79.95H60.0463V82.1491H57.8426V79.95ZM53.4321 84.3513H55.6358V86.5504H53.4321V84.3513ZM53.4321 88.7526H55.6358V90.9517H53.4321V88.7526ZM53.4321 93.1539H55.6358V95.353H53.4321V93.1539ZM57.8426 97.5552H60.0463V99.7543H57.8426V97.5552ZM57.8426 84.3543H60.0463V86.5535H57.8426V84.3543ZM62.2531 79.953H64.4568V82.1522H62.2531V79.953ZM66.6636 71.1535H68.8673V73.3526H66.6636V71.1535ZM49.0247 27.1528H51.2284V29.352H49.0247V27.1528ZM49.0247 31.5541H51.2284V33.7533H49.0247V31.5541ZM49.0247 18.3533H51.2284V20.5524H49.0247V18.3533ZM49.0247 22.7546H51.2284V24.9537H49.0247V22.7546ZM49.0247 35.9554H51.2284V38.1546H49.0247V35.9554ZM53.4352 27.1559H55.6389V29.355H53.4352V27.1559ZM53.4352 31.5572H55.6389V33.7563H53.4352V31.5572ZM53.4352 18.3564H55.6389V20.5555H53.4352V18.3564ZM53.4352 22.7577H55.6389V24.9568H53.4352V22.7577ZM53.4352 35.9585H55.6389V38.1576H53.4352V35.9585ZM57.8457 31.5572H60.0494V33.7563H57.8457V31.5572ZM57.8457 35.9585H60.0494V38.1576H57.8457V35.9585ZM49.0278 40.3598H51.2315V42.5589H49.0278V40.3598ZM40.2099 53.5606H42.4136V55.7598H40.2099V53.5606ZM44.5895 0.726562H46.7932V2.92567H44.5895V0.726562ZM44.5895 5.12786H46.7932V7.32697H44.5895V5.12786ZM49 0.726562H51.2037V2.92567H49V0.726562ZM49 5.12786H51.2037V7.32697H49V5.12786ZM53.4105 5.12786H55.6142V7.32697H53.4105V5.12786ZM57.821 5.12786H60.0247V7.32697H57.821V5.12786ZM57.821 9.52916H60.0247V11.7283H57.821V9.52916ZM62.2315 5.12786H64.4352V7.32697H62.2315V5.12786ZM66.642 5.12786H68.8457V7.32697H66.642V5.12786ZM71.0525 5.12786H73.2562V7.32697H71.0525V5.12786ZM75.463 5.12786H77.6667V7.32697H75.463V5.12786ZM79.8735 5.12786H82.0772V7.32697H79.8735V5.12786ZM99.716 5.12786H101.92V7.32697H99.716V5.12786ZM104.127 5.12786H106.33V7.32697H104.127V5.12786ZM62.2407 9.52916H64.4444V11.7283H62.2407V9.52916ZM66.6512 9.52916H68.8549V11.7283H66.6512V9.52916ZM71.0617 9.52916H73.2654V11.7283H71.0617V9.52916ZM75.4722 9.52916H77.6759V11.7283H75.4722V9.52916ZM62.2469 13.9305H64.4506V16.1296H62.2469V13.9305ZM66.6574 13.9305H68.8611V16.1296H66.6574V13.9305ZM62.25 18.3318H64.4537V20.5309H62.25V18.3318ZM66.6605 18.3318H68.8642V20.5309H66.6605V18.3318ZM66.6605 22.7331H68.8642V24.9322H66.6605V22.7331ZM71.071 13.9335H73.2747V16.1327H71.071V13.9335ZM75.4815 13.9335H77.6852V16.1327H75.4815V13.9335ZM79.892 9.53224H82.0957V11.7314H79.892V9.53224ZM86.5062 31.5326H88.7099V33.7317H86.5062V31.5326ZM86.5062 49.1316H88.7099V51.3307H86.5062V49.1316ZM86.5062 53.5329H88.7099V55.732H86.5062V53.5329ZM86.5062 57.9342H88.7099V60.1333H86.5062V57.9342ZM90.9167 49.1347H93.1204V51.3338H90.9167V49.1347ZM90.9167 53.536H93.1204V55.7351H90.9167V53.536ZM90.9167 57.9373H93.1204V60.1364H90.9167V57.9373ZM95.3272 49.1378H97.5309V51.3369H95.3272V49.1378ZM95.3272 53.5391H97.5309V55.7382H95.3272V53.5391ZM95.3272 57.9404H97.5309V60.1395H95.3272V57.9404ZM99.7377 49.1409H101.941V51.34H99.7377V49.1409ZM90.9197 44.7396H93.1235V46.9387H90.9197V44.7396ZM95.3302 44.7396H97.534V46.9387H95.3302V44.7396ZM95.3302 35.94H97.534V38.1392H95.3302V35.94ZM95.3302 31.5387H97.534V33.7379H95.3302V31.5387ZM99.7407 44.7396H101.944V46.9387H99.7407V44.7396ZM99.7407 53.5391H101.944V55.7382H99.7407V53.5391ZM99.7407 57.9404H101.944V60.1395H99.7407V57.9404ZM99.7407 66.7399H101.944V68.939H99.7407V66.7399ZM99.7407 62.3386H101.944V64.5377H99.7407V62.3386ZM99.7407 71.1381H101.944V73.3372H99.7407V71.1381ZM104.151 49.1378H106.355V51.3369H104.151V49.1378ZM104.151 44.7365H106.355V46.9356H104.151V44.7365ZM104.151 53.536H106.355V55.7351H104.151V53.536ZM104.151 57.9373H106.355V60.1364H104.151V57.9373ZM104.151 66.7368H106.355V68.9359H104.151V66.7368ZM104.151 62.3355H106.355V64.5346H104.151V62.3355ZM104.151 71.135H106.355V73.3342H104.151V71.135ZM108.562 49.1347H110.765V51.3338H108.562V49.1347ZM108.562 53.536H110.765V55.7351H108.562V53.536ZM108.562 57.9373H110.765V60.1364H108.562V57.9373ZM108.562 66.7368H110.765V68.9359H108.562V66.7368ZM108.562 62.3355H110.765V64.5346H108.562V62.3355ZM112.972 57.9342H115.176V60.1333H112.972V57.9342ZM117.383 57.9342H119.586V60.1333H117.383V57.9342ZM112.972 66.7337H115.176V68.9329H112.972V66.7337ZM112.972 62.3325H115.176V64.5316H112.972V62.3325ZM108.562 71.132H110.765V73.3311H108.562V71.132ZM117.38 75.5333H119.583V77.7324H117.38V75.5333ZM117.38 79.9346H119.583V82.1337H117.38V79.9346ZM104.151 75.5333H106.355V77.7324H104.151V75.5333ZM104.151 79.9346H106.355V82.1337H104.151V79.9346ZM99.7407 18.3348H101.944V20.534H99.7407V18.3348ZM99.7407 22.7361H101.944V24.9353H99.7407V22.7361ZM99.7407 31.5357H101.944V33.7348H99.7407V31.5357ZM99.7407 27.1344H101.944V29.3335H99.7407V27.1344ZM99.7407 35.9339H101.944V38.133H99.7407V35.9339ZM104.151 18.3318H106.355V20.5309H104.151V18.3318ZM104.151 22.7331H106.355V24.9322H104.151V22.7331ZM104.151 31.5326H106.355V33.7317H104.151V31.5326ZM104.151 27.1313H106.355V29.3304H104.151V27.1313ZM108.562 18.3318H110.765V20.5309H108.562V18.3318ZM108.562 22.7331H110.765V24.9322H108.562V22.7331ZM108.562 31.5326H110.765V33.7317H108.562V31.5326ZM108.562 27.1313H110.765V29.3304H108.562V27.1313ZM112.972 18.3318H115.176V20.5309H112.972V18.3318ZM112.972 22.7331H115.176V24.9322H112.972V22.7331ZM112.972 31.5326H115.176V33.7317H112.972V31.5326ZM117.383 35.9339H119.586V38.133H117.383V35.9339ZM112.972 27.1344H115.176V29.3335H112.972V27.1344ZM117.383 18.3348H119.586V20.534H117.383V18.3348ZM117.383 22.7361H119.586V24.9353H117.383V22.7361ZM117.383 31.5357H119.586V33.7348H117.383V31.5357ZM117.383 27.1344H119.586V29.3335H117.383V27.1344ZM121.793 18.3348H123.997V20.534H121.793V18.3348ZM121.793 22.7361H123.997V24.9353H121.793V22.7361ZM121.793 31.5357H123.997V33.7348H121.793V31.5357ZM121.793 27.1344H123.997V29.3335H121.793V27.1344ZM126.204 18.3348H128.407V20.534H126.204V18.3348ZM126.204 22.7361H128.407V24.9353H126.204V22.7361ZM126.204 31.5357H128.407V33.7348H126.204V31.5357ZM126.204 27.1344H128.407V29.3335H126.204V27.1344ZM130.614 18.3348H132.818V20.534H130.614V18.3348ZM130.614 22.7361H132.818V24.9353H130.614V22.7361ZM130.614 31.5357H132.818V33.7348H130.614V31.5357ZM130.614 27.1344H132.818V29.3335H130.614V27.1344ZM135.025 18.3348H137.228V20.534H135.025V18.3348ZM135.025 22.7361H137.228V24.9353H135.025V22.7361ZM135.025 31.5357H137.228V33.7348H135.025V31.5357ZM135.025 27.1344H137.228V29.3335H135.025V27.1344ZM139.435 18.3348H141.639V20.534H139.435V18.3348ZM139.435 22.7361H141.639V24.9353H139.435V22.7361ZM139.435 31.5357H141.639V33.7348H139.435V31.5357ZM139.435 27.1344H141.639V29.3335H139.435V27.1344ZM143.846 18.3348H146.049V20.534H143.846V18.3348ZM143.846 22.7361H146.049V24.9353H143.846V22.7361ZM143.846 31.5357H146.049V33.7348H143.846V31.5357ZM143.846 27.1344H146.049V29.3335H143.846V27.1344ZM148.256 18.3348H150.46V20.534H148.256V18.3348ZM148.256 22.7361H150.46V24.9353H148.256V22.7361ZM148.256 31.5357H150.46V33.7348H148.256V31.5357ZM148.256 27.1344H150.46V29.3335H148.256V27.1344ZM152.664 18.3348H154.867V20.534H152.664V18.3348ZM152.664 22.7361H154.867V24.9353H152.664V22.7361ZM152.664 31.5357H154.867V33.7348H152.664V31.5357ZM112.981 44.7365H115.185V46.9356H112.981V44.7365ZM117.392 44.7365H119.596V46.9356H117.392V44.7365ZM121.802 44.7365H124.006V46.9356H121.802V44.7365ZM126.213 44.7365H128.417V46.9356H126.213V44.7365ZM130.623 44.7365H132.827V46.9356H130.623V44.7365ZM135.034 44.7365H137.238V46.9356H135.034V44.7365ZM139.444 44.7365H141.648V46.9356H139.444V44.7365ZM143.855 44.7365H146.059V46.9356H143.855V44.7365ZM148.262 44.7365H150.466V46.9356H148.262V44.7365ZM152.67 44.7365H154.873V46.9356H152.67V44.7365ZM117.395 49.1378H119.599V51.3369H117.395V49.1378ZM121.806 49.1378H124.009V51.3369H121.806V49.1378ZM126.216 49.1378H128.42V51.3369H126.216V49.1378ZM130.627 49.1378H132.83V51.3369H130.627V49.1378ZM135.037 49.1378H137.241V51.3369H135.037V49.1378ZM135.037 53.5391H137.241V55.7382H135.037V53.5391ZM135.037 57.9404H137.241V60.1395H135.037V57.9404ZM139.448 49.1409H141.651V51.34H139.448V49.1409ZM143.858 49.1409H146.062V51.34H143.858V49.1409ZM148.265 49.1409H150.469V51.34H148.265V49.1409ZM143.855 53.5422H146.059V55.7413H143.855V53.5422ZM148.265 53.5422H150.469V55.7413H148.265V53.5422ZM148.265 57.9435H150.469V60.1426H148.265V57.9435ZM148.265 62.3448H150.469V64.5439H148.265V62.3448ZM152.673 62.3448H154.877V64.5439H152.673V62.3448ZM157.08 62.3448H159.284V64.5439H157.08V62.3448ZM152.673 66.7461H154.877V68.9452H152.673V66.7461ZM157.08 66.7461H159.284V68.9452H157.08V66.7461ZM168.105 66.7461H170.309V68.9452H168.105V66.7461ZM172.512 66.7461H174.716V68.9452H172.512V66.7461ZM152.673 49.147H154.877V51.3461H152.673V49.147ZM152.673 27.1467H154.877V29.3458H152.673V27.1467ZM157.08 18.3472H159.284V20.5463H157.08V18.3472ZM157.08 22.7485H159.284V24.9476H157.08V22.7485ZM157.08 31.548H159.284V33.7471H157.08V31.548ZM157.08 27.1467H159.284V29.3458H157.08V27.1467ZM161.491 18.3472H163.694V20.5463H161.491V18.3472ZM161.491 22.7485H163.694V24.9476H161.491V22.7485ZM161.491 31.548H163.694V33.7471H161.491V31.548ZM126.216 35.9493H128.42V38.1484H126.216V35.9493ZM130.627 35.9493H132.83V38.1484H130.627V35.9493ZM135.037 35.9493H137.241V38.1484H135.037V35.9493ZM139.448 35.9493H141.651V38.1484H139.448V35.9493ZM143.858 35.9493H146.062V38.1484H143.858V35.9493ZM148.265 35.9493H150.469V38.1484H148.265V35.9493ZM152.673 35.9493H154.877V38.1484H152.673V35.9493ZM157.08 35.9493H159.284V38.1484H157.08V35.9493ZM161.491 35.9493H163.694V38.1484H161.491V35.9493ZM152.673 75.5487H154.877V77.7478H152.673V75.5487ZM157.08 75.5487H159.284V77.7478H157.08V75.5487ZM161.491 75.5487H163.694V77.7478H161.491V75.5487ZM165.898 75.5487H168.102V77.7478H165.898V75.5487ZM152.67 79.95H154.873V82.1491H152.67V79.95ZM157.077 79.95H159.281V82.1491H157.077V79.95ZM161.488 79.95H163.691V82.1491H161.488V79.95ZM165.895 79.95H168.099V82.1491H165.895V79.95ZM170.302 75.5487H172.506V77.7478H170.302V75.5487ZM170.302 79.95H172.506V82.1491H170.302V79.95ZM161.485 84.3513H163.688V86.5504H161.485V84.3513ZM165.892 84.3513H168.096V86.5504H165.892V84.3513ZM170.299 84.3513H172.503V86.5504H170.299V84.3513ZM174.707 84.3513H176.91V86.5504H174.707V84.3513ZM183.525 84.3513H185.728V86.5504H183.525V84.3513ZM183.525 88.7526H185.728V90.9517H183.525V88.7526ZM126.207 40.3537H128.41V42.5528H126.207V40.3537ZM130.617 40.3537H132.821V42.5528H130.617V40.3537ZM135.028 40.3537H137.231V42.5528H135.028V40.3537ZM139.438 40.3537H141.642V42.5528H139.438V40.3537ZM143.849 40.3537H146.052V42.5528H143.849V40.3537ZM148.259 40.3537H150.463V42.5528H148.259V40.3537ZM152.667 40.3537H154.87V42.5528H152.667V40.3537ZM157.074 40.3537H159.278V42.5528H157.074V40.3537ZM161.485 27.1559H163.688V29.355H161.485V27.1559ZM165.892 18.3564H168.096V20.5555H165.892V18.3564ZM165.892 22.7577H168.096V24.9568H165.892V22.7577ZM165.892 31.5572H168.096V33.7563H165.892V31.5572ZM165.892 27.1559H168.096V29.355H165.892V27.1559ZM170.299 18.3564H172.503V20.5555H170.299V18.3564ZM121.799 13.9551H124.003V16.1542H121.799V13.9551ZM126.21 13.9551H128.414V16.1542H126.21V13.9551ZM121.799 9.5538H124.003V11.7529H121.799V9.5538ZM126.21 9.5538H128.414V11.7529H126.21V9.5538ZM130.62 13.9551H132.824V16.1542H130.62V13.9551ZM135.031 13.9551H137.235V16.1542H135.031V13.9551ZM139.441 13.9551H141.645V16.1542H139.441V13.9551ZM143.852 13.9551H146.056V16.1542H143.852V13.9551ZM148.259 13.9551H150.463V16.1542H148.259V13.9551ZM139.441 9.5538H141.645V11.7529H139.441V9.5538ZM143.852 9.5538H146.056V11.7529H143.852V9.5538ZM143.852 5.1525H146.056V7.35161H143.852V5.1525ZM148.262 9.5538H150.466V11.7529H148.262V9.5538ZM152.67 13.9551H154.873V16.1542H152.67V13.9551ZM157.077 13.9551H159.281V16.1542H157.077V13.9551ZM161.488 13.9551H163.691V16.1542H161.488V13.9551ZM165.895 13.9551H168.099V16.1542H165.895V13.9551ZM170.302 13.9551H172.506V16.1542H170.302V13.9551ZM170.302 9.5538H172.506V11.7529H170.302V9.5538ZM170.302 22.7515H172.506V24.9507H170.302V22.7515ZM174.71 18.3502H176.914V20.5494H174.71V18.3502ZM174.71 22.7515H176.914V24.9507H174.71V22.7515ZM179.117 18.3502H181.321V20.5494H179.117V18.3502ZM179.117 22.7515H181.321V24.9507H179.117V22.7515ZM183.525 18.3502H185.728V20.5494H183.525V18.3502ZM187.932 18.3502H190.136V20.5494H187.932V18.3502ZM192.343 18.3502H194.546V20.5494H192.343V18.3502ZM183.525 22.7515H185.728V24.9507H183.525V22.7515ZM179.117 27.1528H181.321V29.352H179.117V27.1528ZM104.16 35.9524H106.364V38.1515H104.16V35.9524ZM108.571 40.3537H110.775V42.5528H108.571V40.3537ZM112.981 40.3537H115.185V42.5528H112.981V40.3537ZM90.9352 35.9524H93.1389V38.1515H90.9352V35.9524ZM90.9352 27.1528H93.1389V29.352H90.9352V27.1528Z" stroke="white" mask="url(#path-1-outside-1_3332_341)"/>
</svg>
